<svg width="550" height="472" viewBox="0 0 550 472" fill="none" xmlns="http://www.w3.org/2000/svg">
<path d="M353.889 215.088L342.13 221.37L371.893 241.307L353.889 215.088Z" fill="#D1D3D4"/>
<path d="M403.555 33.4185H394.674V342.268H403.555V33.4185Z" fill="white"/>
<path d="M424.291 274.819H70.5924V285.201H424.291V274.819Z" fill="white"/>
<path d="M258.559 252.348L270.102 348.879L436.946 356.538L481.371 266.794L485.824 252.81L258.559 252.348Z" fill="#939598"/>
<path d="M485.824 249.42H252.962V255.27H485.824V249.42Z" fill="#939598"/>
<path d="M406.617 252.348L361.805 353.089L402.729 344.076L443.66 253.805L406.617 252.348Z" fill="#939598"/>
<path d="M492.514 145.735H61.4507V156.176H492.514V145.735Z" fill="white"/>
<path d="M409.914 246.732H403.555V249.42H409.914V246.732Z" fill="black"/>
<path d="M466.518 163.11H379.834V230.72H466.518V163.11Z" fill="black"/>
<path d="M424.291 194.074C426.252 194.074 427.842 192.241 427.842 189.981C427.842 187.721 426.252 185.888 424.291 185.888C422.33 185.888 420.74 187.721 420.74 189.981C420.74 192.241 422.33 194.074 424.291 194.074Z" fill="white"/>
<path d="M414.736 202.252H411.877C411.877 202.252 428.858 228.201 411.877 246.733H414.654L431.635 242.112V215.088L414.736 202.252Z" fill="#2F2E41"/>
<path d="M414.736 202.252H411.877C411.877 202.252 428.858 228.201 411.877 246.733H414.654L431.635 242.112V215.088L414.736 202.252Z" fill="black"/>
<path d="M445.503 246.732H409.914V249.42H445.503V246.732Z" fill="#2F2E41"/>
<path d="M445.503 246.732H409.914V249.42H445.503V246.732Z" fill="black"/>
<path opacity="0.36" d="M87.8466 274.819L125.169 156.176H133.542L96.1814 274.819H87.8466Z" fill="white"/>
<path d="M135.613 338.35H169.62L168.14 349.853C156.834 348.046 145.853 344.162 135.613 338.35Z" fill="white"/>
<path opacity="0.36" d="M101.359 156.176L68.083 261.34L77.8091 272.732L115.017 156.176H101.359Z" fill="white"/>
<path opacity="0.36" d="M297.648 33.4185L275.584 98.0043V145.735H297.648L336.463 25.2473L297.648 33.4185Z" fill="white"/>
<path opacity="0.36" d="M363.958 26.9313L325.543 145.735L344.754 145.728L384.789 30.7093L363.958 26.9313Z" fill="white"/>
<path d="M414.736 202.252H435.065C435.065 202.252 449.099 233.004 434.284 246.733H414.654C414.654 246.733 431.794 229.834 414.736 202.252Z" fill="black"/>
<path d="M358.571 417.335V424.137C358.576 424.542 358.507 424.944 358.366 425.315C358.226 425.686 358.019 426.019 357.758 426.29C353.762 430.302 345.605 431.217 345.605 431.217H336.184C329.971 431.215 323.769 430.624 317.64 429.453C317.534 429.432 317.433 429.385 317.345 429.313C317.257 429.242 317.184 429.149 317.132 429.04C317.079 428.932 317.049 428.812 317.042 428.688C317.036 428.564 317.053 428.44 317.094 428.325C317.091 428.299 317.091 428.272 317.094 428.245C317.125 428.186 317.157 428.15 317.176 428.106L317.233 428.025C319.4 425.565 327.684 422.856 327.684 422.856C336.8 422.124 341.584 415.534 341.584 415.534C342.219 413.213 348.527 412.693 348.527 412.693H355.325L358.571 417.335Z" fill="#09176B"/>
<path d="M319.546 432.294C315.734 431.562 316.643 429.167 317.1 428.325C317.059 428.44 317.042 428.564 317.049 428.688C317.055 428.812 317.086 428.932 317.138 429.04C317.191 429.149 317.264 429.242 317.352 429.313C317.439 429.385 317.54 429.432 317.646 429.453C323.784 430.626 329.994 431.216 336.216 431.217H345.592C345.592 431.217 353.749 430.302 357.745 426.29C358.006 426.019 358.213 425.686 358.354 425.315C358.494 424.944 358.564 424.542 358.558 424.137C360.883 438.056 319.546 432.294 319.546 432.294Z" fill="#09176B"/>
<path d="M385.895 423.932C383.887 429.79 374.567 436.174 374.567 436.174C359.956 446.029 352.295 441.834 352.295 441.834C351.945 441.626 351.653 441.31 351.449 440.923C351.245 440.535 351.137 440.091 351.138 439.638C351.135 439.586 351.135 439.535 351.138 439.484C351.431 433.626 368.075 422.958 368.075 422.958L368.138 423.91L385.895 423.932Z" fill="#09176B"/>
<path d="M385.894 423.932C383.887 429.79 374.567 436.174 374.567 436.174C359.956 446.03 352.294 441.834 352.294 441.834C351.945 441.626 351.653 441.31 351.449 440.923C351.245 440.535 351.137 440.091 351.138 439.638C351.128 439.614 351.122 439.587 351.122 439.561C351.122 439.534 351.128 439.508 351.138 439.484C351.31 439.059 352.93 437.851 365.521 437.485C366.145 437.469 366.758 437.296 367.319 436.98C370.622 435.12 382.47 428.194 384.63 423.91L385.894 423.932Z" fill="#09176B"/>
<path d="M385.894 423.932H368.145L364.746 374.459C364.632 373.514 364.498 372.577 364.365 371.662C363.238 363.657 361.185 355.863 358.26 348.488C359.804 355.81 360.115 370.725 360.115 370.725V414.319C359.804 420.725 352.707 415.563 352.707 415.563C348.076 413.608 341.59 415.563 341.59 415.563L341.476 412.539L339.875 370.19C339.106 352.581 335.428 332.849 335.428 332.849C331.108 317.729 328.935 267.758 328.935 267.758L332.188 263.994L364.918 257.061L381.168 263.95C381.766 275.782 381.341 287.653 379.897 299.388C379.897 306.498 381.6 329.81 381.6 329.81C383.76 337.637 385.304 358.812 385.304 358.812L385.894 423.932Z" fill="#343A40"/>
<path d="M351.134 161.11L351.145 161.105L351.156 161.1L351.156 161.1L351.156 161.1L351.157 161.099L351.161 161.097L351.179 161.088C351.195 161.08 351.219 161.068 351.251 161.052C351.316 161.02 351.412 160.973 351.536 160.914C351.785 160.795 352.148 160.627 352.599 160.429C353.503 160.034 354.76 159.524 356.174 159.064C357.589 158.603 359.151 158.197 360.667 158.002C362.189 157.808 363.629 157.832 364.82 158.203L364.897 158.227L364.975 158.225L364.976 158.225L364.976 158.225L364.976 158.225L364.986 158.225C364.997 158.226 365.017 158.226 365.044 158.228C365.099 158.231 365.184 158.239 365.297 158.258C365.521 158.294 365.85 158.371 366.245 158.534C367.002 158.847 368.016 159.483 369.006 160.788L360.68 221.357L360.678 221.372L360.677 221.386L356.907 269.605L340.178 267.259L337.486 255.358L340.257 174.379L343.999 165.202C346.268 163.595 348.656 162.226 351.134 161.11Z" fill="white" stroke="#09176B"/>
<path d="M226.617 279.678C226.617 279.678 226.439 273.63 221.922 274.011L212.228 272.854L211.968 278.455L226.617 279.678Z" fill="#0071F2"/>
<path d="M226.617 279.678C226.617 279.678 226.439 273.63 221.922 274.011L212.228 272.854L211.968 278.455L226.617 279.678Z" fill="black"/>
<path d="M182.135 274.01H182.078C181.315 274.01 180.58 274.338 180.016 274.93C179.452 275.522 179.099 276.335 179.028 277.21L175.115 324.992C175.026 326.09 175.318 327.183 175.926 328.033C176.534 328.884 177.41 329.423 178.361 329.532L230.384 335.463C231.328 335.57 232.27 335.247 233.009 334.562C233.747 333.878 234.224 332.887 234.336 331.802L237.137 303.884L182.135 274.01Z" fill="#0071F2"/>
<path d="M182.135 274.01H182.078C181.315 274.01 180.58 274.338 180.016 274.93C179.452 275.522 179.099 276.335 179.028 277.21L175.115 324.992C175.026 326.09 175.318 327.183 175.926 328.033C176.534 328.884 177.41 329.423 178.361 329.532L230.384 335.463C231.328 335.57 232.27 335.247 233.009 334.562C233.747 333.878 234.224 332.887 234.336 331.802L237.137 303.884L182.135 274.01Z" fill="black"/>
<path d="M182.027 304.118L237.112 311.132C237.378 311.168 237.647 311.142 237.905 311.056C238.162 310.971 238.402 310.827 238.611 310.633C238.819 310.44 238.993 310.201 239.12 309.929C239.248 309.658 239.328 309.36 239.354 309.053L241.616 283.258C241.643 282.958 241.617 282.655 241.541 282.366C241.464 282.078 241.338 281.81 241.169 281.58C241.001 281.349 240.794 281.159 240.561 281.022C240.328 280.886 240.073 280.804 239.812 280.783L182.478 275.987L180.311 301.687C180.283 301.977 180.306 302.27 180.377 302.55C180.448 302.83 180.567 303.091 180.727 303.317C180.887 303.543 181.084 303.731 181.307 303.868C181.53 304.006 181.775 304.091 182.027 304.118Z" fill="#0071F2"/>
<path d="M182.027 304.118L237.112 311.132C237.378 311.168 237.647 311.142 237.905 311.056C238.162 310.971 238.402 310.827 238.611 310.633C238.819 310.44 238.993 310.201 239.12 309.929C239.248 309.658 239.328 309.36 239.354 309.053L241.616 283.258C241.643 282.958 241.617 282.655 241.541 282.366C241.464 282.078 241.338 281.81 241.169 281.58C241.001 281.349 240.794 281.159 240.561 281.022C240.328 280.886 240.073 280.804 239.812 280.783L182.478 275.987L180.311 301.687C180.283 301.977 180.306 302.27 180.377 302.55C180.448 302.83 180.567 303.091 180.727 303.317C180.887 303.543 181.084 303.731 181.307 303.868C181.53 304.006 181.775 304.091 182.027 304.118Z" fill="#0071F2"/>
<path d="M182.027 304.118L237.112 311.132C237.378 311.168 237.647 311.142 237.905 311.056C238.162 310.971 238.402 310.827 238.611 310.633C238.819 310.44 238.993 310.201 239.12 309.929C239.248 309.658 239.328 309.36 239.354 309.053L241.616 283.258C241.643 282.958 241.617 282.655 241.541 282.366C241.464 282.078 241.338 281.81 241.169 281.58C241.001 281.349 240.794 281.159 240.561 281.022C240.328 280.886 240.073 280.804 239.812 280.783L182.478 275.987L180.311 301.687C180.283 301.977 180.306 302.27 180.377 302.55C180.448 302.83 180.567 303.091 180.727 303.317C180.887 303.543 181.084 303.731 181.307 303.868C181.53 304.006 181.775 304.091 182.027 304.118Z" fill="black"/>
<path d="M204.751 421.853C205.808 423.646 207.246 425.099 208.927 426.073C210.608 427.046 212.476 427.509 214.356 427.417C214.885 427.381 215.415 427.381 215.944 427.417C219.064 427.718 229.793 429.079 231.541 434.007C231.678 434.4 231.697 434.834 231.596 435.242C231.494 435.649 231.278 436.005 230.981 436.255C229.882 437.192 227.246 438.451 220.925 439.081L199.961 437.463L191.003 416.859L204.751 421.853Z" fill="#0071F2"/>
<path d="M204.751 421.853C205.808 423.646 207.246 425.099 208.927 426.073C210.608 427.046 212.476 427.509 214.356 427.417C214.885 427.381 215.415 427.381 215.944 427.417C219.057 427.718 229.762 429.072 231.534 434.007C231.669 434.397 231.69 434.828 231.592 435.232C231.495 435.637 231.285 435.994 230.994 436.248C229.901 437.214 227.265 438.539 220.925 439.11L199.961 437.492L191.003 416.889L204.751 421.853Z" fill="#09176B"/>
<path d="M182.268 426.422C182.268 426.422 178.05 439.469 185.572 440.465C185.572 440.465 196.708 441.256 203.925 441.651C203.925 441.651 220.861 444.668 220.925 439.11C220.913 438.508 220.696 437.934 220.321 437.514C218.502 435.418 216.32 433.787 213.917 432.728C211.515 431.668 208.946 431.203 206.377 431.364C205.088 431.45 203.801 431.168 202.629 430.544C200.285 429.255 196.664 426.883 196.403 424.547L182.268 426.422Z" fill="#09176B"/>
<path d="M222.748 298.553C222.748 298.553 222.52 323.733 217.926 344.681L209.668 395.575L206.447 419.781C206.378 420.297 206.173 420.777 205.859 421.155C205.546 421.532 205.139 421.789 204.694 421.889L197.439 423.544L214.032 344.154C214.032 344.154 220.665 317.993 222.462 298.561L222.748 298.553Z" fill="#2F2E41"/>
<path d="M222.748 298.553C222.748 298.553 222.52 323.733 217.926 344.681L209.668 395.575L206.447 419.781C206.378 420.297 206.173 420.777 205.859 421.155C205.546 421.532 205.139 421.789 204.694 421.889L197.439 423.544L214.032 344.154C214.032 344.154 220.665 317.993 222.462 298.561L222.748 298.553Z" fill="#343A40"/>
<path d="M222.545 166.944C222.545 166.944 229.393 175.305 229.082 183.601V197C229.082 197 223.904 181.265 220.576 172.794L222.545 166.944Z" fill="#0071F2"/>
<path d="M222.545 166.944C222.545 166.944 229.393 175.305 229.082 183.601V197C229.082 197 223.904 181.265 220.576 172.794L222.545 166.944Z" fill="#09176B"/>
<path d="M382.343 248.67L383.709 263.269L366.703 267.736L357.326 270.203L353.463 246.18C351.801 234.021 352.381 221.594 355.166 209.71C358.87 191.032 369.517 160.654 369.517 160.654C374.779 164.256 379.776 168.348 384.459 172.889C390.475 178.929 391.129 181.946 391.129 181.946L382.343 248.67Z" fill="#09176B"/>
<path opacity="0.2" d="M382.343 248.67L383.709 263.27L366.703 267.736C366.703 267.736 368.1 247.052 365.337 241.729C365.337 241.729 356.703 232.664 364.27 227.327C364.27 227.327 371.696 223.226 371.842 218.248C371.842 218.248 369.758 180.211 384.459 172.896C390.475 178.937 391.129 181.953 391.129 181.953L382.343 248.67Z" fill="black"/>
<path opacity="0.2" d="M357.491 209C358.901 206.769 360.333 204.551 361.786 202.345C363.24 200.148 364.676 197.951 366.15 195.755L370.597 189.216L370.864 188.821C370.929 188.717 370.978 188.6 371.01 188.477C371.074 188.239 371.074 187.983 371.01 187.745C370.918 187.478 370.769 187.241 370.578 187.057L369.943 186.324L367.459 183.33L366.925 182.678H367.7H371.995H373.062C373.354 182.686 373.638 182.559 373.85 182.327C373.958 182.212 374.046 182.076 374.11 181.924L374.313 181.367L374.714 180.218C375.794 177.157 376.903 174.114 378.042 171.088C377.102 174.207 376.134 177.314 375.139 180.408L374.771 181.573L374.574 182.166C374.445 182.505 374.235 182.795 373.969 183.001C373.702 183.207 373.389 183.321 373.068 183.33H371.995H367.7L367.935 182.693L370.476 185.621L371.111 186.354C371.379 186.622 371.587 186.961 371.715 187.342C371.829 187.757 371.829 188.202 371.715 188.616C371.655 188.821 371.567 189.014 371.455 189.187L371.169 189.612L366.684 196.092C365.191 198.288 363.66 200.375 362.148 202.52C360.636 204.666 359.041 206.891 357.491 209Z" fill="black"/>
<path d="M340.046 218.599C338.807 230.526 339.741 267.728 339.741 267.728H327.849C327.849 257.793 329.081 234.963 329.081 234.963L296.574 248.362C296.404 248.432 296.222 248.454 296.043 248.426C295.864 248.399 295.693 248.324 295.545 248.206C295.396 248.088 295.274 247.931 295.187 247.748C295.101 247.566 295.054 247.362 295.049 247.154C295.049 246.817 295.018 246.473 294.986 246.129C294.986 245.975 294.948 245.822 294.935 245.668C294.516 241.963 293.029 237.833 292.083 235.498C291.949 235.154 291.822 234.846 291.714 234.59C291.658 234.458 291.626 234.313 291.62 234.166C291.614 234.019 291.635 233.872 291.681 233.734C291.727 233.597 291.797 233.472 291.887 233.367C291.977 233.262 292.085 233.18 292.203 233.125L317.97 221.11C323.218 217.728 324.323 196.026 324.323 196.026C324.131 189.617 325.75 183.309 328.935 178.051C334.653 168.598 343.617 164.871 343.617 164.871C344.061 168.606 340.046 218.599 340.046 218.599Z" fill="#09176B"/>
<path opacity="0.2" d="M326.305 207.924C327.849 214.338 323.059 215.421 323.059 215.421C320.746 217.061 323.218 219.317 323.218 219.317C325.511 222.194 324.609 224.12 324.609 224.12C318.891 220.027 313.809 225.584 313.809 225.584C312.425 227.07 310.786 228.205 308.999 228.919C307.211 229.633 305.314 229.908 303.429 229.728C301.946 229.545 300.449 229.855 299.115 230.621C298.468 231.029 297.934 231.641 297.576 232.385C297.218 233.129 297.052 233.975 297.095 234.824C297.292 240.111 295.049 245.36 294.935 245.617C294.452 241.377 292.584 236.603 291.714 234.546C291.658 234.414 291.626 234.269 291.62 234.122C291.614 233.975 291.635 233.828 291.681 233.691C291.727 233.553 291.797 233.428 291.887 233.323C291.977 233.218 292.085 233.136 292.203 233.082L317.97 221.066C323.218 217.684 324.323 195.982 324.323 195.982C324.132 189.573 325.751 183.265 328.935 178.007C325.054 186.215 326.305 207.924 326.305 207.924Z" fill="black"/>
<path opacity="0.2" d="M324.997 236.655L330.009 217.179L329.081 234.971L324.997 236.655Z" fill="black"/>
<path opacity="0.2" d="M336.343 174.302C336.425 175.693 336.457 177.092 336.52 178.483L336.622 182.664L336.298 182.341C337.683 182.063 339.068 181.814 340.459 181.558L341.095 181.433L340.802 182.129C340.11 183.74 339.424 185.343 338.719 186.939L338.757 186.734C338.867 189.077 338.949 191.423 339.004 193.771C339.068 196.114 339.106 198.464 339.1 200.814C338.858 198.479 338.668 196.143 338.503 193.8C338.337 191.457 338.179 189.121 338.058 186.778V186.676L338.096 186.573C338.782 184.967 339.479 183.369 340.186 181.778L340.548 182.349C339.157 182.568 337.766 182.795 336.368 182.986L336.038 183.03V182.664L336.139 178.483C336.222 177.092 336.26 175.693 336.343 174.302Z" fill="black"/>
<path opacity="0.2" d="M364.365 371.662C363.238 363.657 361.185 355.863 358.26 348.488C359.804 355.81 360.115 370.725 360.115 370.725V414.319C359.804 420.725 352.707 415.563 352.707 415.563C348.076 413.608 341.59 415.563 341.59 415.563L341.476 412.539C341.476 412.539 353.629 414.143 354.397 403.46C354.397 403.46 359.333 368.945 357.409 352.208L353.317 332.439C353.317 332.439 348.235 294.9 352.568 284.217C352.568 284.217 352.085 326.567 359.651 344C362.009 353.007 363.59 362.26 364.371 371.625L364.365 371.662Z" fill="black"/>
<path opacity="0.2" d="M367.484 414.326C367.484 414.326 372.928 426.414 385.907 420.015V423.932H368.145L367.484 414.326Z" fill="black"/>
<path d="M324.202 258.356L364.829 285.096L378.303 259.22L338.204 232.357L324.202 258.356Z" fill="black"/>
<path opacity="0.2" d="M358.044 245.646C357.898 251.144 354.867 255.494 352.371 258.173C350.776 259.848 348.902 261.131 346.863 261.944C340.421 264.631 339.957 268.717 339.957 268.717L359.651 281.669C359.651 281.669 362.535 273.41 361.983 267.758L366.271 251.166L358.044 245.646Z" fill="black"/>
<path d="M289.535 247.213C289.373 247.304 289.195 247.352 289.014 247.352C288.725 247.353 288.445 247.233 288.226 247.015L284.726 243.523L282.28 241.077L285.317 245.104L286.587 248.509C286.587 248.509 286.797 248.545 287.153 248.575C287.119 248.803 287.046 249.02 286.937 249.214C286.827 249.408 286.685 249.574 286.518 249.702C286.267 249.9 285.97 250.004 285.666 250.002C285.456 250 285.247 249.949 285.054 249.852C284.861 249.755 284.687 249.615 284.542 249.439L280.648 244.577L283.544 248.867C283.717 249.124 283.823 249.431 283.851 249.753C283.88 250.076 283.829 250.401 283.706 250.692C283.582 250.983 283.39 251.229 283.152 251.4C282.913 251.572 282.638 251.664 282.356 251.664C282.069 251.661 281.788 251.568 281.543 251.393L278.881 249.417C278.881 249.417 273.875 250.215 272.014 247.894C271.535 247.237 270.924 246.724 270.235 246.401C269.545 246.079 268.797 245.955 268.056 246.041C267.891 246.041 267.72 246.1 267.548 246.144V236.625C267.548 236.625 273.761 226.609 279.447 230.768L289.205 239.027C289.35 239.148 289.473 239.301 289.567 239.477C289.66 239.654 289.723 239.849 289.751 240.054C289.778 240.258 289.771 240.466 289.728 240.667C289.686 240.868 289.609 241.057 289.503 241.223C289.376 241.421 289.21 241.583 289.02 241.694C288.829 241.806 288.618 241.866 288.404 241.868C288.089 241.867 287.784 241.74 287.54 241.509L285.33 238.851C285.246 238.718 285.127 238.622 284.99 238.576C284.854 238.531 284.708 238.54 284.576 238.602C284.444 238.663 284.334 238.774 284.264 238.916C284.193 239.058 284.166 239.224 284.186 239.386C284.184 239.502 284.206 239.617 284.25 239.721C284.294 239.826 284.36 239.916 284.44 239.986L289.783 244.899C289.94 245.046 290.061 245.237 290.137 245.453C290.212 245.669 290.239 245.904 290.214 246.135C290.189 246.366 290.114 246.586 289.995 246.775C289.876 246.963 289.718 247.114 289.535 247.213Z" fill="#94431A"/>
<path d="M226.287 245.646L227.17 272.378C228.046 277.628 220.144 277.672 220.144 277.672L196.302 280.058C189.409 280.505 185.032 278.162 182.503 275.987C181.603 275.207 180.932 274.128 180.58 272.895C180.228 271.662 180.212 270.334 180.534 269.09L182.929 259.792C184.232 254.724 184.896 249.467 184.898 244.181V195.125C185.07 162.558 199.637 158.714 199.637 158.714C216.307 151.224 227.011 188.843 227.011 188.843C228.409 192.16 229.781 200.104 230.823 207.602C232.011 216.102 232.805 224.039 232.805 224.039C234.368 228.806 243.814 232.049 252.467 234.048C260.331 235.871 267.535 236.669 267.535 236.669L268.425 250.742C253.299 252.587 226.287 245.646 226.287 245.646Z" fill="#09176B"/>
<path opacity="0.2" d="M226.287 245.646L226.617 255.582C226.617 255.582 205.405 235.586 202.769 216.344C202.769 216.344 209.966 232.071 226.287 245.646Z" fill="black"/>
<path opacity="0.2" d="M252.441 234.033C237.557 234.934 236.292 230.321 236.292 230.321C235.416 229.208 234.495 230.372 233.84 231.632C233.764 231.776 233.654 231.892 233.522 231.966C233.391 232.04 233.243 232.069 233.098 232.049C232.952 232.028 232.815 231.961 232.702 231.853C232.589 231.745 232.506 231.602 232.462 231.441C231.655 228.571 230.149 224.237 230.149 224.237C228.046 219.375 224.343 202.183 224.343 202.183C222.57 188.023 215.411 177.502 215.411 177.502C226.115 187.02 230.797 207.587 230.797 207.587C231.985 216.088 232.779 224.024 232.779 224.024C234.342 228.791 243.789 232.035 252.441 234.033Z" fill="black"/>
<path d="M222.748 277.32L223.009 293.099C223.054 295.423 222.969 297.749 222.755 300.062C220.963 319.494 214.02 344.066 214.02 344.066L197.42 423.522C197.364 423.794 197.236 424.039 197.054 424.222C196.872 424.406 196.644 424.52 196.403 424.547L188.92 425.477L181.436 426.407C181.275 426.422 181.114 426.399 180.961 426.339C180.809 426.279 180.669 426.184 180.55 426.059C180.43 425.934 180.335 425.782 180.269 425.613C180.203 425.443 180.168 425.26 180.165 425.074C180.076 416.867 183.691 392.361 183.691 392.361C186.683 367.979 187.598 353.665 187.598 353.665L187.643 341.086V340.939L187.865 279.026C192.166 280.564 197.712 279.905 197.712 279.905L222.748 277.32Z" fill="#343A40"/>
<path opacity="0.2" d="M184.809 409.845C183.882 423.888 188.92 425.455 188.92 425.455L181.436 426.385C181.275 426.4 181.114 426.377 180.961 426.317C180.809 426.257 180.669 426.162 180.55 426.037C180.43 425.912 180.335 425.76 180.269 425.591C180.203 425.421 180.168 425.238 180.165 425.052C180.076 416.845 183.691 392.339 183.691 392.339C186.683 367.957 187.598 353.643 187.598 353.643L187.643 341.064C187.693 345.801 191.048 351.314 191.048 353.906C191.122 356.508 190.71 359.097 189.841 361.499C189.321 362.856 189.102 364.34 189.205 365.819C189.52 372.474 188.727 379.137 186.868 385.449L184.809 409.845Z" fill="black"/>
<path d="M235.397 114.527L234.761 112.931C231.229 116.701 221.547 116.123 221.547 116.123C217.52 116.262 217.52 117.28 217.52 117.28C214.75 119.601 217.895 121.914 217.895 121.914C220.664 124.528 218.905 126.417 218.905 126.417L213.867 132.941C212.972 132.438 211.975 132.223 210.983 132.319C210.276 132.381 209.609 132.719 209.09 133.277C208.572 133.834 208.233 134.578 208.13 135.387C208.13 135.387 199.027 127.56 199.529 119.44C200.132 109.738 212.743 107.395 212.743 107.395C213.753 101.164 224.07 98.404 224.07 98.404C232.881 96.5223 231.991 100.725 231.991 100.725C232 101.377 232.125 102.021 232.36 102.614C232.596 103.208 232.935 103.739 233.357 104.174C234.39 105.349 235.13 106.824 235.498 108.442C235.95 110.443 235.914 112.548 235.397 114.527Z" fill="#2F2E41"/>
<path d="M234.634 148.456C232.512 154.116 222.983 149.613 222.983 149.613C220.271 155.28 221.395 163.737 221.395 163.737C216.592 156.832 208.226 153.047 208.226 153.047L210.97 140.914C210.083 140.415 209.341 139.628 208.836 138.65C208.33 137.672 208.083 136.546 208.124 135.408C208.227 134.6 208.566 133.856 209.084 133.299C209.602 132.741 210.27 132.403 210.976 132.341C211.969 132.245 212.965 132.46 213.861 132.963L218.898 126.439C218.898 126.439 220.658 124.55 217.888 121.936C217.888 121.936 214.744 119.623 217.513 117.302C217.513 117.302 217.513 116.284 221.541 116.145C221.541 116.145 231.223 116.723 234.755 112.952L235.39 114.549C241.813 135.701 234.634 148.456 234.634 148.456Z" fill="#94431A"/>
<path d="M235.397 114.527C230.607 119.461 221.3 118.436 221.3 118.436C217.024 118.297 218.276 120.765 218.276 120.765C221.3 124.089 220.296 126.263 220.296 126.263L213.873 132.941L218.911 126.417C218.911 126.417 220.671 124.528 217.901 121.914C217.901 121.914 214.756 119.601 217.526 117.28C217.526 117.28 217.526 116.262 221.554 116.123C221.554 116.123 231.236 116.701 234.768 112.93L235.397 114.527Z" fill="#94431A"/>
<path d="M222.983 149.613C221.928 149.458 220.912 149.058 219.995 148.436C219.079 147.815 218.282 146.984 217.653 145.996C217.653 145.996 216.789 154.518 221.179 158.597C221.313 155.502 221.924 152.46 222.983 149.613Z" fill="#94431A"/>
<path d="M213.681 139.249C214.233 138.832 214.232 137.707 213.68 136.737C213.128 135.766 212.233 135.317 211.682 135.734C211.13 136.151 211.13 137.276 211.683 138.246C212.235 139.217 213.129 139.666 213.681 139.249Z" fill="#94431A"/>
<path d="M202.832 157.784C202.832 157.784 203.785 151.451 208.232 153.039C208.232 153.039 216.491 156.459 221.401 163.737C222.027 164.667 222.422 165.775 222.545 166.944C222.824 169.484 223.237 174.309 222.799 177.502C222.799 177.502 214.324 156.803 202.832 157.784Z" fill="#0071F2"/>
<path opacity="0.9" d="M294.986 246.114C292.127 248.611 288.532 248.64 287.153 248.545C286.797 248.545 286.588 248.479 286.588 248.479L285.317 245.075L281.88 240.682L288.233 246.986C288.452 247.204 288.732 247.323 289.021 247.322C289.201 247.323 289.379 247.275 289.542 247.183C289.725 247.083 289.883 246.93 290 246.74C290.118 246.55 290.192 246.328 290.215 246.096C290.238 245.864 290.209 245.629 290.131 245.413C290.053 245.197 289.929 245.008 289.77 244.862L284.421 239.979C284.341 239.909 284.276 239.818 284.231 239.714C284.187 239.609 284.165 239.494 284.167 239.378C284.147 239.216 284.174 239.051 284.245 238.909C284.315 238.766 284.425 238.656 284.557 238.594C284.689 238.533 284.835 238.524 284.971 238.569C285.108 238.614 285.227 238.711 285.311 238.844L287.521 241.502C287.765 241.733 288.07 241.859 288.385 241.86C288.599 241.858 288.81 241.799 289.001 241.687C289.191 241.575 289.357 241.414 289.484 241.216C289.591 241.049 289.667 240.86 289.709 240.66C289.752 240.459 289.76 240.25 289.732 240.046C289.704 239.842 289.641 239.646 289.548 239.47C289.454 239.294 289.331 239.141 289.186 239.02L279.428 230.76C283.684 228.564 288.322 235.446 288.322 235.446H292.057C293.01 237.782 294.49 241.912 294.91 245.616C294.948 245.836 294.973 245.961 294.986 246.114Z" fill="#94431A"/>
<path d="M287.147 248.575C286.791 248.575 286.581 248.509 286.581 248.509L285.311 245.104L286.797 247.081C286.951 247.282 287.062 247.522 287.123 247.781C287.183 248.04 287.191 248.311 287.147 248.575Z" fill="#F7A48B"/>
<path d="M353.584 264.346L363.507 271.463L382.439 249.556C382.439 249.556 390.386 241.201 391.155 229.787C391.155 229.787 397.793 182.634 388.683 180.145C388.683 180.145 374.936 174.287 374.015 205.412L373.036 226.939L353.584 264.346Z" fill="#09176B"/>
<path d="M361.963 270.342C361.963 270.342 358.152 283.368 352.568 278.557C352.371 278.557 346.99 278.557 346.85 274.999C346.838 274.324 347.024 273.663 347.377 273.125L349.188 270.247C349.229 270.182 349.252 270.104 349.251 270.023C349.251 269.943 349.228 269.864 349.186 269.8C349.143 269.736 349.084 269.689 349.017 269.667C348.95 269.644 348.879 269.648 348.813 269.676C347.85 270.055 346.844 270.275 345.827 270.328C345.699 270.336 345.57 270.313 345.449 270.26C345.329 270.207 345.219 270.126 345.128 270.021C345.037 269.915 344.966 269.789 344.92 269.65C344.874 269.512 344.854 269.363 344.862 269.215C344.863 269.038 344.904 268.865 344.983 268.713C345.061 268.562 345.173 268.436 345.306 268.351C346.355 267.66 347.505 267.196 348.699 266.982L353.597 264.346L361.963 270.342Z" fill="#94431A"/>
<path d="M351.799 278.184C351.837 278.194 351.87 278.22 351.891 278.258C351.912 278.296 351.919 278.342 351.91 278.385C351.902 278.429 351.879 278.467 351.846 278.491C351.813 278.515 351.773 278.523 351.735 278.513C350.173 278.36 346.952 277.715 346.837 274.999C346.826 274.324 347.011 273.664 347.365 273.125L349.175 270.247C349.215 270.183 349.237 270.105 349.236 270.026C349.236 269.947 349.213 269.87 349.172 269.806C349.131 269.743 349.074 269.696 349.008 269.672C348.942 269.649 348.872 269.65 348.807 269.676C347.841 270.053 346.833 270.272 345.815 270.328C345.686 270.336 345.557 270.313 345.437 270.26C345.316 270.207 345.207 270.126 345.115 270.021C345.024 269.916 344.953 269.789 344.908 269.651C344.862 269.512 344.842 269.363 344.849 269.215C346.359 269.269 347.87 269.126 349.353 268.79C349.528 268.734 349.714 268.738 349.887 268.802C350.06 268.865 350.213 268.986 350.328 269.148C350.442 269.31 350.513 269.508 350.532 269.716C350.551 269.924 350.516 270.134 350.433 270.32C350.134 270.94 349.76 271.507 349.321 272.004C349.321 272.004 347.663 275.856 351.799 278.184Z" fill="#94431A"/>
<path d="M362.51 142.599L365.388 160.303L357.663 170.246C350.039 178.483 350.929 168.357 350.929 168.357V152.446C336.552 159.073 336.463 141.303 336.463 141.303C335.904 141.217 335.394 140.887 335.04 140.38C334.354 139.296 334.64 137.283 335.961 135.474C336.108 135.275 336.212 135.038 336.265 134.784C336.318 134.53 336.318 134.265 336.266 134.01C335.95 132.464 335.738 130.893 335.631 129.309C335.568 128.35 335.536 127.42 335.542 126.527C335.563 124.63 335.728 122.738 336.038 120.875C336.171 120.069 336.33 119.33 336.482 118.678C336.482 118.678 337.162 117.433 337.969 119.154C339.614 122.661 343.146 122.368 343.146 122.368C343.015 121.923 342.983 121.446 343.054 120.983C343.125 120.519 343.297 120.084 343.553 119.718C346.018 128.431 350.319 127.201 350.319 127.201C350.006 126.321 350.006 125.335 350.319 124.455C351.335 128.709 360.89 132.319 360.89 132.319C360.958 133.112 361.121 133.89 361.373 134.632C361.475 134.956 361.616 135.262 361.792 135.54C363.926 132.978 365.407 135.819 365.407 135.819C367.376 139.926 363.266 142.254 362.618 142.591C362.583 142.602 362.546 142.605 362.51 142.599Z" fill="#94431A"/>
<path d="M361.354 134.596C357.968 136.06 352.079 129.632 352.079 129.632C352.015 130.038 352.015 130.455 352.079 130.862C348.267 131.821 343.864 124.799 343.864 124.799C343.127 125.363 343.864 126.22 343.864 126.22C342.287 126.079 340.759 125.522 339.398 124.591C338.037 123.661 336.881 122.381 336.019 120.853C336.152 120.047 336.311 119.308 336.463 118.656C336.463 118.656 337.143 117.411 337.95 119.132C339.595 122.639 343.127 122.346 343.127 122.346C342.996 121.901 342.964 121.424 343.035 120.961C343.106 120.497 343.278 120.062 343.534 119.696C345.999 128.409 350.3 127.179 350.3 127.179C349.987 126.299 349.987 125.313 350.3 124.433C351.316 128.687 360.871 132.297 360.871 132.297C360.94 133.085 361.103 133.858 361.354 134.596Z" fill="#94431A"/>
<path d="M363.357 139.998C364.031 138.983 364.029 137.677 363.352 137.079C362.675 136.482 361.58 136.82 360.906 137.835C360.232 138.849 360.234 140.156 360.911 140.754C361.588 141.351 362.683 141.013 363.357 139.998Z" fill="#94431A"/>
<path d="M366.811 140.131C365.51 141.158 364.093 141.974 362.599 142.555C363.234 142.218 367.357 139.889 365.388 135.782C365.388 135.782 363.907 132.941 361.773 135.504C361.597 135.225 361.456 134.92 361.354 134.596C361.102 133.854 360.939 133.075 360.871 132.282C360.871 132.282 351.342 128.672 350.3 124.418C349.987 125.298 349.987 126.284 350.3 127.164C350.3 127.164 345.999 128.394 343.534 119.681C343.278 120.048 343.106 120.483 343.035 120.946C342.964 121.41 342.996 121.886 343.127 122.332C343.127 122.332 339.595 122.625 337.95 119.117C337.143 117.397 336.463 118.641 336.463 118.641C336.311 119.308 336.152 120.047 336.019 120.838C335.709 122.702 335.544 124.593 335.523 126.49H335.485C334.339 125.696 333.422 124.529 332.849 123.137C332.819 123.076 332.794 123.012 332.772 122.947C332.137 121.241 331.978 118.89 333.204 115.83C333.395 115.42 339.652 102.204 351.31 102.438C351.31 102.438 359.651 102.204 361.347 109.438C361.347 109.438 371.27 106.612 373.742 118.224C373.748 118.202 376.041 132.86 366.811 140.131Z" fill="#343A40"/>
<path d="M368.189 122.178C368.875 123.445 372.503 131.045 366.811 140.131C365.51 141.158 364.093 141.974 362.599 142.555C363.234 142.218 367.357 139.889 365.388 135.782C365.388 135.782 363.907 132.941 361.773 135.504C361.597 135.225 361.456 134.92 361.354 134.596C361.102 133.854 360.939 133.075 360.871 132.282C360.871 132.282 351.342 128.672 350.3 124.418C349.987 125.298 349.987 126.284 350.3 127.164C350.3 127.164 345.999 128.394 343.534 119.681C343.278 120.048 343.106 120.483 343.035 120.946C342.964 121.41 342.996 121.886 343.127 122.332C343.127 122.332 339.595 122.625 337.95 119.117C337.143 117.397 336.463 118.641 336.463 118.641C336.311 119.308 336.152 120.047 336.019 120.838C335.709 122.702 335.544 124.593 335.523 126.49H335.485C334.37 125.653 333.462 124.498 332.849 123.137C332.819 123.076 332.794 123.012 332.772 122.947C332.067 121.189 331.845 118.81 333.204 115.83C333.363 115.779 338.573 114.007 340.402 111.093C340.402 111.093 346.266 101.259 356.964 110.258C356.371 108.965 355.556 107.824 354.569 106.905C354.543 106.882 354.524 106.849 354.515 106.813C354.507 106.776 354.51 106.737 354.523 106.702C354.536 106.668 354.559 106.639 354.588 106.621C354.617 106.603 354.651 106.597 354.683 106.604C356.03 106.985 358.717 108.325 359.854 113.113C359.854 113.113 367.325 113.421 370.248 120.86C370.265 120.91 370.271 120.964 370.265 121.017C370.258 121.07 370.239 121.12 370.21 121.162C370.181 121.204 370.142 121.236 370.099 121.255C370.055 121.274 370.008 121.279 369.962 121.27C369.403 121.131 368.52 121.05 368.183 121.717C368.149 121.787 368.131 121.867 368.132 121.948C368.134 122.029 368.153 122.108 368.189 122.178Z" fill="#343A40"/>
<path d="M350.929 152.446C352.979 151.356 354.702 149.587 355.878 147.365C355.878 147.365 359.975 153.632 350.929 160.654V152.446Z" fill="#94431A"/>
</svg>
