<svg width="550" height="500" viewBox="0 0 550 500" fill="none" xmlns="http://www.w3.org/2000/svg">
<path d="M208.867 138.214H203.366V131.873C203.366 131.036 203.653 130.233 204.165 129.639C204.677 129.045 205.371 128.709 206.098 128.703C206.827 128.703 207.527 129.037 208.043 129.632C208.559 130.226 208.848 131.033 208.848 131.873L208.867 138.214Z" fill="black"/>
<path d="M346.634 138.214H341.145V131.873C341.145 131.033 341.435 130.226 341.951 129.632C342.467 129.037 343.167 128.703 343.896 128.703C344.623 128.701 345.321 129.031 345.836 129.622C346.352 130.212 346.644 131.014 346.647 131.851V138.214H346.634Z" fill="black"/>
<path d="M363.647 137.504H186.353C182.925 137.504 180.146 140.707 180.146 144.657V250.575C180.146 254.526 182.925 257.728 186.353 257.728H363.647C367.075 257.728 369.854 254.526 369.854 250.575V144.657C369.854 140.707 367.075 137.504 363.647 137.504Z" fill="#E6E7E8"/>
<path d="M363.653 260.899H186.353C183.978 260.895 181.702 259.806 180.023 257.87C178.344 255.935 177.399 253.312 177.396 250.575V144.657C177.399 141.92 178.344 139.297 180.023 137.362C181.702 135.426 183.978 134.337 186.353 134.333H363.653C366.027 134.337 368.303 135.427 369.981 137.362C371.659 139.297 372.603 141.921 372.604 144.657V250.575C372.603 253.311 371.659 255.935 369.981 257.87C368.303 259.805 366.027 260.895 363.653 260.899ZM186.353 140.674C185.437 140.678 184.56 141.099 183.913 141.845C183.266 142.591 182.9 143.602 182.897 144.657V250.575C182.9 251.63 183.266 252.641 183.913 253.387C184.56 254.133 185.437 254.554 186.353 254.558H363.653C364.568 254.552 365.443 254.13 366.089 253.384C366.735 252.638 367.1 251.629 367.103 250.575V144.657C367.1 143.603 366.735 142.594 366.089 141.848C365.443 141.102 364.568 140.68 363.653 140.674H186.353Z" fill="black"/>
<path d="M239.119 161.505C246.203 161.886 254.906 166.894 256.717 175.614C258.921 186.113 246.819 190.382 240.034 190.638C233.573 190.865 222.583 188.215 221.452 179.224C220.182 168.973 232.938 166.777 239.151 166.623C239.205 166.613 239.257 166.591 239.303 166.558C239.35 166.525 239.39 166.482 239.422 166.431C239.454 166.38 239.477 166.322 239.489 166.261C239.502 166.199 239.503 166.136 239.494 166.074C239.481 165.974 239.441 165.881 239.379 165.809C239.317 165.736 239.238 165.688 239.151 165.671C232.684 165.854 220.455 167.955 220.455 178.038C220.455 188.493 233.071 191.876 240.009 191.641C246.946 191.407 258.19 187.49 257.765 177.43C257.339 167.37 246.832 161.007 239.132 160.59C239.023 160.59 238.918 160.64 238.84 160.729C238.763 160.818 238.719 160.939 238.719 161.066C238.719 161.192 238.763 161.313 238.84 161.402C238.918 161.491 239.023 161.541 239.132 161.541L239.119 161.505Z" fill="#2F2E41"/>
<path d="M217.393 216.155C217.469 218.857 217.71 221.595 217.634 224.297C217.634 225.095 218.403 224.612 217.215 224.59C216.027 224.568 215.017 224.677 213.854 224.714L205.24 225.058C204.116 225.035 202.992 225.081 201.873 225.197C200.685 225.402 201.485 225.527 201.422 225.124C200.958 222.283 201.238 218.996 201.149 216.096C201.085 215.591 201.085 215.078 201.149 214.573C201.314 213.951 200.513 214.969 200.869 214.778C201.656 214.602 202.462 214.567 203.258 214.676L217.768 214.105C218.295 214.105 218.308 213.124 217.768 213.153L200.748 213.797C200.639 213.801 200.536 213.854 200.46 213.944C200.384 214.034 200.342 214.155 200.342 214.28C200.452 218.068 200.566 221.871 200.685 225.688C200.685 225.813 200.727 225.934 200.803 226.024C200.879 226.115 200.983 226.167 201.092 226.171L218.13 225.483C218.238 225.479 218.341 225.429 218.418 225.343C218.496 225.256 218.543 225.139 218.549 225.014L218.282 216.14C218.282 215.532 217.437 215.532 217.456 216.14L217.393 216.155Z" fill="#2F2E41"/>
<path d="M259.029 216.946C259.137 220.672 259.81 224.868 259.372 228.543C259.207 230.008 260.261 228.785 258.61 229.151C257.017 229.35 255.414 229.414 253.813 229.342L241.553 229.839C239.99 229.839 238.325 230.14 236.756 230.03C235.187 229.92 236.267 230.645 235.93 229.722C234.755 226.515 235.657 220.365 235.543 216.858C235.543 215.584 235.708 214.456 235.27 214.764C235.905 214.31 237.868 214.661 238.668 214.639L259.334 213.797C259.444 213.797 259.549 213.747 259.626 213.658C259.703 213.569 259.747 213.448 259.747 213.321C259.747 213.195 259.703 213.074 259.626 212.985C259.549 212.896 259.444 212.845 259.334 212.845L235.054 213.797C234.943 213.801 234.839 213.853 234.761 213.943C234.683 214.033 234.638 214.154 234.634 214.281L235.13 230.52C235.128 230.641 235.168 230.758 235.24 230.846C235.313 230.934 235.412 230.985 235.517 230.989L259.83 230.052C259.937 230.052 260.041 230.002 260.117 229.914C260.193 229.827 260.236 229.707 260.236 229.583C260.115 225.358 259.982 221.156 259.861 216.902C259.861 216.294 259.016 216.294 259.035 216.902L259.029 216.946Z" fill="#2F2E41"/>
<path d="M350.675 163.174C350.867 165.64 350.939 168.116 350.891 170.591C350.751 172.927 351.786 171.192 350.319 171.858C347.174 173.22 341.838 172.202 338.452 172.341L322.919 172.949C321.147 173.029 319.368 173.176 317.596 173.168C317.297 173.168 316.496 173.395 316.261 173.168C315.461 172.634 316.833 174.281 316.261 173.015C315.505 171.287 316.096 167.362 316.045 165.407C316.045 164.924 315.658 162.581 315.944 162.171C315.728 162.493 315.537 162.793 316.198 162.457C318.885 161.036 324.501 162.127 327.385 162.01L350.992 161.08C351.519 161.08 351.519 160.106 350.992 160.128L315.512 161.534C315.402 161.538 315.298 161.59 315.221 161.68C315.144 161.77 315.1 161.891 315.099 162.017C315.22 165.913 315.328 169.786 315.448 173.681C315.452 173.807 315.497 173.926 315.575 174.013C315.654 174.101 315.759 174.15 315.868 174.15L351.342 172.795C351.451 172.795 351.555 172.746 351.634 172.659C351.712 172.571 351.758 172.452 351.761 172.326L351.488 163.247C351.488 162.64 350.636 162.64 350.662 163.247L350.675 163.174Z" fill="#2F2E41"/>
<path d="M357.237 178.652H310.017C309.92 178.672 309.832 178.731 309.768 178.818C309.705 178.905 309.67 179.015 309.67 179.128C309.67 179.242 309.705 179.352 309.768 179.439C309.832 179.526 309.92 179.585 310.017 179.604H357.218C357.327 179.583 357.425 179.512 357.489 179.408C357.554 179.304 357.579 179.174 357.561 179.048C357.548 178.952 357.511 178.862 357.453 178.792C357.395 178.721 357.32 178.672 357.237 178.652Z" fill="#2F2E41"/>
<path d="M353.101 189.152H329.475C329.378 189.172 329.29 189.23 329.227 189.317C329.163 189.404 329.129 189.514 329.129 189.628C329.129 189.742 329.163 189.852 329.227 189.939C329.29 190.026 329.378 190.084 329.475 190.104H353.101C353.198 190.084 353.286 190.026 353.35 189.939C353.413 189.852 353.448 189.742 353.448 189.628C353.448 189.514 353.413 189.404 353.35 189.317C353.286 189.23 353.198 189.172 353.101 189.152Z" fill="#2F2E41"/>
<path d="M346.634 193.347H329.482C329.372 193.369 329.274 193.439 329.208 193.543C329.143 193.647 329.116 193.777 329.132 193.904C329.147 194.004 329.189 194.096 329.252 194.166C329.314 194.237 329.395 194.284 329.482 194.299H346.634C346.731 194.28 346.819 194.221 346.883 194.134C346.946 194.047 346.981 193.937 346.981 193.823C346.981 193.71 346.946 193.6 346.883 193.513C346.819 193.426 346.731 193.367 346.634 193.347Z" fill="#2F2E41"/>
<path d="M253.769 176.258H230.175C230.065 176.28 229.968 176.35 229.903 176.455C229.839 176.559 229.813 176.689 229.832 176.815C229.845 176.914 229.886 177.006 229.947 177.077C230.009 177.148 230.089 177.194 230.175 177.21H253.769C253.879 177.189 253.977 177.118 254.042 177.014C254.108 176.91 254.135 176.781 254.118 176.654C254.102 176.555 254.059 176.464 253.997 176.393C253.935 176.323 253.855 176.276 253.769 176.258Z" fill="#2F2E41"/>
<path d="M247.334 180.454H230.181C230.072 180.475 229.974 180.546 229.91 180.65C229.845 180.754 229.82 180.884 229.838 181.01C229.851 181.11 229.891 181.202 229.953 181.273C230.014 181.344 230.095 181.391 230.181 181.405H247.334C247.443 181.386 247.541 181.317 247.606 181.214C247.672 181.111 247.699 180.982 247.683 180.856C247.667 180.756 247.626 180.664 247.563 180.592C247.501 180.52 247.421 180.471 247.334 180.454Z" fill="#2F2E41"/>
<path d="M352.936 204.608H329.342C329.245 204.628 329.157 204.687 329.093 204.774C329.03 204.861 328.995 204.971 328.995 205.084C328.995 205.198 329.03 205.308 329.093 205.395C329.157 205.482 329.245 205.541 329.342 205.56H352.936C353.046 205.539 353.143 205.468 353.207 205.364C353.272 205.259 353.298 205.13 353.279 205.004C353.266 204.904 353.226 204.812 353.164 204.741C353.103 204.669 353.023 204.623 352.936 204.608Z" fill="#2F2E41"/>
<path d="M341.145 225.219H329.342C329.232 225.241 329.135 225.311 329.07 225.416C329.006 225.52 328.98 225.649 328.999 225.776C329.012 225.875 329.052 225.968 329.114 226.039C329.175 226.11 329.255 226.156 329.342 226.171H341.145C341.199 226.161 341.251 226.139 341.297 226.106C341.344 226.073 341.384 226.03 341.416 225.979C341.448 225.928 341.471 225.87 341.483 225.809C341.496 225.748 341.497 225.684 341.488 225.622C341.475 225.522 341.435 225.429 341.373 225.357C341.312 225.285 341.232 225.236 341.145 225.219Z" fill="#2F2E41"/>
<path d="M214.763 220.065H202.959C202.859 220.079 202.767 220.135 202.701 220.222C202.634 220.309 202.597 220.421 202.597 220.537C202.597 220.653 202.634 220.765 202.701 220.852C202.767 220.939 202.859 220.995 202.959 221.009H214.763C214.817 221 214.87 220.979 214.917 220.946C214.964 220.914 215.005 220.871 215.038 220.819C215.07 220.768 215.094 220.71 215.106 220.648C215.119 220.587 215.121 220.523 215.112 220.46C215.097 220.36 215.055 220.268 214.993 220.197C214.93 220.127 214.85 220.08 214.763 220.065Z" fill="#2F2E41"/>
<path d="M254.112 220.306L240.136 221.573C239.609 221.573 239.596 222.569 240.136 222.525L254.112 221.251C254.627 221.251 254.639 220.255 254.112 220.306Z" fill="#2F2E41"/>
<path d="M287.331 198.663H274.441C274.344 198.683 274.256 198.741 274.193 198.828C274.129 198.915 274.094 199.025 274.094 199.139C274.094 199.253 274.129 199.363 274.193 199.45C274.256 199.537 274.344 199.595 274.441 199.615H287.343C287.453 199.593 287.551 199.523 287.617 199.419C287.682 199.315 287.709 199.185 287.693 199.058C287.677 198.957 287.634 198.863 287.568 198.792C287.503 198.721 287.42 198.676 287.331 198.663Z" fill="#2F2E41"/>
<path d="M352.936 221.456H329.342C329.232 221.477 329.135 221.548 329.07 221.652C329.006 221.757 328.98 221.886 328.999 222.012C329.012 222.111 329.053 222.203 329.115 222.274C329.176 222.345 329.256 222.392 329.342 222.408H352.936C353.033 222.388 353.121 222.329 353.185 222.242C353.248 222.155 353.283 222.045 353.283 221.932C353.283 221.818 353.248 221.708 353.185 221.621C353.121 221.534 353.033 221.476 352.936 221.456Z" fill="#2F2E41"/>
<path d="M270.515 194.314L270.185 205.384C270.183 205.444 270.191 205.504 270.21 205.559C270.228 205.615 270.255 205.666 270.291 205.71C270.326 205.753 270.369 205.788 270.416 205.813C270.463 205.838 270.514 205.851 270.566 205.853L291.829 206.702C291.935 206.699 292.037 206.648 292.113 206.561C292.188 206.474 292.232 206.357 292.235 206.234L292.661 191.993C292.659 191.868 292.615 191.749 292.538 191.661C292.46 191.573 292.356 191.524 292.248 191.524L270.991 190.675C270.882 190.675 270.777 190.725 270.699 190.814C270.622 190.904 270.578 191.025 270.578 191.151C270.578 191.277 270.622 191.398 270.699 191.487C270.777 191.577 270.882 191.627 270.991 191.627L289.091 192.359C289.77 192.359 291.39 192.066 291.962 192.469C292.534 192.871 291.555 191.583 291.829 192.33C291.911 192.84 291.911 193.364 291.829 193.875C291.346 197.535 292.419 201.987 291.473 205.516C291.244 206.38 292.299 205.641 290.806 205.721C289.535 205.721 288.265 205.619 286.994 205.568L275.883 205.121C274.492 205.062 273.094 204.982 271.684 204.96C270.274 204.938 271.157 205.428 271.049 204.477C270.763 201.204 271.258 197.616 271.36 194.336C271.341 194.209 271.28 194.096 271.19 194.021C271.1 193.946 270.987 193.914 270.877 193.933C270.79 193.95 270.711 193.999 270.649 194.071C270.588 194.143 270.547 194.236 270.534 194.336L270.515 194.314Z" fill="#2F2E41"/>
<path d="M224.203 191.678C218.505 195.598 214.163 201.673 211.917 208.87C211.739 209.448 212.552 209.69 212.711 209.119C214.899 202.161 219.107 196.289 224.622 192.498C225.073 192.183 224.622 191.356 224.203 191.678Z" fill="#2F2E41"/>
<path d="M210.1 204.052C210.462 206.512 210.837 208.98 211.199 211.44C211.256 211.835 211.675 211.857 211.891 211.659L217.209 206.585C217.615 206.19 217.031 205.524 216.624 205.912L211.313 210.986L211.993 211.191C211.631 208.731 211.269 206.256 210.894 203.796C210.805 203.188 210.011 203.452 210.1 204.052Z" fill="#2F2E41"/>
<path d="M253.915 188.303C258.829 190.57 262.914 194.72 265.483 200.054C265.738 200.603 266.455 200.12 266.201 199.571C263.52 194.025 259.255 189.719 254.131 187.387C253.636 187.16 253.426 188.076 253.915 188.303Z" fill="#2F2E41"/>
<path d="M266.354 195.405V201.606L266.989 201.196L262.059 197.836C261.965 197.78 261.855 197.769 261.753 197.804C261.651 197.84 261.565 197.919 261.513 198.025C261.461 198.132 261.446 198.258 261.472 198.377C261.498 198.495 261.563 198.598 261.653 198.663L266.583 202.024C266.68 202.083 266.795 202.096 266.901 202.059C267.007 202.022 267.095 201.938 267.148 201.826C267.18 201.759 267.198 201.683 267.199 201.606V195.405C267.182 195.293 267.131 195.192 267.055 195.118C266.98 195.045 266.884 195.005 266.786 195.005C266.687 195.005 266.592 195.045 266.516 195.118C266.441 195.192 266.39 195.293 266.373 195.405H266.354Z" fill="#2F2E41"/>
<path d="M244.303 196.269C245.015 200.186 245.574 204.14 246.038 208.108C246.114 208.701 246.908 208.452 246.832 207.852C246.355 203.883 245.815 199.93 245.091 196.012C244.983 195.419 244.189 195.668 244.303 196.269Z" fill="#2F2E41"/>
<path d="M247.619 204.96C247.168 206.424 246.717 207.889 246.279 209.353L246.965 209.155C246.038 207.881 245.106 206.612 244.17 205.348C243.827 204.879 243.242 205.56 243.585 206.021L246.381 209.821C246.419 209.867 246.465 209.903 246.516 209.928C246.567 209.952 246.621 209.965 246.676 209.965C246.731 209.965 246.786 209.952 246.836 209.928C246.887 209.903 246.933 209.867 246.971 209.821C247.017 209.762 247.052 209.692 247.073 209.616L248.426 205.223C248.604 204.63 247.797 204.389 247.619 204.96Z" fill="#2F2E41"/>
<path d="M321.255 193.362H313.962L314.381 193.831V185.44L313.962 185.908H321.255L320.835 185.44V193.831C320.854 193.957 320.915 194.069 321.006 194.143C321.096 194.217 321.209 194.247 321.318 194.226C321.405 194.211 321.485 194.165 321.547 194.094C321.608 194.022 321.649 193.93 321.661 193.831V185.44C321.661 185.314 321.619 185.193 321.543 185.103C321.467 185.013 321.364 184.96 321.255 184.957H313.962C313.853 184.96 313.749 185.013 313.673 185.103C313.598 185.193 313.555 185.314 313.555 185.44V193.831C313.555 193.956 313.598 194.077 313.673 194.167C313.749 194.257 313.853 194.31 313.962 194.314H321.255C321.352 194.294 321.44 194.236 321.503 194.149C321.567 194.062 321.601 193.952 321.601 193.838C321.601 193.724 321.567 193.614 321.503 193.527C321.44 193.44 321.352 193.382 321.255 193.362Z" fill="#2F2E41"/>
<path d="M321.255 208.818H313.962L314.381 209.287V200.896L313.962 201.365H321.255L320.835 200.896V209.287C320.854 209.413 320.915 209.526 321.006 209.6C321.096 209.674 321.209 209.704 321.318 209.682C321.405 209.668 321.485 209.621 321.547 209.55C321.608 209.479 321.649 209.387 321.661 209.287V200.896C321.661 200.771 321.619 200.65 321.543 200.56C321.467 200.469 321.364 200.417 321.255 200.413H313.962C313.853 200.417 313.749 200.469 313.673 200.56C313.598 200.65 313.555 200.771 313.555 200.896V209.287C313.555 209.413 313.598 209.533 313.673 209.624C313.749 209.714 313.853 209.766 313.962 209.77H321.255C321.365 209.749 321.463 209.678 321.528 209.574C321.593 209.47 321.621 209.341 321.604 209.214C321.589 209.114 321.547 209.022 321.485 208.951C321.422 208.88 321.342 208.834 321.255 208.818Z" fill="#2F2E41"/>
<path d="M321.255 224.26H313.962L314.381 224.743V216.338L313.962 216.814H321.255L320.835 216.338V224.78C320.856 224.905 320.917 225.017 321.007 225.09C321.098 225.164 321.209 225.195 321.318 225.175C321.404 225.159 321.483 225.112 321.544 225.041C321.606 224.97 321.647 224.879 321.661 224.78V216.338C321.658 216.214 321.615 216.096 321.539 216.008C321.464 215.92 321.362 215.868 321.255 215.862H313.962C313.854 215.868 313.753 215.92 313.677 216.008C313.602 216.096 313.558 216.214 313.555 216.338V224.78C313.558 224.903 313.602 225.02 313.678 225.107C313.753 225.194 313.855 225.245 313.962 225.249H321.255C321.365 225.227 321.463 225.157 321.528 225.053C321.593 224.949 321.621 224.819 321.604 224.692C321.596 224.586 321.557 224.486 321.493 224.408C321.43 224.329 321.346 224.278 321.255 224.26Z" fill="#2F2E41"/>
<path d="M312.018 187.212C313.858 188.133 315.472 189.567 316.712 191.385C316.769 191.491 316.859 191.567 316.964 191.597C317.068 191.627 317.179 191.609 317.272 191.546L317.354 191.473C319.73 188.94 322.684 186.516 325.899 185.894C326.426 185.791 326.204 184.869 325.689 184.971C322.303 185.645 320.137 188.215 317.36 190.206C316.471 190.851 317.297 190.499 316.998 190.206C316.427 189.738 315.963 188.94 315.391 188.442C314.48 187.611 313.484 186.912 312.424 186.362C311.948 186.113 311.535 186.933 312.018 187.175V187.212Z" fill="#2F2E41"/>
<path d="M312.018 203.393C313.86 204.304 315.475 205.734 316.712 207.552C316.768 207.658 316.858 207.736 316.962 207.767C317.067 207.799 317.178 207.782 317.272 207.72C317.302 207.7 317.33 207.676 317.354 207.647C319.73 205.114 322.684 202.69 325.899 202.075C326.426 201.972 326.204 201.043 325.689 201.145C322.303 201.804 320.137 204.389 317.36 206.38C316.471 207.032 317.297 206.673 316.998 206.38C316.427 205.904 315.963 205.114 315.391 204.623C314.48 203.787 313.484 203.084 312.424 202.529C311.948 202.287 311.535 203.1 312.018 203.349V203.393Z" fill="#2F2E41"/>
<path d="M312.018 218.124C313.86 219.035 315.475 220.465 316.712 222.283C316.768 222.39 316.858 222.467 316.962 222.499C317.067 222.53 317.178 222.513 317.272 222.452L317.354 222.386C319.73 219.845 322.684 217.422 325.899 216.807C326.426 216.689 326.204 215.774 325.689 215.877C322.303 216.536 320.137 219.128 317.36 221.112C316.471 221.763 317.297 221.405 316.998 221.112C316.427 220.636 315.963 219.845 315.391 219.355C314.48 218.519 313.484 217.816 312.424 217.26C311.948 217.019 311.535 217.832 312.018 218.088V218.124Z" fill="#2F2E41"/>
<path d="M333.446 444.933C333.446 467.206 365.959 472.646 406.046 472.646C446.132 472.646 462.242 467.206 462.242 444.933C462.242 422.66 451.004 395.591 410.842 395.591C370.68 395.591 333.446 422.667 333.446 444.933Z" fill="#CCCCCC"/>
<path opacity="0.5" d="M333.782 443.527C333.782 465.8 366.296 471.24 406.382 471.24C446.468 471.24 462.579 465.8 462.579 443.527C462.579 421.254 451.341 394.185 411.179 394.185C371.016 394.185 333.782 421.261 333.782 443.527Z" fill="#939598"/>
<path d="M328.211 413.727C326.724 444.347 334.068 460.88 350.827 461.905C367.586 462.93 382.35 439.024 383.823 408.404C385.297 377.784 368.424 354.325 351.685 353.241C334.945 352.158 329.71 383.1 328.211 413.727Z" fill="#CCCCCC"/>
<path opacity="0.5" d="M328.548 412.321C327.061 442.941 334.411 459.474 351.164 460.499C367.916 461.524 382.686 437.618 384.16 406.998C385.634 376.378 368.761 352.912 352.021 351.836C335.282 350.759 330.022 381.694 328.548 412.321Z" fill="#939598"/>
<path opacity="0.1" d="M410.016 398.227C410.016 398.227 425.606 395.942 426.978 402.283C428.35 408.624 401.268 405.131 395.849 411.472C390.43 417.813 413.516 421.071 408.491 424.864C404.54 427.843 391.04 414.327 373.818 419.394C356.595 424.461 354.124 409.495 356.03 395.591C357.936 381.687 359.333 366.736 364.555 367.878C369.777 369.02 386.727 396.374 410.016 398.227Z" fill="black"/>
<path opacity="0.1" d="M361.538 420.932C361.538 420.932 345.414 417.659 344.519 425.442C343.623 433.225 342.416 421.737 361.538 420.932Z" fill="black"/>
<path opacity="0.1" d="M335.504 453.792C330.968 447.671 328.516 438.175 328.065 425.457C330.136 449.67 342.365 465.368 391.04 467.923C439.715 470.478 450.585 453.66 455.839 455.674C458.043 456.508 458.043 458.829 457.313 461.224C449.88 470.098 433.642 472.638 406.052 472.638C371.925 472.646 343.312 468.692 335.504 453.792Z" fill="black"/>
<path d="M419.336 350.174C417.993 350.442 416.74 351.131 415.714 352.165C414.361 353.739 410.41 353.571 410.41 353.571L410.016 358.733L419.037 358.125L419.336 350.174Z" fill="#D1D3D4"/>
<path d="M382.953 319.341C384.135 319.268 388.671 321.977 391.358 335.698C394.045 349.419 393.473 354.003 414.571 352.443L413.885 359.282C413.885 359.282 395.608 361.537 390.151 356.492C384.694 351.447 378.627 319.634 382.953 319.341Z" fill="#09176B"/>
<path opacity="0.6" d="M389.026 336.218L390.062 338.312C390.062 338.312 388.963 351.228 391.085 357.188C390.758 356.984 390.446 356.752 390.151 356.492C388.69 355.13 387.178 351.821 385.837 347.706L389.026 336.218Z" fill="black"/>
<path d="M358.933 294.154C358.933 294.154 358.781 298.159 357.173 298.972C355.566 299.785 358.355 304.368 357.574 307.172C356.792 309.977 354.994 312.495 356.938 316.252C356.938 316.252 356.525 313.118 357.898 311.258C357.898 311.258 357.326 316.5 358.8 316.618C360.274 316.735 360.559 315.197 362.98 315.885C365.4 316.574 363.266 311.602 363.266 311.602C364.117 312.483 364.689 313.665 364.892 314.963C365.527 317.584 371.944 314.553 374.555 315.629C377.166 316.705 377.852 311.17 377.852 311.17C377.852 311.17 379.021 314.465 378.074 315.563C378.743 315.268 379.318 314.747 379.725 314.067C380.131 313.387 380.348 312.581 380.348 311.756C380.787 312.672 380.894 313.751 380.647 314.758C380.647 314.758 382.629 314.597 382.134 310.182C381.638 305.767 378.652 304.507 377.877 301.007C377.102 297.508 367.509 290.676 367.509 290.676L358.933 294.154Z" fill="#343A40"/>
<path d="M364.104 307.626L372.274 313.755C372.274 320.344 376.378 320 376.378 320C376.378 320 376.448 322.307 371.461 323.156C369.25 323.637 367.001 323.846 364.752 323.778C367.192 320.344 365.286 312.115 364.104 307.626Z" fill="#94431A"/>
<path d="M372.782 317.291C372.37 316.159 372.177 314.937 372.217 313.711L364.937 308.249L364.486 309.186C364.486 309.186 367.236 317.709 372.782 317.291Z" fill="#94431A"/>
<path d="M361.703 297.559C362.529 305.232 362.739 308.542 366.322 312.203C371.715 317.782 379.701 314.941 380.888 307.136C381.988 300.107 380.412 288.751 373.716 286.166C372.24 285.578 370.657 285.437 369.119 285.756C367.582 286.075 366.141 286.844 364.935 287.989C363.729 289.134 362.799 290.616 362.233 292.295C361.667 293.973 361.485 295.791 361.703 297.574V297.559Z" fill="#94431A"/>
<path d="M373.837 286.701C373.837 286.701 377.413 291.262 373.519 293.034C369.625 294.806 366.112 297.559 365.54 301.352C365.399 302.399 364.949 303.358 364.266 304.069C363.584 304.779 362.71 305.198 361.792 305.254C361.792 305.254 356.646 297.727 359.969 289.827C363.291 281.927 372.484 283.933 373.837 286.701Z" fill="#343A40"/>
<path d="M363.507 287.879C363.507 287.879 367.808 280.206 375.012 283.918C382.216 287.63 382.54 293.935 380.73 293.312C378.919 292.69 376.029 292.046 373.964 287.777C371.899 283.508 363.507 287.879 363.507 287.879Z" fill="#343A40"/>
<path d="M364.562 302.333C364.562 302.333 368.119 302.091 366.423 307.458C366.268 305.572 365.619 303.784 364.562 302.333Z" fill="#2F2E41"/>
<path d="M360.452 303.775C360.903 305.173 361.817 306.308 362.993 306.931C364.555 307.758 365.597 306.199 365.375 304.397C365.178 302.735 364.136 300.29 362.453 300.253C362.164 300.253 361.878 300.319 361.611 300.446C361.345 300.573 361.102 300.76 360.898 300.995C360.694 301.231 360.532 301.51 360.422 301.817C360.311 302.125 360.255 302.454 360.255 302.787C360.256 303.129 360.323 303.467 360.452 303.775Z" fill="#94431A"/>
<path d="M411.401 367.848L392.406 364.817C392.254 364.784 392.117 364.687 392.022 364.545C391.927 364.404 391.881 364.227 391.891 364.048C391.904 363.972 391.925 363.898 391.955 363.829L403.701 337.36C403.857 337.003 404.107 336.711 404.415 336.526C404.722 336.341 405.073 336.271 405.417 336.328L424.418 339.359C424.568 339.381 424.706 339.47 424.801 339.607C424.895 339.743 424.94 339.917 424.926 340.091C424.92 340.173 424.9 340.252 424.869 340.326L413.065 366.823C412.912 367.17 412.67 367.454 412.373 367.637C412.075 367.82 411.736 367.894 411.401 367.848Z" fill="black"/>
<path d="M412.125 368.002L393.118 364.956C392.969 364.933 392.833 364.843 392.741 364.706C392.648 364.569 392.606 364.396 392.622 364.224C392.628 364.147 392.648 364.073 392.679 364.004L404.47 337.536C404.631 337.181 404.884 336.892 405.193 336.709C405.503 336.525 405.853 336.456 406.198 336.511L425.193 339.535C425.27 339.548 425.345 339.579 425.412 339.626C425.479 339.673 425.538 339.734 425.585 339.807C425.631 339.88 425.665 339.962 425.684 340.05C425.703 340.138 425.706 340.229 425.695 340.318C425.682 340.389 425.663 340.458 425.638 340.523L413.847 366.999C413.681 367.347 413.428 367.63 413.121 367.809C412.814 367.988 412.466 368.055 412.125 368.002Z" fill="black"/>
<path d="M422.601 344.067L420.403 343.708C420.396 343.702 420.391 343.694 420.387 343.685C420.384 343.677 420.382 343.667 420.382 343.657C420.382 343.647 420.384 343.638 420.387 343.629C420.391 343.62 420.396 343.612 420.403 343.606L421.756 340.545C421.777 340.508 421.806 340.478 421.841 340.458C421.876 340.439 421.915 340.431 421.953 340.435L424.151 340.78C424.163 340.793 424.169 340.812 424.169 340.831C424.169 340.85 424.163 340.868 424.151 340.882L422.798 343.913C422.782 343.959 422.755 343.998 422.72 344.026C422.685 344.053 422.643 344.068 422.601 344.067Z" fill="#E0E0E0"/>
<path d="M410.766 352.473C410.442 353.498 409.667 354.259 409.101 354.171C408.536 354.083 408.301 353.153 408.618 352.128C408.936 351.103 409.717 350.327 410.283 350.415C410.848 350.503 411.096 351.447 410.766 352.473Z" fill="white"/>
<path d="M430.002 450.929L433.61 467.982L438.794 465.858L437.263 448.542L430.002 450.929Z" fill="#94431A"/>
<path d="M439.207 464.936L432.937 465.075C432.804 465.074 432.675 465.127 432.573 465.225C432.471 465.323 432.402 465.459 432.378 465.609L431.203 472.389C431.163 472.671 431.219 472.96 431.358 473.195C431.498 473.431 431.71 473.596 431.952 473.656H432.162C434.754 473.546 437.066 473.327 440.3 473.268C444.112 473.187 443.146 473.737 447.637 473.707C450.344 473.707 450.814 470.149 449.638 469.995C444.372 469.343 442.86 467.55 440.84 465.426C440.366 465.037 439.785 464.863 439.207 464.936Z" fill="#09176B"/>
<path d="M379.758 368.288L388.016 364.627C390.816 368.305 393.19 372.386 395.081 376.766C397.787 383.356 384.764 383.356 384.764 383.356L380.66 374.482L379.758 368.288Z" fill="#2F2E41"/>
<path opacity="0.3" d="M381.702 371.29L389.96 367.629C392.768 371.304 395.151 375.381 397.05 379.761C399.756 386.351 386.733 386.351 386.733 386.351L382.629 377.477L381.702 371.29Z" fill="#343A40"/>
<path opacity="0.2" d="M384.573 366.164C386.917 381.108 391.116 378.436 391.116 378.436L389.281 381.555L384.287 382.287L380.679 374.482L379.758 368.288L384.573 366.164Z" fill="black"/>
<path d="M457.624 419.914L469.218 435.868L473.296 432.332L463.113 414.591L457.624 419.914Z" fill="#94431A"/>
<path d="M471.232 427.88L466.257 432.339C466.149 432.428 466.071 432.558 466.035 432.705C465.999 432.853 466.008 433.011 466.06 433.152L468.424 439.492C468.472 439.629 468.544 439.752 468.634 439.856C468.725 439.96 468.832 440.042 468.95 440.098C469.068 440.154 469.195 440.182 469.323 440.181C469.45 440.181 469.577 440.15 469.694 440.093L469.879 439.983C471.956 438.196 473.754 436.505 476.384 434.323C479.484 431.79 478.963 432.859 482.654 429.886C484.852 428.1 483.473 424.893 482.451 425.493C477.813 428.422 475.564 427.69 472.826 427.28C472.249 427.246 471.681 427.46 471.232 427.88Z" fill="#09176B"/>
<path d="M362.935 374.746C362.935 374.746 359.931 394.763 365.928 407.694C371.925 420.624 385.221 422.982 419.399 381.262C419.399 381.262 431.412 387.698 460.343 425.303L466.778 419.562C466.778 419.562 441.596 372.439 429.449 361.259C417.303 350.078 390.265 381.54 386.847 379.768C383.798 378.209 382.356 367.321 382.356 367.321L362.935 374.746Z" fill="#343A40"/>
<path d="M393.639 408.023C400.544 402.539 409.038 393.943 419.399 381.262C419.399 381.262 429.297 377.037 432.74 385.179C436.183 393.321 438.458 452.145 438.458 452.145L430.199 454.883C430.199 454.883 415.486 401.785 415.587 398.285L393.639 408.023Z" fill="#2F2E41"/>
<path opacity="0.4" d="M393.639 406.969C400.544 401.478 409.038 392.882 419.399 380.208C419.399 380.208 429.297 375.983 432.74 384.125C436.183 392.267 438.458 451.09 438.458 451.09L430.199 453.829C430.199 453.829 415.486 400.731 415.587 397.231L393.639 406.969Z" fill="#343A40"/>
<path opacity="0.2" d="M432.74 385.179C432.193 383.84 431.347 382.693 430.288 381.855C433.223 383.649 437.352 387.954 437.835 398.227C436.666 396.958 435.567 395.779 434.538 394.69C434.284 391.446 433.68 388.251 432.74 385.179Z" fill="black"/>
<path opacity="0.2" d="M419.399 381.262C420.551 380.808 421.742 380.494 422.95 380.325C419.36 387.934 414.813 394.889 409.457 400.965L393.639 407.987C400.544 402.539 409.006 393.914 419.399 381.262Z" fill="black"/>
<path d="M390.57 367.277C390.57 367.277 388.105 371.883 362.065 376.444C362.065 376.444 363.221 367.175 360.471 353.915C357.72 340.655 347.6 328.179 357.504 324.957C367.408 321.736 384.56 315.109 386.034 322.285C387.508 329.46 390.195 332.594 390.081 338.312C389.967 344.031 386.333 348.182 390.57 367.277Z" fill="#09176B"/>
<path d="M422.531 352.524C422.676 351.923 422.615 351.28 422.36 350.73C421.972 349.859 421.26 348.731 420.301 348.841C418.719 349.024 418.3 350.305 417.9 352.011C417.5 353.717 416.254 356.705 417.684 357.744C419.113 358.784 421.14 358.198 422.531 352.524Z" fill="#94431A"/>
<path d="M363.247 323.097C363.247 323.097 377.096 324.005 376.276 319.473C376.276 319.473 373.583 318.009 374.078 316.354C374.574 314.699 367.478 316.413 364.682 315.959C363.583 315.768 364.27 317.482 364.187 319.305C364.076 320.624 363.758 321.91 363.247 323.097Z" fill="#0071F2"/>
<path d="M363.247 323.097C363.247 323.097 377.096 324.005 376.276 319.473C376.276 319.473 373.583 318.009 374.078 316.354C374.574 314.699 367.478 316.413 364.682 315.959C363.583 315.768 364.27 317.482 364.187 319.305C364.076 320.624 363.758 321.91 363.247 323.097Z" fill="#09176B"/>
<path opacity="0.6" d="M361.055 357.034L371.188 356.88L374.631 354.179L378.525 352.194L379.04 353.776C379.04 353.776 366.969 369.994 362.262 368.573C362.121 364.697 361.717 360.838 361.055 357.034Z" fill="black"/>
<path opacity="0.6" d="M369.6 353.703C369.6 353.703 365.718 355.057 365.057 351.799C364.104 347.12 361.246 334.051 358.381 329.057C355.299 323.625 361.474 349.741 361.474 349.741L362.847 355.248L365.051 358.63L369.733 354.83L369.6 353.703Z" fill="black"/>
<path opacity="0.6" d="M376.721 321.523C376.721 321.523 377.204 324.576 366.817 324.298C366.798 324.298 378.932 327.644 376.721 321.523Z" fill="black"/>
<path d="M386.434 347.018L386.288 345.729L385.494 346.271L386.434 347.018Z" fill="#263238"/>
<path opacity="0.7" d="M386.434 347.018L386.288 345.729L385.494 346.271L386.434 347.018Z" fill="white"/>
<path d="M376.95 330.968L377.083 330.134L377.915 329.563L378.614 329.812L386.18 344.353L386.346 345.766L385.507 346.344L384.51 345.51L376.95 330.968Z" fill="#263238"/>
<path opacity="0.6" d="M376.95 330.968L377.083 330.134L377.915 329.563L378.614 329.812L386.18 344.353L386.346 345.766L385.507 346.344L384.51 345.51L376.95 330.968Z" fill="white"/>
<path opacity="0.5" d="M377.947 330.7L377.119 331.272L384.481 345.427L385.309 344.855L377.947 330.7Z" fill="white"/>
<path d="M375.33 349.354L379.624 345.195C379.624 345.195 378.989 336.877 381.327 336.775C383.233 336.687 384.77 339.308 385.138 342.94C385.507 346.571 381.962 348.797 381.962 348.797L377.814 354.054L375.33 349.354Z" fill="#94431A"/>
<path d="M287.388 269.392C287.388 269.392 297.031 262.546 302.063 272.372C305.627 279.342 303.657 286.32 306.459 292.046C310.862 300.92 307.933 305.115 301.332 306.689C294.732 308.263 284.142 308.058 285.603 299.184C287.102 290.12 279.752 269.267 287.388 269.392Z" fill="#343A40"/>
<path d="M297.946 289.212C297.946 289.212 298.747 302.23 300.862 302.457C299.309 303.282 297.62 303.709 295.91 303.709C294.2 303.709 292.511 303.282 290.958 302.457L290.622 296.461L297.946 289.212Z" fill="#94431A"/>
<path d="M251.329 473.268H247.448L248.68 403.755H253.858L251.329 473.268Z" fill="#407BFF"/>
<path opacity="0.7" d="M251.329 473.268H247.448L248.68 403.755H253.858L251.329 473.268Z" fill="white"/>
<path d="M283.182 473.268H279.301L280.533 403.755H285.717L283.182 473.268Z" fill="#939598"/>
<path d="M315.029 473.268H318.911L317.678 403.755H312.501L315.029 473.268Z" fill="#939598"/>
<path d="M315.289 403.755H251.558V410.256H315.289V403.755Z" fill="#939598"/>
<path d="M283.176 473.268H287.058L285.825 403.755H280.641L283.176 473.268Z" fill="#939598"/>
<path d="M319.165 321.428H308.606C303.105 321.428 297.171 324.737 295.615 330.858C291.212 348.204 287.915 402.568 287.915 402.568H316.185C317.843 402.567 319.442 401.861 320.676 400.586C321.91 399.311 322.693 397.556 322.875 395.657L328.789 333.787C328.93 332.334 328.82 330.864 328.467 329.46C328.115 328.055 327.525 326.745 326.733 325.603C325.941 324.462 324.961 323.511 323.85 322.806C322.739 322.101 321.518 321.655 320.257 321.494C319.894 321.45 319.53 321.428 319.165 321.428Z" fill="#939598"/>
<path d="M312.723 321.428H302.158C296.663 321.428 290.723 324.738 289.179 330.859C284.783 348.204 281.48 402.568 281.48 402.568H308.746C310.676 402.568 312.538 401.746 313.973 400.259C315.409 398.772 316.317 396.726 316.522 394.514L322.29 333.743C322.428 332.288 322.315 330.816 321.959 329.411C321.603 328.005 321.01 326.695 320.214 325.554C319.418 324.413 318.435 323.464 317.321 322.761C316.207 322.058 314.983 321.615 313.72 321.457C313.389 321.426 313.056 321.416 312.723 321.428Z" fill="#939598"/>
<path d="M291.358 403.755H250.065C248.237 403.753 246.483 402.914 245.191 401.423C243.898 399.932 243.172 397.911 243.172 395.803C243.172 393.695 243.898 391.674 245.191 390.183C246.483 388.692 248.237 387.854 250.065 387.852H291.358V403.755Z" fill="#939598"/>
<path d="M316.604 403.755H289.923C288.174 403.751 286.499 402.947 285.264 401.521C284.029 400.095 283.335 398.162 283.335 396.147V395.459C283.335 393.441 284.03 391.506 285.268 390.08C286.506 388.653 288.185 387.852 289.935 387.852H316.617C318.447 387.852 320.202 388.689 321.496 390.181C322.789 391.672 323.516 393.694 323.516 395.803C323.516 397.912 322.789 399.934 321.496 401.426C320.202 402.917 318.447 403.755 316.617 403.755H316.604Z" fill="#939598"/>
<path d="M277.871 319.825C277.871 319.825 278.799 331.4 274.06 336.306C269.753 340.772 262.784 342.962 262.784 342.962L256.653 340.897C256.372 340.8 256.073 340.799 255.792 340.896C255.511 340.992 255.261 341.181 255.071 341.439L252.333 345.246C252.209 345.435 252.118 345.651 252.066 345.881C252.014 346.111 252.002 346.35 252.03 346.585C252.059 346.821 252.127 347.047 252.231 347.252C252.336 347.457 252.474 347.636 252.638 347.779C252.973 348.081 253.398 348.217 253.82 348.16L256.996 347.713C258.272 348.006 259.565 348.189 260.865 348.263C261.849 348.031 262.817 347.718 263.762 347.325C263.762 347.325 274.708 346.234 279.371 340.86C284.034 335.486 285.209 324.313 285.209 324.313L277.871 319.825Z" fill="#94431A"/>
<path d="M245.631 443.066L246.349 468.37H251.266L253.559 442.612L245.631 443.066Z" fill="#94431A"/>
<path d="M246.266 465.77H251.869C251.987 465.769 252.102 465.816 252.193 465.901C252.285 465.987 252.348 466.106 252.371 466.239L253.54 472.316C253.59 472.571 253.552 472.839 253.433 473.062C253.314 473.285 253.125 473.445 252.905 473.51H252.727C250.396 473.51 248.331 473.305 245.415 473.305C241.984 473.305 242.874 473.759 238.814 473.824C236.381 473.824 235.943 470.669 236.978 470.515C241.699 469.841 243.052 468.194 244.875 466.254C245.273 465.904 245.767 465.732 246.266 465.77Z" fill="#09176B"/>
<path d="M303.149 347.97C303.149 347.97 318.46 388.071 303.753 388.071H261.316C261.316 388.071 259.48 398.732 252.867 457.343H245.777C245.777 457.343 244.589 388.694 248.515 378.458C251.584 370.404 271.296 364.693 280.622 362.584C281.845 362.312 282.963 361.605 283.819 360.562C284.675 359.519 285.226 358.193 285.393 356.77L287.464 346.915L303.149 347.97Z" fill="#2F2E41"/>
<path opacity="0.2" d="M303.149 347.97C303.149 347.97 318.46 388.071 303.753 388.071H261.316C261.316 388.071 259.48 398.732 252.867 457.343H245.777C245.777 457.343 244.589 388.694 248.515 378.458C251.584 370.404 271.296 364.693 280.622 362.584C281.845 362.312 282.963 361.605 283.819 360.562C284.675 359.519 285.226 358.193 285.393 356.77L287.464 346.915L303.149 347.97Z" fill="#343A40"/>
<path d="M260.395 443.08L261.221 468.04L265.915 468.033L269.289 442.626L260.395 443.08Z" fill="#94431A"/>
<path d="M261.316 465.77H266.926C267.044 465.77 267.159 465.817 267.251 465.902C267.343 465.987 267.408 466.106 267.434 466.239L268.533 472.316C268.584 472.57 268.547 472.838 268.428 473.06C268.308 473.282 268.118 473.441 267.898 473.502H267.694C265.363 473.502 263.298 473.297 260.395 473.297C256.958 473.297 257.854 473.751 253.794 473.817C251.374 473.817 250.936 470.661 251.958 470.508C256.672 469.834 258.038 468.187 259.868 466.246C260.28 465.881 260.798 465.711 261.316 465.77Z" fill="#09176B"/>
<path d="M310.893 348.665C310.893 348.665 311.992 348.665 313.644 358.14C315.734 370.169 318.79 388.057 308.746 388.057H276.29C276.29 388.057 274.701 392.406 267.796 457.328H260.7C260.7 457.328 256.761 387.852 260.7 377.623C263.724 369.737 278.754 366.12 287.026 364.883C288.184 364.75 289.262 364.145 290.068 363.177C290.874 362.21 291.354 360.943 291.422 359.604C291.492 356.741 291.13 348.197 291.13 348.197L310.893 348.665Z" fill="#343A40"/>
<path d="M283.1 302.508C279.136 301.82 276.906 313.052 276.696 323.654L286.092 326.187C286.092 326.187 290.501 303.797 283.1 302.508Z" fill="#0071F2"/>
<path d="M283.1 302.508C279.136 301.82 276.906 313.052 276.696 323.654L286.092 326.187C286.092 326.187 290.501 303.797 283.1 302.508Z" fill="#09176B"/>
<path d="M285.603 353.703C285.37 347.998 284.863 342.312 284.084 336.672C282.604 325.77 280.05 313.513 280.908 305.752C281.013 304.752 281.439 303.835 282.102 303.18C282.766 302.525 283.618 302.181 284.491 302.216H310.188C310.961 302.235 311.696 302.606 312.232 303.248C312.767 303.891 313.061 304.751 313.047 305.642C313.044 305.701 313.044 305.759 313.047 305.818C312.164 314.135 309.934 334.82 313.333 354.362C313.326 354.376 293.703 356.163 285.603 353.703Z" fill="#09176B"/>
<path d="M307.888 317.035C307.888 317.035 309.597 330.5 304.445 334.292C299.293 338.085 288.036 342.01 288.036 342.01L281.048 340.311C280.873 340.267 280.691 340.287 280.526 340.367C280.361 340.447 280.222 340.583 280.127 340.758L277.331 345.956C277.23 346.152 277.184 346.38 277.201 346.607C277.218 346.835 277.297 347.05 277.427 347.223C277.53 347.36 277.659 347.467 277.805 347.536C277.951 347.604 278.108 347.633 278.265 347.618L282.477 347.12C283.44 347.39 284.419 347.576 285.406 347.677C286.631 347.462 287.84 347.137 289.021 346.703C289.021 346.703 305.119 344.887 310.036 339.235C314.953 333.582 315.531 321.816 315.531 321.816L307.888 317.035Z" fill="#94431A"/>
<path d="M311.103 302.472C306.11 301.784 307.431 314.641 306.828 323.654L316.153 324.921C316.153 324.921 318.529 303.482 311.103 302.472Z" fill="#0071F2"/>
<path d="M311.103 302.472C306.11 301.784 307.431 314.641 306.828 323.654L316.153 324.921C316.153 324.921 318.529 303.482 311.103 302.472Z" fill="#09176B"/>
<path d="M290.158 303.05C290.158 303.05 289.192 312.649 300.201 304.09C300.539 303.827 300.785 303.435 300.895 302.984C301.006 302.532 300.974 302.05 300.805 301.623C300.31 300.432 300.037 299.135 300.005 297.815C299.997 297.623 299.945 297.437 299.855 297.276C299.765 297.114 299.639 296.983 299.491 296.895C299.343 296.808 299.177 296.767 299.011 296.777C298.844 296.786 298.683 296.847 298.543 296.951C296.345 298.661 293.7 299.438 291.06 299.148C290.934 299.136 290.808 299.152 290.688 299.197C290.568 299.241 290.457 299.312 290.36 299.406C290.264 299.5 290.185 299.614 290.127 299.743C290.07 299.873 290.035 300.013 290.024 300.158C290.015 300.294 290.028 300.431 290.062 300.561C290.278 301.368 290.311 302.225 290.158 303.05Z" fill="#0071F2"/>
<path d="M298.099 291.072C298.003 289.944 297.946 289.212 297.946 289.212L290.666 296.461L290.838 299.631C292.921 299.463 296.002 297.866 298.099 291.072Z" fill="#94431A"/>
<path d="M298.518 278.734C299.103 286.151 299.49 289.285 296.771 293.62C292.686 300.151 284.701 299.36 282.16 292.353C279.962 286.012 279.326 274.942 285.164 270.915C286.449 270.015 287.911 269.51 289.413 269.447C290.915 269.384 292.405 269.765 293.743 270.554C295.081 271.343 296.221 272.514 297.054 273.955C297.888 275.396 298.388 277.059 298.505 278.786L298.518 278.734Z" fill="#94431A"/>
<path d="M300.799 284.328C300.625 285.757 299.967 287.047 298.969 287.916C297.641 289.058 296.383 287.85 296.263 286.049C296.142 284.248 296.707 281.883 298.277 281.451C298.551 281.38 298.835 281.373 299.112 281.43C299.389 281.487 299.654 281.606 299.89 281.782C300.127 281.958 300.331 282.186 300.49 282.454C300.649 282.721 300.761 283.022 300.818 283.34C300.875 283.666 300.875 284.002 300.818 284.328H300.799Z" fill="#94431A"/>
<path d="M289.751 273.521C289.751 273.521 287.991 276.692 289.345 278.91C290.698 281.129 281.448 276.494 279.072 281.348C279.072 281.348 276.048 266.346 289.751 268.352V273.521Z" fill="#343A40"/>
<path d="M289.3 272.577C289.3 272.577 288.277 278.595 291.676 280.448C295.075 282.3 294.98 287.264 298.029 286.43C302.431 285.163 299.299 269.838 292.159 268.176C286.905 266.932 289.3 272.577 289.3 272.577Z" fill="#343A40"/>
<path d="M193.227 474.315H189.434L187.77 358.623H194.885L193.227 474.315Z" fill="#939598"/>
<path d="M235.092 474.315H231.299L229.635 358.623H236.756L235.092 474.315Z" fill="#939598"/>
<path d="M262.898 356.683H191.321V365.732H262.898V356.683Z" fill="#939598"/>
<path d="M304.884 356.683H262.904V365.732H304.884V356.683Z" fill="#939598"/>
<path d="M306.669 474.315H302.876L301.212 358.623H308.333L306.669 474.315Z" fill="#939598"/>
<path d="M309.756 350.862H255.497C253.886 350.862 252.581 352.366 252.581 354.223V355.262C252.581 357.118 253.886 358.623 255.497 358.623H309.756C311.367 358.623 312.672 357.118 312.672 355.262V354.223C312.672 352.366 311.367 350.862 309.756 350.862Z" fill="#939598"/>
<path d="M259.029 350.862H184.79C183.18 350.862 181.874 352.366 181.874 354.223V355.262C181.874 357.118 183.18 358.623 184.79 358.623H259.029C260.639 358.623 261.945 357.118 261.945 355.262V354.223C261.945 352.366 260.639 350.862 259.029 350.862Z" fill="#939598"/>
<path d="M264.804 474.315H261.011L259.347 358.623H266.462L264.804 474.315Z" fill="#939598"/>
<path d="M256.92 350.862C256.776 350.862 256.633 350.829 256.499 350.765C256.366 350.702 256.245 350.608 256.143 350.491C256.041 350.373 255.96 350.233 255.905 350.08C255.849 349.926 255.821 349.761 255.821 349.595C255.821 349.429 255.849 349.264 255.905 349.11C255.96 348.957 256.041 348.817 256.143 348.699C256.245 348.582 256.366 348.488 256.499 348.425C256.633 348.361 256.776 348.328 256.92 348.328H287.413C287.558 348.328 287.701 348.361 287.834 348.425C287.967 348.488 288.088 348.582 288.19 348.699C288.293 348.817 288.374 348.957 288.429 349.11C288.484 349.264 288.512 349.429 288.512 349.595C288.512 349.761 288.484 349.926 288.429 350.08C288.374 350.233 288.293 350.373 288.19 350.491C288.088 350.608 287.967 350.702 287.834 350.765C287.701 350.829 287.558 350.862 287.413 350.862H256.92Z" fill="black"/>
<path d="M259.499 348.629L255.452 315.366C255.365 314.762 255.098 314.212 254.697 313.811C254.295 313.41 253.785 313.183 253.254 313.169H249.373V350.869H257.854C258.285 350.883 258.703 350.7 259.017 350.36C259.331 350.019 259.516 349.55 259.531 349.053C259.535 348.911 259.524 348.768 259.499 348.629Z" fill="black"/>
<path d="M256.183 350.847H221.713C221.182 350.831 220.674 350.603 220.273 350.202C219.872 349.802 219.604 349.253 219.515 348.651L215.468 315.388C215.427 315.145 215.429 314.895 215.473 314.653C215.516 314.411 215.601 314.181 215.722 313.977C215.843 313.773 215.998 313.598 216.178 313.463C216.358 313.328 216.559 313.236 216.77 313.191C216.886 313.172 217.004 313.172 217.12 313.191H251.571C252.102 313.205 252.612 313.432 253.013 313.833C253.415 314.234 253.682 314.784 253.769 315.388L257.828 348.651C257.867 348.895 257.863 349.146 257.817 349.389C257.771 349.632 257.684 349.863 257.56 350.067C257.437 350.271 257.28 350.445 257.098 350.579C256.916 350.713 256.713 350.804 256.501 350.847C256.395 350.861 256.289 350.861 256.183 350.847Z" fill="black"/>
<path opacity="0.7" d="M238.338 331.086C238.373 331.308 238.369 331.536 238.327 331.757C238.285 331.978 238.206 332.188 238.094 332.373C237.982 332.559 237.839 332.717 237.674 332.839C237.509 332.961 237.324 333.045 237.131 333.084C237.032 333.095 236.932 333.095 236.832 333.084C236.344 333.069 235.876 332.859 235.508 332.488C235.141 332.118 234.897 331.612 234.819 331.056C234.748 330.61 234.834 330.149 235.058 329.776C235.282 329.402 235.626 329.147 236.013 329.065C236.121 329.054 236.229 329.054 236.337 329.065C236.822 329.083 237.286 329.294 237.651 329.662C238.016 330.031 238.259 330.534 238.338 331.086Z" fill="white"/>
<path d="M134.94 341.197C130.804 369.02 159.633 354.435 171.151 354.764C171.905 354.78 172.65 354.946 173.355 355.255L176.894 372.915L173.45 391.22L165.414 405.863H115.291L79.1114 377.66L69.9253 344.558L72.5109 290.94L73.6099 282.329C73.6099 282.329 74.7153 292.931 100.012 290.281C125.309 287.63 145.117 278.251 150.835 287.63C157.797 298.884 137.678 322.805 134.94 341.197Z" fill="#939598"/>
<path d="M126.325 420.829H117.635V466.422H126.325V420.829Z" fill="#939598"/>
<path d="M128.778 462.278H115.589L88.6597 468.143V473.319H94.2057L115.589 468.663H128.778L150.161 473.319H155.707V468.143L128.778 462.278Z" fill="#939598"/>
<path d="M150.161 475.574H155.644C156.002 475.574 156.347 475.41 156.6 475.118C156.854 474.825 156.997 474.428 156.997 474.015C156.997 473.601 156.854 473.205 156.6 472.912C156.347 472.62 156.002 472.455 155.644 472.455H150.142C149.783 472.455 149.439 472.62 149.185 472.912C148.931 473.205 148.789 473.601 148.789 474.015C148.789 474.428 148.931 474.825 149.185 475.118C149.439 475.41 149.783 475.574 150.142 475.574H150.161Z" fill="#939598"/>
<path d="M88.6597 475.574H94.1612C94.5201 475.574 94.8642 475.41 95.118 475.118C95.3718 474.825 95.5143 474.428 95.5143 474.015C95.5143 473.601 95.3718 473.205 95.118 472.912C94.8642 472.62 94.5201 472.455 94.1612 472.455H88.6597C88.3008 472.455 87.9566 472.62 87.7029 472.912C87.4491 473.205 87.3065 473.601 87.3065 474.015C87.3065 474.428 87.4491 474.825 87.7029 475.118C87.9566 475.41 88.3008 475.574 88.6597 475.574Z" fill="#939598"/>
<path d="M169.156 393.219H117.165V380.296H169.156C170.643 380.296 172.07 380.975 173.123 382.186C174.175 383.397 174.768 385.039 174.772 386.753C174.77 388.469 174.178 390.113 173.125 391.325C172.072 392.538 170.644 393.219 169.156 393.219Z" fill="#939598"/>
<path d="M125.207 299.792C125.207 299.792 131.808 321.347 137.278 321.801C142.747 322.255 149.348 310.745 149.348 310.745L152.067 302.611L157.568 302.076V312.29L152.003 315.571C152.003 315.571 143.414 331.832 136.757 331.43C130.099 331.027 123.359 319.129 121.999 313.074C121.224 309.713 121.72 302.772 125.207 299.792Z" fill="#94431A"/>
<path d="M159.157 317.518L161.126 298.73L153.585 298.13L153.35 317.064L159.157 317.518Z" fill="#CCCCCC"/>
<path d="M153.718 295.442L153.56 298.153L161.103 298.738L161.261 296.027L153.718 295.442Z" fill="#BCBEC0"/>
<path d="M153.738 294.894L160.434 295.428C160.49 295.433 160.546 295.45 160.597 295.48C160.648 295.509 160.693 295.55 160.73 295.6C160.767 295.649 160.796 295.707 160.813 295.769C160.831 295.832 160.838 295.897 160.834 295.963L160.751 297.332L153.191 296.717L153.274 295.362C153.281 295.232 153.332 295.109 153.416 295.021C153.5 294.934 153.611 294.888 153.725 294.894H153.738Z" fill="#E0E0E0"/>
<path d="M123.841 318.748C123.841 318.748 116.701 305.159 121.262 298.73C125.824 292.302 132.774 313.484 132.774 313.484L123.841 318.748Z" fill="#0071F2"/>
<path d="M123.841 318.748C123.841 318.748 116.701 305.159 121.262 298.73C125.824 292.302 132.774 313.484 132.774 313.484L123.841 318.748Z" fill="#09176B"/>
<path d="M88.0689 370.689C88.0689 370.689 79.1241 334.607 89.619 298.73C89.619 298.73 103.227 291.409 122.615 296.79C123.136 296.931 123.627 297.189 124.061 297.55C124.495 297.91 124.864 298.365 125.145 298.889C125.427 299.413 125.616 299.996 125.701 300.605C125.787 301.213 125.768 301.835 125.646 302.435C125.646 302.435 125.646 302.508 125.646 302.545C123.708 311.258 120.71 332.008 127.958 358.242C115.717 366.01 102.038 370.279 88.0689 370.689Z" fill="#09176B"/>
<path d="M105.094 294.974L111.695 301.527L115.507 297.639C114.065 296.373 114.408 293.605 115.265 290.589L105.939 282.11C106.39 286.086 106.727 291.555 105.094 294.974Z" fill="#94431A"/>
<path d="M152.931 379.68L165.046 385.355L163.68 391.264L150.746 388.196L152.931 379.68Z" fill="#94431A"/>
<path d="M111.562 359.502C111.562 359.502 169.544 336.357 174.327 357.627C179.111 378.897 135.169 393.57 112.146 392.684C89.1234 391.798 111.562 359.502 111.562 359.502Z" fill="#2F2E41"/>
<path opacity="0.3" d="M111.562 359.502C111.562 359.502 169.544 336.35 174.327 357.627C179.111 378.904 135.169 393.563 112.146 392.677C89.1234 391.791 111.562 359.502 111.562 359.502Z" fill="#343A40"/>
<path opacity="0.7" d="M154.672 361.698L126.503 382.39L130.988 390.883C130.988 390.883 128.269 391.923 124.509 381.54L141.922 368.28C141.922 368.28 136.42 367.643 136.611 366.67C136.839 365.059 148.808 361.976 154.265 360.658C154.396 360.628 154.533 360.657 154.645 360.741C154.758 360.824 154.838 360.955 154.869 361.105C154.887 361.215 154.879 361.329 154.844 361.434C154.809 361.539 154.749 361.63 154.672 361.698Z" fill="black"/>
<path opacity="0.7" d="M125.512 381.467L130.385 390.985C124.389 392.252 118.298 392.83 112.203 392.713C110.19 392.697 108.196 392.269 106.314 391.447L104.599 387.639L108.296 378.677L125.512 381.467Z" fill="black"/>
<path d="M126.008 382.895L120.525 388.196L123.047 392.699L131.382 391.19L126.008 382.895Z" fill="#FFC3BD"/>
<path d="M132.85 391.351L127.126 380.954L124.54 383.085L129.495 392.062L132.85 391.351Z" fill="#263238"/>
<path opacity="0.3" d="M132.85 391.351L127.126 380.954L124.54 383.085L129.495 392.062L132.85 391.351Z" fill="white"/>
<path d="M91.1817 381.665C88.0689 375.61 82.0464 357.224 96.5117 354.054C110.977 350.884 158.521 381.679 158.521 381.679L156.323 389.689L111.307 381.137C111.307 381.137 123.829 394.192 110.132 392.545C99.2625 391.264 94.2184 387.588 91.1817 381.665Z" fill="#343A40"/>
<path d="M157.353 379.68L154.538 390.151L157.353 390.59L159.887 381.555L157.353 379.68Z" fill="#263238"/>
<path d="M157.353 379.68L154.538 390.151L157.353 390.59L159.887 381.555L157.353 379.68Z" fill="#3F3D56"/>
<path d="M124.655 392.45L122.685 385.516C122.647 385.39 122.573 385.282 122.475 385.21C122.377 385.138 122.261 385.107 122.145 385.121L116.911 385.714C116.686 385.736 116.478 385.86 116.332 386.059C116.187 386.259 116.116 386.516 116.136 386.775V386.973C116.885 389.448 117.647 391.63 118.524 394.734C119.623 398.395 118.924 397.612 120.1 401.946C120.811 404.56 123.511 404.062 123.321 402.913C122.431 397.663 123.606 396.638 124.591 394.126C124.792 393.596 124.815 392.998 124.655 392.45Z" fill="#263238"/>
<path d="M163.966 384.974L161.933 392.091C161.893 392.225 161.894 392.37 161.936 392.503C161.977 392.636 162.057 392.749 162.162 392.823L166.818 396.015C167.015 396.153 167.252 396.195 167.476 396.132C167.7 396.069 167.893 395.906 168.012 395.679L168.089 395.488C168.788 392.955 169.315 390.583 170.236 387.39C171.335 383.583 171.424 384.725 172.777 380.325C173.565 377.667 171.068 376.181 170.573 377.257C168.527 382.228 167.021 382.243 164.855 383.598C164.425 383.918 164.109 384.407 163.966 384.974Z" fill="#09176B"/>
<path d="M156.025 361.347H129.934C129.645 361.347 129.358 361.281 129.091 361.153C128.824 361.025 128.581 360.838 128.377 360.602C128.173 360.366 128.011 360.086 127.901 359.778C127.791 359.469 127.735 359.139 127.736 358.806H158.28C158.281 359.139 158.225 359.469 158.115 359.778C158.004 360.086 157.843 360.366 157.638 360.602C157.434 360.838 157.192 361.025 156.925 361.153C156.657 361.281 156.371 361.347 156.082 361.347H156.025Z" fill="black"/>
<path d="M136.82 361.347H117.863C117.574 361.347 117.288 361.281 117.021 361.153C116.754 361.025 116.511 360.838 116.307 360.602C116.103 360.366 115.941 360.086 115.831 359.778C115.721 359.469 115.665 359.139 115.665 358.806H139.075C139.076 359.139 139.02 359.469 138.91 359.778C138.8 360.086 138.638 360.366 138.434 360.602C138.23 360.838 137.987 361.025 137.72 361.153C137.453 361.281 137.167 361.347 136.877 361.347H136.82Z" fill="black"/>
<path d="M156.203 360.556H139.05C138.981 360.556 138.912 360.54 138.848 360.51C138.784 360.479 138.726 360.434 138.677 360.378C138.628 360.321 138.589 360.254 138.563 360.181C138.536 360.107 138.523 360.028 138.523 359.948C138.52 359.88 138.531 359.813 138.555 359.75L146.178 334.593C146.284 334.256 146.477 333.964 146.732 333.759C146.986 333.553 147.29 333.443 147.601 333.443H164.753C164.892 333.445 165.025 333.51 165.122 333.624C165.22 333.737 165.274 333.891 165.274 334.051C165.277 334.121 165.266 334.191 165.243 334.256L157.619 359.406C157.514 359.742 157.321 360.033 157.068 360.238C156.815 360.444 156.513 360.555 156.203 360.556Z" fill="black"/>
<path d="M156.914 360.556H139.762C139.693 360.556 139.624 360.54 139.561 360.509C139.497 360.479 139.439 360.434 139.391 360.377C139.343 360.321 139.304 360.254 139.278 360.18C139.253 360.106 139.24 360.028 139.241 359.948C139.231 359.883 139.231 359.816 139.241 359.75L146.864 334.593C146.97 334.256 147.163 333.964 147.418 333.759C147.673 333.553 147.976 333.443 148.287 333.443H165.44C165.579 333.443 165.714 333.507 165.812 333.621C165.911 333.735 165.967 333.89 165.967 334.051C165.966 334.121 165.955 334.19 165.935 334.256L158.312 359.406C158.209 359.74 158.02 360.029 157.77 360.234C157.52 360.44 157.221 360.552 156.914 360.556Z" fill="black"/>
<path d="M153.998 347.003C153.814 347.97 153.242 348.746 152.728 348.746C152.213 348.746 151.902 347.97 152.092 347.003C152.283 346.037 152.848 345.253 153.363 345.253C153.878 345.253 154.208 346.044 153.998 347.003Z" fill="white"/>
<path d="M96.264 309.545C96.264 309.545 100.457 333.326 103.284 337.272C106.111 341.219 118.423 351.821 118.423 351.821L125.747 350.064L130.995 355.108L127.564 358.227L123.505 356.47C121.288 356.919 119.041 357.142 116.79 357.137C112.978 357.137 97.6425 346.718 94.5932 340.86C91.5439 335.003 87.2811 312.971 87.2811 312.971L96.264 309.545Z" fill="#94431A"/>
<path d="M102.661 295.143L105.279 293.393L111.663 301.527C111.663 301.527 108.15 299.88 107.165 300.554C106.181 301.227 106.899 303.761 105.863 303.79C103.551 303.856 102.661 295.143 102.661 295.143Z" fill="#0071F2"/>
<path opacity="0.2" d="M102.661 295.143L105.279 293.393L111.663 301.527C111.663 301.527 108.15 299.88 107.165 300.554C106.181 301.227 106.899 303.761 105.863 303.79C103.551 303.856 102.661 295.143 102.661 295.143Z" fill="black"/>
<path d="M111.663 301.527L114.986 293.927L117.717 295.611C117.717 295.611 120.258 302.977 118.308 303.746C117.133 304.222 116.682 300.78 115.513 300.275C114.585 299.924 111.663 301.527 111.663 301.527Z" fill="#0071F2"/>
<path opacity="0.2" d="M111.663 301.527L114.986 293.927L117.717 295.611C117.717 295.611 120.258 302.977 118.308 303.746C117.133 304.222 116.682 300.78 115.513 300.275C114.585 299.924 111.663 301.527 111.663 301.527Z" fill="black"/>
<path d="M88.0689 321.37C88.0689 321.37 83.2217 304.449 89.619 298.73C96.0162 293.012 99.002 318.258 99.002 318.258L88.0689 321.37Z" fill="#0071F2"/>
<path d="M88.0689 321.37C88.0689 321.37 83.2217 304.449 89.619 298.73C96.0162 293.012 99.002 318.258 99.002 318.258L88.0689 321.37Z" fill="#09176B"/>
<path d="M106.092 283.516C106.071 283.043 106.02 282.574 105.939 282.11L115.252 290.589C114.915 291.778 114.687 293.005 114.573 294.249C108.9 294.293 106.791 287.118 106.092 283.516Z" fill="#94431A"/>
<path d="M107.68 269.736C105.73 277.343 104.764 280.499 106.822 285.61C109.903 293.378 118.403 294.484 122.221 287.711C125.677 281.612 128.339 270.256 122.939 264.662C121.76 263.421 120.324 262.549 118.769 262.13C117.214 261.711 115.591 261.758 114.056 262.267C112.521 262.776 111.125 263.729 110.001 265.037C108.877 266.345 108.063 267.962 107.635 269.736H107.68Z" fill="#94431A"/>
<path d="M106.39 274.188C106.994 274.163 107.564 273.864 107.977 273.357C108.39 272.849 108.612 272.174 108.595 271.479C108.589 271.276 108.563 271.074 108.519 270.878C108.519 270.878 112.597 270.746 112.775 267.298C112.775 267.298 116.339 270.959 117.59 268.096C117.59 268.096 121.993 272.599 122.539 269.619C122.539 269.619 127.075 276.113 126.84 272.152C126.84 272.152 131.954 271.559 127.361 266.463C127.361 266.463 131.56 262.231 124.775 260.503C124.775 260.503 125.366 255.436 120.595 257.692C120.595 257.692 119.496 252.23 115.36 255.407C115.36 255.407 113.156 251.607 110.672 256.674C110.672 256.674 107.064 254.302 105.92 259.668C105.92 259.668 99.3959 260.584 102.109 265.526C102.109 265.526 104.116 282.117 105.92 282.117C107.165 282.11 106.39 274.188 106.39 274.188Z" fill="#343A40"/>
<path d="M104.148 274.934C104.192 276.461 104.759 277.906 105.723 278.954C106.994 280.331 108.461 279.232 108.766 277.351C109.071 275.469 108.766 272.892 107.108 272.284C106.837 272.171 106.548 272.121 106.26 272.136C105.972 272.151 105.689 272.232 105.427 272.373C105.166 272.515 104.931 272.714 104.737 272.96C104.542 273.206 104.392 273.494 104.294 273.807L104.256 273.917C104.16 274.244 104.123 274.59 104.148 274.934Z" fill="#94431A"/>
<path d="M69.3027 283.062C69.3027 283.062 45.8799 421.737 123.333 424.314C193.976 426.621 178.177 360.102 173.59 355.489C169.004 350.876 186.22 398.175 157.797 398.849C123.492 399.647 117.304 362.079 105.819 361.779C94.3327 361.478 77.0023 378.985 75.2425 347.208C73.4828 315.431 82.5864 261.506 69.3027 283.062Z" fill="#939598"/>
<path d="M355.083 325.733C351.551 326.883 351.323 332.404 354.543 345.956C357.764 359.509 360.128 368.141 366.36 364.883C372.592 361.625 379.789 352.912 379.789 352.912L376.664 347.054C376.664 347.054 366.499 357.115 364.39 355.189C362.281 353.263 360.502 323.983 355.083 325.733Z" fill="#09176B"/>
<path d="M290.158 303.05C290.158 303.05 289.192 312.649 300.201 304.09C300.539 303.827 300.785 303.435 300.895 302.984C301.006 302.532 300.974 302.05 300.805 301.623C300.31 300.432 300.037 299.135 300.005 297.815C299.997 297.623 299.945 297.437 299.855 297.276C299.765 297.114 299.639 296.983 299.491 296.895C299.343 296.808 299.177 296.767 299.011 296.777C298.844 296.786 298.683 296.847 298.543 296.951C296.345 298.661 293.7 299.438 291.06 299.148C290.934 299.136 290.808 299.152 290.688 299.197C290.568 299.241 290.457 299.312 290.36 299.406C290.264 299.5 290.185 299.614 290.127 299.743C290.07 299.873 290.035 300.013 290.024 300.158C290.015 300.294 290.028 300.431 290.062 300.561C290.278 301.368 290.311 302.225 290.158 303.05Z" fill="#09176B"/>
</svg>
