<svg width="250" height="400" viewBox="0 0 250 400" fill="none" xmlns="http://www.w3.org/2000/svg">
<path opacity="0.7" d="M107.565 4.39362C107.565 5.2626 107.221 6.11206 106.577 6.83458C105.933 7.55711 105.018 8.12025 103.947 8.4528C102.876 8.78534 101.697 8.87234 100.56 8.70282C99.4234 8.53329 98.379 8.11484 97.5594 7.50038C96.7397 6.88592 96.1815 6.10305 95.9553 5.25077C95.7292 4.3985 95.8452 3.51508 96.2889 2.71225C96.7325 1.90942 97.4837 1.22324 98.4475 0.740459C99.4113 0.257681 100.544 0 101.704 0C102.473 0 103.236 0.113644 103.947 0.334444C104.658 0.555244 105.304 0.878875 105.848 1.28686C106.392 1.69485 106.824 2.1792 107.119 2.71225C107.413 3.24531 107.565 3.81664 107.565 4.39362Z" fill="white"/>
<path opacity="0.7" d="M125.148 4.39362C125.148 5.2626 124.804 6.11206 124.16 6.83458C123.516 7.55711 122.601 8.12025 121.53 8.4528C120.459 8.78534 119.28 8.87234 118.143 8.70282C117.006 8.53329 115.962 8.11484 115.142 7.50038C114.323 6.88592 113.764 6.10305 113.538 5.25077C113.312 4.3985 113.428 3.51508 113.872 2.71225C114.315 1.90942 115.067 1.22324 116.03 0.740459C116.994 0.257681 118.127 0 119.287 0C120.841 0 122.332 0.462897 123.431 1.28686C124.53 2.11082 125.148 3.22836 125.148 4.39362Z" fill="white"/>
<path opacity="0.7" d="M142.731 4.39362C142.731 5.2626 142.387 6.11206 141.743 6.83458C141.099 7.55711 140.183 8.12025 139.112 8.4528C138.042 8.78534 136.863 8.87234 135.726 8.70282C134.589 8.53329 133.545 8.11484 132.725 7.50038C131.906 6.88592 131.347 6.10305 131.121 5.25077C130.895 4.3985 131.011 3.51508 131.455 2.71225C131.898 1.90942 132.65 1.22324 133.613 0.740459C134.577 0.257681 135.71 0 136.87 0C138.424 0 139.915 0.462897 141.014 1.28686C142.113 2.11082 142.731 3.22836 142.731 4.39362Z" fill="white"/>
<path opacity="0.4" d="M245.132 216.086C244.485 216.089 243.844 215.997 243.245 215.813C242.646 215.63 242.101 215.36 241.642 215.018C241.183 214.677 240.818 214.27 240.57 213.823C240.321 213.375 240.193 212.895 240.193 212.41V165.562C240.193 164.587 240.71 163.652 241.629 162.963C242.549 162.274 243.796 161.886 245.096 161.886C246.397 161.886 247.644 162.274 248.564 162.963C249.483 163.652 250 164.587 250 165.562V212.41C250 213.38 249.488 214.311 248.576 214.999C247.665 215.688 246.427 216.078 245.132 216.086Z" fill="white"/>
<path opacity="0.4" d="M120.405 151.429C120.407 152.59 119.949 153.726 119.09 154.692C118.231 155.658 117.009 156.411 115.578 156.856C114.148 157.302 112.573 157.419 111.054 157.193C109.534 156.967 108.138 156.409 107.042 155.588C105.947 154.768 105.2 153.722 104.897 152.583C104.594 151.445 104.749 150.264 105.341 149.191C105.934 148.118 106.937 147.201 108.225 146.556C109.513 145.911 111.027 145.566 112.576 145.566C113.603 145.566 114.621 145.717 115.571 146.011C116.521 146.305 117.384 146.737 118.111 147.281C118.839 147.826 119.415 148.472 119.809 149.184C120.203 149.896 120.405 150.659 120.405 151.429Z" fill="white"/>
<path opacity="0.4" d="M120.405 169.869C120.407 171.03 119.949 172.165 119.09 173.131C118.231 174.097 117.009 174.851 115.578 175.296C114.148 175.741 112.573 175.859 111.054 175.633C109.534 175.407 108.138 174.849 107.042 174.028C105.947 173.208 105.2 172.162 104.897 171.023C104.594 169.884 104.749 168.704 105.341 167.631C105.934 166.558 106.937 165.641 108.225 164.996C109.513 164.351 111.027 164.006 112.576 164.006C114.651 164.006 116.641 164.624 118.109 165.723C119.577 166.822 120.403 168.313 120.405 169.869Z" fill="white"/>
<path opacity="0.4" d="M120.405 188.309C120.405 189.469 119.946 190.604 119.086 191.569C118.225 192.535 117.003 193.287 115.572 193.731C114.141 194.175 112.567 194.292 111.048 194.065C109.529 193.839 108.134 193.28 107.039 192.459C105.944 191.638 105.199 190.592 104.896 189.454C104.594 188.315 104.749 187.135 105.342 186.062C105.935 184.99 106.938 184.073 108.226 183.428C109.513 182.783 111.027 182.439 112.576 182.439C114.652 182.439 116.644 183.058 118.112 184.158C119.58 185.259 120.405 186.752 120.405 188.309Z" fill="white"/>
<path opacity="0.4" d="M120.405 206.742C120.407 207.903 119.949 209.038 119.09 210.004C118.231 210.97 117.009 211.724 115.578 212.169C114.148 212.614 112.573 212.731 111.054 212.506C109.534 212.28 108.138 211.722 107.042 210.901C105.947 210.08 105.2 209.035 104.897 207.896C104.594 206.757 104.749 205.577 105.341 204.504C105.934 203.431 106.937 202.514 108.225 201.869C109.513 201.223 111.027 200.879 112.576 200.879C113.603 200.878 114.621 201.029 115.571 201.323C116.521 201.618 117.384 202.049 118.111 202.594C118.839 203.138 119.415 203.785 119.809 204.497C120.203 205.208 120.405 205.971 120.405 206.742Z" fill="white"/>
<path d="M67.8174 284.586L63.4865 371.204C69.6517 373.297 81.8121 368.031 81.8121 368.031L103.073 282.889L67.8174 284.586Z" fill="#94431A"/>
<path d="M58.6903 367.26L57.545 379.374L106.133 380.414C110.831 367.26 81.8211 369.071 81.8211 369.071V368.031C78.119 369.159 74.1355 369.674 70.1432 369.541C66.1509 369.408 62.2442 368.63 58.6903 367.26Z" fill="#09176B"/>
<path d="M74.8416 282.842L63.916 377.697L45.1251 377.362C45.1251 377.362 32.9826 306.876 32.4278 301.624C31.873 296.371 34.6022 282.104 35.1122 281.239L74.8416 282.842Z" fill="#94431A"/>
<path d="M74.0184 289.348C73.9468 289.945 73.8574 290.69 73.741 291.73C73.4636 293.856 73.0878 296.834 72.6225 300.497C71.674 307.875 70.3676 318.158 69.0433 329.421C67.719 340.683 66.6542 350.96 65.8936 358.372C65.5178 362.034 65.2046 365.08 64.9988 367.152C64.8825 368.145 64.7214 368.943 64.7214 369.54C64.7015 369.82 64.6506 370.098 64.5693 370.372C64.5424 370.091 64.5424 369.808 64.5693 369.527C64.5693 368.937 64.6319 368.185 64.7035 367.132C64.8735 365.013 65.1062 362.014 65.3835 358.352C66.0278 350.926 67.0121 340.677 68.3275 329.374C69.6428 318.071 71.0119 307.842 72.1035 300.457C72.7031 296.801 73.1594 293.796 73.4905 291.736C73.6605 290.737 73.7947 289.952 73.8932 289.355C73.9319 289.079 73.9977 288.806 74.09 288.537C74.104 288.808 74.0801 289.08 74.0184 289.348Z" fill="#94431A"/>
<path d="M43.9887 371.264C42.6644 371.593 40.5884 372.606 40.4989 373.619C40.0861 374.776 40.0328 375.99 40.343 377.165C40.6533 378.341 41.3188 379.448 42.2886 380.4C48.0243 386.008 60.5337 396.184 64.3455 399.182C64.8117 399.549 65.4091 399.807 66.0661 399.926C66.7231 400.045 67.4119 400.02 68.05 399.853C68.305 399.775 68.5505 399.681 68.7838 399.571C71.2458 398.414 73.0375 396.606 73.8033 394.504C74.5691 392.403 74.253 390.163 72.9178 388.228L64.4798 375.832V373.008C57.885 378.683 44.1319 371.177 44.1319 371.177L43.9887 371.264Z" fill="#09176B"/>
<path d="M43.8813 102.864C43.8813 102.864 52.3372 102.301 54.109 102.703C67.5216 105.726 81.3154 107.699 95.2701 108.593C97.6674 108.874 100.119 108.729 102.429 108.17C103.297 107.905 104.072 107.492 104.693 106.965C105.314 106.438 105.764 105.811 106.008 105.132C105.9 106.171 105.9 107.211 105.9 108.251L119.17 111.081C121.604 108.043 121.479 104.172 120.217 100.758C118.956 97.3438 116.638 94.1912 114.929 90.8909C108.111 77.9046 109.981 64.8512 110.759 49.6311L45.313 49.1213C40.6511 64.8378 39.0315 87.2217 43.8813 102.864Z" fill="#343A40"/>
<path d="M162.577 131.547L163.687 140.535L175.946 138.154C175.946 138.154 199.569 139.462 201.707 139.194C202.632 139.128 203.537 138.956 204.392 138.684L204.714 137.799C206.504 137.908 208.306 137.863 210.083 137.664C212.696 137.322 210.664 136.323 212.695 135.981C213.652 135.858 214.565 135.591 215.38 135.196L215.496 133.687C218.029 133.056 215.496 131.097 215.496 131.097L200.285 130.762C198.2 130.152 187.927 130.594 187.677 130.246C187.426 129.897 193.475 129.199 196.741 128.85C196.82 128.843 196.898 128.83 196.974 128.81C197.203 128.765 197.418 128.686 197.607 128.578C197.795 128.47 197.953 128.335 198.072 128.181C198.19 128.027 198.266 127.857 198.296 127.68C198.325 127.504 198.308 127.325 198.244 127.153C195.632 125.396 189.547 126.858 187.677 126.764C185.807 126.67 177.002 126.046 174.944 126.764C173.503 127.481 172.421 128.535 171.865 129.763L162.577 131.547Z" fill="#94431A"/>
<path d="M178.657 129.689C180.138 129.95 181.546 130.404 182.818 131.03C184.131 131.655 185.218 132.512 185.986 133.526C186.35 133.922 186.561 134.387 186.594 134.867C186.505 134.867 186.254 134.378 185.61 133.68C184.788 132.768 183.725 131.991 182.487 131.399C180.648 130.64 178.719 130.011 176.724 129.521C177.377 129.469 178.037 129.526 178.657 129.689Z" fill="#94431A"/>
<path d="M199.73 136.437C201.018 136.4 202.303 136.569 203.497 136.933C204.392 137.403 204.481 137.973 204.392 137.973C204.09 137.69 203.708 137.461 203.273 137.302C202.11 137.054 200.903 136.941 199.694 136.967C197.916 136.96 196.144 136.8 194.415 136.491C196.178 136.319 197.961 136.301 199.73 136.437Z" fill="#94431A"/>
<path d="M197.842 134.123C199.815 134.338 201.807 134.444 203.801 134.438C204.918 134.406 206.036 134.43 207.148 134.512C208.073 134.576 208.979 134.751 209.832 135.028C210.43 135.201 210.953 135.493 211.344 135.873C211.604 136.195 211.479 136.417 211.425 136.403C211.371 136.39 211.425 136.209 211.148 135.981C210.73 135.673 210.221 135.443 209.662 135.31C207.763 134.887 205.774 134.74 203.801 134.874C201.772 134.895 199.745 134.745 197.761 134.425C196.929 134.344 196.114 134.184 195.336 133.948C196.178 133.928 197.019 133.987 197.842 134.123Z" fill="#94431A"/>
<path d="M200.249 132.043C201.886 132.043 204.132 132.124 206.602 132.231C207.855 132.332 209.036 132.265 210.127 132.332C211.099 132.372 212.062 132.491 213 132.687C213.659 132.8 214.273 133.03 214.789 133.358C215.103 133.626 215.165 133.834 215.103 133.854C215.04 133.874 214.968 133.693 214.619 133.492C214.091 133.245 213.5 133.082 212.883 133.016C211.97 132.875 211.042 132.795 210.11 132.774C209.036 132.701 207.846 132.774 206.593 132.701C204.105 132.6 201.85 132.486 200.222 132.379C199.337 132.372 198.456 132.284 197.6 132.117C198.476 132.018 199.365 131.993 200.249 132.043Z" fill="#94431A"/>
<path d="M65.0524 83.2641L59.3883 82.8483L57.205 90.7501L61.7058 101.06L69.6517 103.575L84.0849 105.97L98.3482 105.742L101.399 101.261L90.1428 89.65L65.0524 83.2641Z" fill="#94431A"/>
<path d="M124.101 121.23C125.916 125.646 126.492 130.296 125.792 134.887C124.682 142.836 119.448 145.217 119.448 145.217L122.132 192.447L52.883 183.828L44.445 120.627L63.6476 98.1688C63.6476 98.1688 84.8992 102.864 93.2567 102.978C101.614 103.092 100.934 99.6244 100.934 99.6244L124.101 121.23Z" fill="white"/>
<path d="M124.011 182.895C124.011 182.895 122.141 192.407 121.461 205.474C120.781 218.541 101.605 288.262 101.605 288.262L33.7432 285.532C33.7432 285.532 24.6698 230.125 21.028 212.484C17.3861 194.842 32.0341 170.68 32.0341 170.68L124.011 182.895Z" fill="#09176B"/>
<path opacity="0.2" d="M76.3807 241.039C78.5998 256.359 80.2284 268.849 79.9599 268.849C79.6915 268.849 77.8571 256.433 75.6291 241.113C73.401 225.792 71.8172 213.302 72.0498 213.302C72.2825 213.302 74.1616 225.718 76.3807 241.039Z" fill="black"/>
<path d="M76.5865 159.767C76.7747 159.187 77.2353 158.677 77.884 158.331C78.35 158.087 78.8868 157.93 79.45 157.873C80.0131 157.815 80.5865 157.859 81.1225 158.001C81.6586 158.142 82.1419 158.377 82.5326 158.687C82.9233 158.996 83.21 159.371 83.3691 159.78C83.5058 160.121 83.5507 160.479 83.5011 160.833C83.4515 161.187 83.3085 161.53 83.0803 161.842C82.8521 162.154 82.5434 162.429 82.172 162.651C81.8007 162.873 81.3742 163.037 80.9174 163.134C80.3445 163.261 79.7379 163.276 79.1552 163.177C78.5725 163.079 78.0332 162.87 77.5887 162.571C76.9917 162.175 76.6017 161.633 76.4881 161.041C76.4165 160.832 76.4165 160.613 76.4881 160.404C76.5507 160.404 76.5507 160.632 76.676 161.008C76.8407 161.539 77.2415 162.012 77.8124 162.349C78.2133 162.591 78.6881 162.755 79.1942 162.825C79.7003 162.895 80.2217 162.87 80.7116 162.752C81.3077 162.614 81.833 162.342 82.2166 161.973C82.6002 161.604 82.8236 161.155 82.8568 160.688C82.8899 160.221 82.7312 159.757 82.402 159.36C82.0728 158.963 81.589 158.65 81.0158 158.465C80.5436 158.31 80.0272 158.245 79.5133 158.277C78.9993 158.308 78.5039 158.436 78.0719 158.647C77.4699 158.934 77.0084 159.36 76.7565 159.861C76.5776 160.216 76.4881 160.431 76.4881 160.431C76.4239 160.207 76.4584 159.974 76.5865 159.767Z" fill="#263238"/>
<path d="M90.1697 84.4177L89.8028 90.2602C89.8028 90.2602 100.943 101.61 105.31 106.855C109.676 112.101 117.658 122.565 120.432 126.422C128.315 137.537 117.488 145.05 117.488 145.05L116.951 152.63L114.589 210.149L130.203 207.043L126.946 158.834C127.971 160.018 129.55 160.871 131.373 161.223C133.195 161.576 135.128 161.403 136.789 160.739C150.131 155.373 174.774 139.274 174.774 139.274L166.443 127.381L135.894 137.577V137.014C135.939 136.464 131.581 130.843 131.581 130.843L131.805 127.844C131.877 126.724 126.114 119.741 126.114 119.741C126.114 119.741 124.691 108.23 122.535 103.455C120.378 98.6785 112.862 91.6219 110.902 90.7834C108.943 89.945 93.1315 87.2551 93.1315 87.2551L90.1697 84.4177Z" fill="#1A32C8"/>
<path d="M129.452 151.046C129.322 148.98 129.572 146.911 130.194 144.895C130.705 142.849 131.814 140.914 133.442 139.227C133.969 138.727 134.612 138.302 135.339 137.973C135.605 137.833 135.912 137.745 136.234 137.718C135.319 138.189 134.507 138.764 133.827 139.422C132.351 141.118 131.33 143.014 130.821 145.003C130.219 146.983 129.918 149.009 129.926 151.04C129.983 151.884 129.983 152.731 129.926 153.575C129.603 152.754 129.443 151.902 129.452 151.046Z" fill="#263238"/>
<path opacity="0.2" d="M124.253 138.121C125.188 136.118 125.476 133.978 125.094 131.876C124.41 128.746 123.173 125.699 121.416 122.813C119.627 119.46 117.783 115.757 115.466 112.007C114.34 110.191 113.004 108.451 111.475 106.809C109.99 105.226 108.298 103.83 106.733 102.469C103.97 100.023 101.57 97.3602 99.5741 94.5266C97.6592 92.2057 96.0485 90.3946 94.8853 89.1604L93.4983 87.7316C93.3197 87.5773 93.1693 87.4058 93.0509 87.2218C93.2463 87.3625 93.4259 87.5151 93.5878 87.6779C93.901 87.9932 94.3573 88.4493 94.9837 89.053C96.2006 90.2739 97.9366 92.0648 99.8514 94.3723C101.869 97.1607 104.268 99.7842 107.01 102.2C108.714 103.591 110.32 105.046 111.824 106.56C113.371 108.232 114.725 110.001 115.868 111.846C118.213 115.636 119.994 119.352 121.783 122.693C123.53 125.615 124.734 128.702 125.362 131.869C125.723 134.035 125.36 136.234 124.307 138.268C124.005 138.811 123.643 139.334 123.224 139.831C123.082 140.004 122.914 140.164 122.723 140.307C123.301 139.607 123.813 138.876 124.253 138.121Z" fill="white"/>
<path d="M127.635 164.617C127.456 163.892 127.233 162.973 126.982 161.933C126.454 159.673 125.667 156.567 124.996 153.066C124.368 150.094 124.111 147.085 124.226 144.077C124.226 143.5 124.307 142.984 124.36 142.521C124.414 142.058 124.468 141.669 124.539 141.361C124.582 141.023 124.675 140.69 124.817 140.368C124.915 140.368 124.655 141.797 124.655 144.084C124.673 147.071 124.987 150.053 125.595 153.005C126.293 156.42 126.928 159.505 127.385 161.88C127.599 163.027 127.76 163.952 127.85 164.563C127.904 164.908 127.904 165.257 127.85 165.603C127.728 165.281 127.656 164.95 127.635 164.617Z" fill="#263238"/>
<g opacity="0.3">
<path d="M135.993 137.611C133.308 139.12 132.512 141.045 131.608 143.46C130.704 145.875 130.373 148.39 129.613 150.839C129.572 151.008 129.481 151.169 129.344 151.308C128.789 151.764 127.805 151.348 127.403 150.819C126.739 149.654 126.625 148.355 127.08 147.136C127.468 145.051 128.346 143.034 129.675 141.179C130.314 140.287 131.197 139.505 132.268 138.887C133.338 138.268 134.571 137.826 135.885 137.591" fill="black"/>
</g>
<path d="M59.612 88.1741C59.5673 88.7778 70.8239 108.002 75.2174 116.877C79.611 125.751 85.4719 146.74 86.7336 154.897C87.9953 163.054 82.9486 207.922 82.9486 207.922L22.6833 192.407C24.6251 179.468 40.9821 153.455 40.9821 153.455L34.4948 126.55C34.4948 126.55 20.5716 93.205 23.3902 90.75C26.2089 88.2949 48.7491 84.9611 48.7491 84.9611L52.6862 81.7548L60.641 81.084C60.641 81.084 59.6478 87.5704 59.612 88.1741Z" fill="#1A32C8"/>
<g opacity="0.3">
<path d="M40.2842 158.486C40.9929 159.144 41.9654 159.615 43.0581 159.827C46.351 160.558 49.8676 159.767 53.2947 158.848C56.7218 157.929 60.2384 156.976 63.6655 155.937C65.381 155.476 67.0086 154.849 68.5064 154.072C69.6113 153.348 70.7673 152.67 71.9693 152.039C75.6649 150.416 82.0806 152.093 85.9641 150.745L85.633 149.235C83.217 148.799 82.009 148.759 79.5931 148.357C73.4279 147.364 67.4058 150.094 61.3658 151.476C54.9948 152.925 48.0601 152.925 42.0112 155.004C41.172 155.233 40.445 155.647 39.9263 156.191C39.7034 156.562 39.6189 156.972 39.682 157.376C39.745 157.78 39.9532 158.163 40.2842 158.486Z" fill="black"/>
</g>
<path d="M15.516 97.3238C12.9389 101.55 11.9367 108.834 11.9367 108.834L6.39787 125.208L0 151.201C0.432024 153.507 1.51825 155.716 3.18551 157.681C5.92362 160.874 16.2855 160.082 26.6652 158.613C37.045 157.144 68.6496 150.027 68.6496 150.027L66.2336 137.443L32.4725 137.779C32.4725 137.779 44.9103 117.078 43.1476 109.941C41.3848 102.804 32.5352 88.5633 31.703 88.2481C28.3206 87.0943 18.1019 93.0978 15.516 97.3238Z" fill="#1A32C8"/>
<path d="M49.5186 86.0344C49.5723 86.504 49.6439 87.1278 49.7244 87.9059C49.9213 89.5225 50.2524 91.8702 50.9593 94.7211C51.7837 98.0733 52.9351 101.376 54.4043 104.602C55.2364 106.413 56.1939 108.291 57.3303 110.196C57.5868 110.675 57.8857 111.142 58.2251 111.591C58.6317 111.979 59.2145 112.242 59.8626 112.329L64.0234 113.308L65.4104 113.624L66.0368 113.771L65.482 114.04L60.2921 116.575L60.3726 116.253L74.4658 131.916L78.6267 136.564L79.7094 137.825C79.8512 137.966 79.9685 138.119 80.0584 138.282C79.896 138.16 79.752 138.025 79.6289 137.879L78.4477 136.658L74.1974 132.084L59.961 116.488L59.791 116.293L60.0505 116.166L65.2314 113.63L65.312 114.033L63.925 113.718L59.7642 112.745C58.9947 112.621 58.3094 112.295 57.8314 111.826C57.4695 111.353 57.1496 110.862 56.8739 110.357C55.7465 108.432 54.7801 106.54 53.9569 104.709C52.509 101.462 51.3962 98.1362 50.6282 94.7613C50.1125 92.4971 49.769 90.2128 49.5992 87.9193C49.5007 87.0741 49.5007 86.4704 49.5007 86.0344C49.4633 85.8117 49.4633 85.5864 49.5007 85.3636C49.5254 85.5867 49.5313 85.8108 49.5186 86.0344Z" fill="#0071F2"/>
<path opacity="0.2" d="M49.5186 86.0344C49.5723 86.504 49.6439 87.1278 49.7244 87.9059C49.9213 89.5225 50.2524 91.8702 50.9593 94.7211C51.7837 98.0733 52.9351 101.376 54.4043 104.602C55.2364 106.413 56.1939 108.291 57.3303 110.196C57.5868 110.675 57.8857 111.142 58.2251 111.591C58.6317 111.979 59.2145 112.242 59.8626 112.329L64.0234 113.308L65.4104 113.624L66.0368 113.771L65.482 114.04L60.2921 116.575L60.3726 116.253L74.4658 131.916L78.6267 136.564L79.7094 137.825C79.8512 137.966 79.9685 138.119 80.0584 138.282C79.896 138.16 79.752 138.025 79.6289 137.879L78.4477 136.658L74.1974 132.084L59.961 116.488L59.791 116.293L60.0505 116.166L65.2314 113.63L65.312 114.033L63.925 113.718L59.7642 112.745C58.9947 112.621 58.3094 112.295 57.8314 111.826C57.4695 111.353 57.1496 110.862 56.8739 110.357C55.7465 108.432 54.7801 106.54 53.9569 104.709C52.509 101.462 51.3962 98.1362 50.6282 94.7613C50.1125 92.4971 49.769 90.2128 49.5992 87.9193C49.5007 87.0741 49.5007 86.4704 49.5007 86.0344C49.4633 85.8117 49.4633 85.5864 49.5007 85.3636C49.5254 85.5867 49.5313 85.8108 49.5186 86.0344Z" fill="white"/>
<path opacity="0.2" d="M30.8082 88.5096C31.4771 88.526 32.1383 88.6211 32.7678 88.7914C35.0433 89.4757 36.981 90.6706 38.3156 92.2123C39.272 93.2487 40.0874 94.3543 40.7495 95.5126C41.5358 96.8303 42.185 98.1915 42.6912 99.5842C43.8938 102.769 44.4133 106.077 44.2303 109.384C44.1332 111.099 43.782 112.799 43.1834 114.455C42.6017 116.045 42.038 117.575 41.5101 119.037C40.4095 121.948 39.3715 124.571 38.423 126.744C37.4745 128.918 36.6334 130.668 35.9802 131.856C35.6312 132.439 35.3807 132.895 35.148 133.197C35.0578 133.353 34.9405 133.5 34.799 133.633C34.8623 133.47 34.9431 133.31 35.0406 133.157C35.2285 132.835 35.4522 132.385 35.7565 131.815C36.347 130.615 37.1345 128.85 38.0114 126.664C38.8883 124.477 39.9979 121.888 40.9642 118.95C41.9306 116.012 43.4787 112.852 43.6487 109.384C43.811 106.123 43.2978 102.862 42.1275 99.7184C41.6348 98.3464 41.0159 97.0016 40.2752 95.6937C39.6396 94.5507 38.8575 93.4567 37.9398 92.427C36.6674 90.8994 34.8039 89.699 32.5978 88.9859C31.7756 88.7643 30.9183 88.6245 30.0476 88.57C30.294 88.5149 30.5519 88.4944 30.8082 88.5096Z" fill="black"/>
<path opacity="0.2" d="M26.5668 136.444C28.8209 136.706 31.0159 137.201 33.0899 137.913C33.0362 138.02 30.1102 137.423 26.4415 136.873C22.7728 136.323 19.7752 136.061 19.7752 135.927C22.0604 135.853 24.3479 136.027 26.5668 136.444Z" fill="black"/>
<path d="M154.005 146.21L104.791 188.308C104.791 188.308 66.9226 159.257 68.6585 159.418C69.437 159.478 118.034 120.653 118.034 120.653L154.005 146.21Z" fill="#2F2E41"/>
<path opacity="0.2" d="M154.005 146.21L104.791 188.308C104.791 188.308 66.9226 159.257 68.6585 159.418C69.437 159.478 118.034 120.653 118.034 120.653L154.005 146.21Z" fill="black"/>
<path d="M66.7078 138.966L68.9806 149.873L74.6179 148.9C74.6179 148.9 87.8521 149.685 90.5813 149.162C93.3104 148.638 99.9231 148.015 99.9231 148.015C99.6914 148.648 99.761 149.321 100.12 149.92C100.359 150.245 100.682 150.532 101.071 150.762C101.46 150.992 101.906 151.162 102.384 151.261L104.657 147.693C105.73 149.115 107.341 147.793 107.341 147.793L108.907 144.674C110.133 146.492 112.271 144.808 112.271 144.808L112.728 140.643C113.526 141.23 114.468 141.697 115.502 142.018C116.781 142.32 116.889 140.676 116.889 140.676L111.09 134.894L97.9187 133.385L78.3135 139.16L66.7078 138.966Z" fill="#94431A"/>
<path d="M103.01 134.834C103.891 134.971 104.759 135.154 105.605 135.384C106.643 135.632 107.672 135.914 108.674 136.236C109.693 136.564 110.662 136.973 111.564 137.456C112.018 137.679 112.339 138.026 112.459 138.422C112.544 138.732 112.595 139.046 112.611 139.361C112.764 139.976 112.736 140.607 112.531 141.213C112.459 141.213 112.415 140.542 112.182 139.402C112.11 139.133 112.057 138.811 111.958 138.516C111.91 138.366 111.82 138.224 111.696 138.101C111.571 137.977 111.414 137.874 111.233 137.799C110.355 137.356 109.427 136.973 108.46 136.651C107.422 136.309 106.393 136.028 105.444 135.779C104.496 135.531 103.654 135.29 102.965 135.156C102.186 135.017 101.382 134.979 100.585 135.042C100.949 134.885 101.352 134.786 101.769 134.75C102.186 134.715 102.608 134.743 103.01 134.834Z" fill="#94431A"/>
<path d="M101.561 138.369C102.939 138.664 104.88 138.926 106.983 139.482C107.545 139.593 108.066 139.8 108.504 140.086C108.808 140.403 109.038 140.757 109.184 141.132C109.54 141.739 109.679 142.405 109.587 143.064C109.469 143.486 109.292 143.898 109.059 144.292C108.995 144.443 108.911 144.589 108.808 144.728C108.774 144.57 108.774 144.409 108.808 144.252C108.971 143.852 109.079 143.44 109.131 143.024C109.056 142.076 108.678 141.156 108.03 140.341C107.653 140.111 107.213 139.946 106.741 139.858C104.719 139.321 102.804 139.006 101.373 138.63C100.611 138.481 99.8983 138.216 99.2788 137.852C100.052 137.993 100.813 138.165 101.561 138.369Z" fill="#94431A"/>
<path d="M105.122 146.76C105.331 146.364 105.387 145.932 105.283 145.513C105.195 145.275 105.032 145.056 104.808 144.875C104.583 144.694 104.304 144.556 103.994 144.473C103.317 144.286 102.604 144.184 101.883 144.171L100.039 144.044C99.5114 144.003 99.064 143.93 98.8045 143.93H98.384C98.384 143.93 98.4556 143.708 98.7866 143.708C99.2068 143.688 99.6282 143.688 100.048 143.708H101.91C102.707 143.709 103.497 143.816 104.245 144.024C104.641 144.138 104.994 144.324 105.272 144.565C105.55 144.806 105.744 145.095 105.838 145.405C105.945 145.909 105.829 146.425 105.507 146.874C105.244 147.269 104.882 147.622 104.442 147.914C104.62 147.515 104.848 147.128 105.122 146.76Z" fill="#94431A"/>
<path d="M43.577 60.5379C45.0087 67.5476 50.4223 69.4324 58.404 73.2291L107.762 57.62C111.681 54.6551 113.658 43.225 109.399 34.4109C107.314 30.0106 105.525 25.2145 100.379 22.5582C96.4549 20.4247 91.9466 18.972 87.181 18.3055C78.0182 17.42 69.6249 18.0707 61.8848 21.8606C53.1962 26.1201 50.2523 33.881 47.2994 41.3535C45.5009 45.9886 42.6196 55.7887 43.577 60.5379Z" fill="#343A40"/>
<path d="M56.7575 33.1098L55.9075 91.394C72.1214 97.1493 85.3019 98.8665 89.9817 89.2207L90.4649 81.1176C90.8228 77.5289 90.8228 77.3545 90.8228 77.3545C90.8228 77.3545 103.35 76.2075 106.67 64.1871C108.343 58.2238 108.522 48.3499 108.343 40.2536C108.191 32.9756 102.348 23.8396 92.6303 24.2689L62.1264 28.9174C60.6919 28.9813 59.3423 29.4485 58.3471 30.2257C57.3519 31.0028 56.7843 32.0327 56.7575 33.1098Z" fill="#94431A"/>
<path d="M90.5544 80.3596C74.3405 80.9231 69.5265 72.2633 69.5265 72.2633C75.8732 75.4052 83.257 77.1675 90.8587 77.3545L90.5544 80.3596Z" fill="#94431A"/>
<path d="M92.9257 22.3906C85.2132 20.5669 76.9928 20.3122 69.1059 21.6528C63.5492 22.612 57.8045 24.6377 55.2185 28.4679C51.5051 33.9952 55.7196 40.864 53.4289 46.8071C54.3929 47.4046 55.586 47.7561 56.8348 47.8104C58.0836 47.8647 59.3229 47.6189 60.3726 47.1089C62.4368 46.0453 63.9848 44.5083 64.784 42.7287L64.1934 45.1972C69.088 45.8277 74.0989 44.0502 77.6603 41.4408C81.2216 38.8315 83.557 35.4642 85.8477 32.1572C85.3383 35.5377 83.4296 38.7138 80.3894 41.2396C81.2832 41.4026 82.2155 41.4068 83.1119 41.2519C84.0083 41.097 84.844 40.7873 85.5524 40.3475C86.9558 39.455 88.093 38.3511 88.8901 37.1076C92.0053 32.7448 93.4456 27.8199 93.0509 22.8803" fill="#343A40"/>
<path d="M92.3445 23.2493V22.981C92.3445 23.0346 92.3345 23.1285 92.3445 23.2493Z" fill="#263238"/>
<path d="M89.1138 41.6555C90.2916 41.5667 91.4809 41.6767 92.5946 41.9775C93.1538 42.1232 93.7501 42.1712 94.3379 42.1178C94.9257 42.0643 95.4894 41.9107 95.9859 41.6689C96.539 41.2408 96.9177 40.7032 97.0775 40.1194C98.6604 36.1529 99.3232 32.0122 99.0372 27.8776C100.315 30.1446 101.286 32.5019 101.936 34.9141C102.601 37.3477 102.337 39.8724 101.176 42.1988C101.297 42.3011 101.443 42.3845 101.607 42.4443C101.771 42.504 101.949 42.5389 102.131 42.547C102.313 42.5551 102.496 42.5363 102.668 42.4915C102.84 42.4467 102.999 42.3769 103.135 42.286C103.698 41.9031 104.068 41.3868 104.182 40.8237C104.702 38.7977 104.763 36.7205 104.361 34.6794C105.721 36.9198 105.981 39.4486 106.598 41.8634C107.216 44.2783 108.343 46.7937 110.929 48.3164C111.743 45.2617 111.966 42.1351 111.591 39.0327C111.145 36.4211 110.212 33.8695 108.817 31.4529C107.554 28.7688 105.606 26.2946 103.082 24.1682C98.6703 20.7472 96.5317 21.9613 93.3641 22.9541L92.353 23.2023C93.5341 29.4597 92.4142 35.8402 89.1138 41.6555Z" fill="#343A40"/>
<path d="M77.3919 103.414C72.6315 105.776 67.719 106.909 63.0123 108.264C58.6702 106.015 55.1009 103.027 52.5968 99.5441C53.1963 101.556 53.9211 103.508 54.7622 105.447L53.3753 106.312C47.9901 98.3546 45.555 89.4587 46.3242 80.5542L56.5876 39.4756L70.7166 38.9121C73.4637 46.8676 64.9719 55.0109 66.9405 63.1072C67.7637 66.4611 70.3139 69.493 70.4571 72.8738C70.5734 76.0801 68.5243 79.1389 68.6049 82.3251C68.757 86.1016 71.7546 89.4086 74.3137 92.6686C76.8729 95.9286 79.0473 99.866 77.3919 103.414Z" fill="#343A40"/>
</svg>
