<svg width="500" height="550" viewBox="0 0 500 550" fill="none" xmlns="http://www.w3.org/2000/svg">
<path d="M88.6735 205.578C88.6735 205.578 96.3662 198.426 92.3004 177.454L110.712 184.195L107.715 191.766V199.997C107.715 199.997 107.819 202.413 108.431 203.058L112.716 229.386L108.217 235.894L87.9689 228.573C87.9689 228.573 87.5531 222.999 88.3848 220.438C89.2164 217.877 88.6735 205.578 88.6735 205.578Z" fill="#94431A"/>
<path d="M135.782 487.944L113.034 383.202H118.399L135.782 487.944Z" fill="#939598"/>
<path d="M66.0403 379.013L53.3809 514.578L72.6934 379.013H66.0403Z" fill="#939598"/>
<path d="M113.039 343.101V388.284L110.371 388.074L68.899 384.74C70.1869 384.869 73.5192 385.183 73.7906 385.231C73.6289 385.231 71.9483 385.102 67.2819 384.7C53.2884 383.508 54.2356 337.986 54.2356 337.986C53.9795 326.477 52.085 315.154 48.6624 304.675C43.7246 285.732 44.7988 266.886 44.7988 266.886C43.6437 246.308 57.5044 240.436 64.0189 238.817C64.0419 238.821 64.0652 238.821 64.0882 238.817C65.1446 238.546 66.2107 238.355 67.2819 238.246L70.9781 248.523L113.039 343.101Z" fill="#939598"/>
<path d="M110.371 388.074L68.899 384.74C70.1869 384.869 73.5192 385.183 73.7906 385.231C73.6289 385.231 71.9483 385.102 67.2819 384.7C53.2884 383.508 54.2356 337.986 54.2356 337.986C53.9795 326.477 52.085 315.154 48.6624 304.675C43.7246 285.732 44.7988 266.886 44.7988 266.886C43.6437 246.308 57.5044 240.436 64.0189 238.817C58.2436 240.597 47.5189 247.677 54.455 276.035L62.1766 299.045C62.1766 299.045 65.8208 309.854 66.0402 327.814C66.0402 327.814 68.2233 366.111 106.623 369.405L110.371 375.687V388.074Z" fill="#939598"/>
<path d="M273.373 360.763L293.384 501.064L281.215 359.426C281.215 359.426 279.39 361.528 273.373 360.763Z" fill="#939598"/>
<path d="M223.509 363.928L205.091 496.199L219.235 364.202L223.509 363.928Z" fill="#BCBEC0"/>
<path d="M277.15 200.15C277.15 200.15 302.411 198.386 304.218 230.755L292.056 320.549C292.056 320.549 294.048 364.138 273.373 360.755L219.235 364.194L214.263 366.24L203.786 347.2L213.31 317.98L277.15 200.15Z" fill="#939598"/>
<path d="M273.372 360.763C271.559 364.629 269.567 365.265 269.567 365.265C270.462 397.795 258.807 476.862 258.807 476.862C254.077 484.779 243.214 475.106 243.214 475.106C243.214 475.106 244.629 416.191 244.161 392.439C243.693 368.688 244.161 344.309 244.161 344.309L217.832 362.769C226.824 368.922 226.98 419.702 226.98 419.702L227.118 422.553L229.971 479.487L212.311 484.32L194.332 397.28C188.343 375.961 189.29 364.959 189.29 364.959C185.663 338.808 205.363 320.549 205.363 320.549H274.233C277.952 344.277 275.827 355.504 273.372 360.763Z" fill="#343A40"/>
<path opacity="0.2" d="M273.373 360.763L268.908 342.344C266.46 331.181 258.38 334.29 258.38 334.29C248.077 331.503 244.15 344.309 244.15 344.309L217.82 362.769C226.812 368.922 226.968 419.702 226.968 419.702L227.107 422.553C224.41 406.735 218.034 383.234 218.034 383.234C210.763 377.733 213.581 372.393 213.581 372.393C213.367 365.265 208.256 363.413 208.256 363.413C197.37 358.46 218.034 345.444 218.034 345.444C236.024 333.363 239.166 320.557 239.166 320.557H274.233C277.952 344.277 275.827 355.504 273.373 360.763Z" fill="black"/>
<path d="M289.514 281.23C286.015 287.504 270.346 284.717 270.346 284.717C270.185 292.151 267.69 304.707 267.69 304.707H218.022L219.911 302.565C220.086 302.366 220.229 302.116 220.331 301.834C220.432 301.551 220.489 301.242 220.497 300.927C220.506 300.611 220.467 300.297 220.381 300.004C220.296 299.712 220.167 299.448 220.003 299.23C216.261 294.326 216.573 284.556 216.573 284.556C216.463 273.095 215.244 270.156 215.244 270.156C212.599 272.735 209.855 275.115 207.026 277.283C190.376 287.971 172.103 221.976 172.103 221.976L173.72 219.665L181.615 208.389C181.812 208.101 182.079 207.926 182.364 207.896C182.649 207.866 182.931 207.985 183.157 208.228C187.777 213.061 198.848 234.533 198.848 234.533L206.703 207.149C207.64 201.013 210.116 195.545 213.685 191.726C221.557 183.124 232.743 183.349 232.743 183.349L250.837 186.048L268.683 191.291C269.156 191.369 269.622 191.512 270.075 191.718C272.048 192.719 273.798 194.424 275.151 196.663C281.903 206.899 286.015 228.009 286.015 228.009C293.349 259.387 289.514 281.23 289.514 281.23Z" fill="#09176B"/>
<path d="M235.158 163.367V177.607C235.158 177.607 232.426 181.264 232.767 183.358L241.36 194.947H244.872C246.248 194.118 247.488 192.904 248.515 191.38C249.542 189.856 250.335 188.055 250.843 186.088V177.639L235.562 162.844L235.158 163.367Z" fill="#94431A"/>
<path d="M232.998 181.578C232.998 181.578 228.452 182.383 228.689 187.401L230.162 202.421L239.853 192.918L232.743 183.349C232.743 183.349 232.351 183.092 232.998 181.578Z" fill="#0071F2"/>
<path d="M246.743 193.489L255.406 202.421L254.17 187.03C254.17 187.03 253.165 183.704 250.849 186.056C250.085 189.082 248.646 191.687 246.743 193.489Z" fill="#0071F2"/>
<g opacity="0.4">
<path d="M232.998 181.578C232.998 181.578 228.452 182.383 228.689 187.401L230.162 202.421L239.853 192.918L232.743 183.349C232.743 183.349 232.351 183.092 232.998 181.578Z" fill="white"/>
<path d="M246.743 193.489L255.406 202.421L254.17 187.03C254.17 187.03 253.165 183.704 250.849 186.055C250.085 189.082 248.646 191.687 246.743 193.489Z" fill="white"/>
</g>
<path d="M236.469 196.236L239.171 204.362L239.154 250.504L246.096 251.076L244.363 204.016L246.743 197.919L245.438 194.947H244.86H241.36L239.853 192.918L236.469 196.236Z" fill="#2F2E41"/>
<path opacity="0.2" d="M243.716 194.947C243.716 194.947 245.362 196.196 244.704 199.53C244.704 199.53 243.878 204.129 239.183 204.362V206.086C239.183 206.086 242.232 204.362 242.481 218.731L243.537 250.866L246.107 251.076L244.375 204.016L246.754 197.919L245.449 194.947H243.716Z" fill="black"/>
<path opacity="0.2" d="M207.026 211.925C202.55 225.754 203.804 233.896 203.804 233.896C205.467 240.533 203.804 244.02 203.804 244.02C201.938 241.282 200.783 240.718 200.783 240.718C200.961 245.127 200.732 249.55 200.102 253.878C197.52 234.653 187.2 223.007 187.2 223.007C185.444 220.661 183.229 219.091 180.834 218.496C178.44 217.902 175.972 218.308 173.743 219.665L181.638 208.389C181.835 208.101 182.102 207.926 182.387 207.896C182.672 207.866 182.954 207.985 183.18 208.228C187.8 213.061 198.872 234.533 198.872 234.533L206.726 207.149C207.658 201.018 210.125 195.55 213.685 191.726C209.764 198.032 207.026 211.925 207.026 211.925Z" fill="#1A32C8"/>
<path d="M248.175 178.098C255.655 178.098 261.718 167.396 261.718 154.194C261.718 140.992 255.655 130.29 248.175 130.29C240.695 130.29 234.632 140.992 234.632 154.194C234.632 167.396 240.695 178.098 248.175 178.098Z" fill="#94431A"/>
<path d="M234.711 163.772C236.349 162.693 236.807 159.252 235.734 156.087C234.661 152.922 232.464 151.232 230.826 152.311C229.188 153.391 228.73 156.832 229.803 159.997C230.876 163.162 233.073 164.852 234.711 163.772Z" fill="#94431A"/>
<path d="M265.501 136.999C265.501 139.922 264.236 143.12 261.008 146.526L260.43 144.11C260.43 144.11 251.496 143.7 247.332 141.138C247.242 141.805 247.27 142.492 247.413 143.14C247.556 143.788 247.809 144.378 248.152 144.859C246.632 144.619 245.166 143.93 243.851 142.839C242.537 141.747 241.404 140.278 240.529 138.529C238.882 141.909 237.052 145.108 235.054 148.097C234.749 149.981 234.6 151.908 234.609 153.84C234.609 153.84 232.414 150.98 230.797 152.293C230.497 152.455 230.227 152.71 230.007 153.04C229.788 153.369 229.626 153.764 229.532 154.194C229.532 154.194 217.006 134.607 233.506 128.8C233.506 128.8 231.646 115.559 248.152 119.038C248.152 119.038 262.538 124.958 265.091 134.212C265.351 135.097 265.49 136.042 265.501 136.999Z" fill="#343A40"/>
<path d="M239.425 140.752C239.425 140.752 244.358 148.5 250.167 147.799C250.167 147.799 248.862 146.261 249.48 144.296C253.186 146.1 257.113 146.858 261.031 146.527C261.031 146.527 260.678 144.827 260.453 144.11C260.453 144.11 251.854 143.772 247.355 141.138C247.271 142.48 247.565 143.815 248.175 144.859C248.175 144.859 243.878 144.94 240.523 138.585L239.425 140.752Z" fill="#94431A"/>
<path opacity="0.2" d="M265.501 134.639V136.999C265.501 139.922 264.236 143.12 261.008 146.527L260.43 144.11C260.43 144.11 251.496 143.7 247.332 141.138C247.242 141.805 247.27 142.492 247.413 143.14C247.556 143.788 247.809 144.378 248.152 144.859C246.632 144.619 245.166 143.93 243.851 142.839C242.537 141.747 241.404 140.278 240.529 138.529C238.882 141.909 237.052 145.108 235.054 148.097C234.749 149.981 234.6 151.908 234.609 153.84C234.609 153.84 232.414 150.98 230.797 152.293C230.497 152.455 230.227 152.71 230.007 153.04C229.788 153.369 229.626 153.764 229.532 154.194C229.532 154.194 224.589 138.569 237.837 131.683C237.837 131.683 233.841 126.11 242.215 124.273C242.215 124.273 239.957 126.11 240.84 128.985C240.84 128.985 253.355 121.229 265.097 134.212C265.247 134.349 265.368 134.502 265.501 134.639Z" fill="#343A40"/>
<path d="M240.829 174.256C240.829 174.256 241.216 183.784 250.843 184.429V177.639C249.102 178.252 247.281 178.264 245.536 177.675C243.791 177.085 242.176 175.912 240.829 174.256Z" fill="#94431A"/>
<path d="M347.417 315.765L368.312 516.31C368.398 517.135 368.694 517.889 369.146 518.435C369.597 518.98 370.175 519.281 370.773 519.282C371.12 519.282 371.463 519.181 371.78 518.985C372.098 518.788 372.382 518.501 372.615 518.142C372.848 517.784 373.024 517.36 373.133 516.901C373.241 516.441 373.279 515.954 373.244 515.473L359.667 326.671L359.026 317.811L347.417 315.765Z" fill="#D1D3D4"/>
<path opacity="0.2" d="M347.417 315.765L368.312 516.31C368.398 517.135 368.694 517.889 369.146 518.435C369.597 518.98 370.175 519.281 370.772 519.282H371.038L352.979 326.671H359.667L359.026 317.811L347.417 315.765Z" fill="black"/>
<path d="M356.121 518.066C356.121 518.066 347.943 519.314 346.99 512.283L377.651 502.618L382.693 508.514C382.693 508.514 385.28 516.479 376.149 518.098L356.121 518.066Z" fill="#E6E7E8"/>
<path d="M290.005 514.015C290.005 514.015 287.302 518.847 297.161 520.74L334.925 522.455C334.925 522.455 341.215 523.188 339.546 512.404L331.264 506.202C331.264 506.202 304.282 508.554 303.976 509.198C303.67 509.843 290.005 514.015 290.005 514.015Z" fill="#E6E7E8"/>
<path d="M322.982 490.731C322.982 490.731 319.286 500.001 308.249 502.997C308.249 502.997 287.701 504.511 290.005 514.015C290.005 514.015 292.61 521.167 317.6 516.431C317.6 516.431 336.768 510.664 339.546 512.404L339.921 501.499L329.866 488.878L322.982 490.731Z" fill="#09176B"/>
<path opacity="0.2" d="M278.01 253.113C277.513 262.174 265.021 257.986 265.021 257.986C255.204 253.347 238.022 254.764 238.022 254.764C239.027 260.571 235.712 267.772 235.712 267.772L228.701 263.108C228.701 263.108 232.784 257.76 231.334 249.859L257.935 252.09C260.053 252.301 262.168 251.637 264.017 250.182C265.112 249.308 266.072 248.138 266.841 246.743C267.75 245.023 268.342 243.018 268.565 240.904C268.787 238.79 268.634 236.633 268.117 234.621C265.917 225.673 261.123 201.648 270.075 191.758C272.048 192.759 273.798 194.464 275.151 196.703C263.283 218.094 276.849 245.945 276.849 245.945L278.01 253.113Z" fill="#09176B"/>
<path d="M266.015 246.066L281.845 304.707H357.333V301.792L343.681 298.876L329.491 246.066H266.015Z" fill="#0071F2"/>
<path d="M266.015 246.066L281.845 304.707H357.333V301.792L343.681 298.876L329.491 246.066H266.015Z" fill="black"/>
<path opacity="0.52" d="M272.033 251.076L284.091 293.303H336.41L325.766 251.076H272.033Z" fill="white"/>
<path opacity="0.45" d="M281.215 283.235L300.759 251.076H305.552L282.994 289.461L281.215 283.235Z" fill="white"/>
<path opacity="0.45" d="M297.571 293.303L317.432 251.076H325.766L326.696 254.772L308.209 293.303H297.571Z" fill="white"/>
<path d="M333.851 297.306L329.676 300.841C328.868 301.536 327.969 301.999 327.031 302.202C314.596 304.707 303.929 285.337 303.929 285.337L278.039 243.456C274.464 238.471 276.688 237.094 276.688 237.094C274.712 233.131 277.178 232.261 277.178 232.261C274.712 229.346 275.446 229 275.446 229C275.082 224.876 286.944 232.076 286.944 232.076C286.487 231.447 286.15 230.67 285.964 229.813C285.777 228.956 285.747 228.048 285.876 227.171C288.314 230.232 290.628 233.48 292.806 236.901C295.272 241.032 294.412 247.218 294.412 247.218C294.909 251.68 324.772 274.867 324.772 274.867L330.276 288.986L333.851 297.306Z" fill="#94431A"/>
<path d="M324.253 286.489L311.224 263.97L324.767 274.899L326.696 286.489H324.253Z" fill="#94431A"/>
<path d="M330.374 265.436C330.374 265.436 323.017 270.993 323.941 284.29C323.941 284.29 324.351 295.308 334.504 297.306C334.504 297.306 340.539 297.596 342.341 293.52L334.608 284.862L331.836 271.976L330.374 265.436Z" fill="#0071F2"/>
<path opacity="0.4" d="M330.374 265.436C330.374 265.436 323.017 270.993 323.941 284.29C323.941 284.29 324.351 295.308 334.504 297.306C334.504 297.306 340.539 297.596 342.341 293.52L334.608 284.862L331.836 271.976L330.374 265.436Z" fill="white"/>
<path d="M239.171 271.162V294.277L241.603 295.308L241.066 271.162H239.171Z" fill="#2F2E41"/>
<path d="M258.38 269.672V296.806C258.38 297.078 258.341 297.346 258.267 297.597C258.192 297.848 258.083 298.075 257.945 298.267C257.807 298.459 257.643 298.61 257.463 298.713C257.283 298.817 257.09 298.869 256.896 298.868H241.476C241.083 298.868 240.706 298.651 240.428 298.265C240.15 297.878 239.993 297.354 239.991 296.806V269.672H258.38Z" fill="#D1D3D4"/>
<path d="M265.714 279.555C264.479 274.038 258.38 274.956 258.38 274.956V279.216C258.38 279.216 263.901 278.87 263.162 284.274C263.162 284.274 262.417 288.76 258.38 291.627V295.767C268.273 290.363 265.714 279.555 265.714 279.555Z" fill="#D1D3D4"/>
<path d="M233.922 298.876H264.75L262.197 304.707H236.757L233.922 298.876Z" fill="#D1D3D4"/>
<path opacity="0.2" d="M258.38 294.358V296.774C258.38 297.045 258.341 297.314 258.267 297.565C258.192 297.816 258.083 298.043 257.945 298.235C257.807 298.426 257.643 298.578 257.463 298.681C257.283 298.784 257.09 298.837 256.896 298.836H241.476C241.083 298.836 240.706 298.619 240.428 298.232C240.15 297.846 239.993 297.322 239.991 296.774V269.672H241.146C241.146 269.672 243.861 293.077 258.38 294.358Z" fill="black"/>
<path opacity="0.2" d="M218.045 295.308C218.045 295.308 222.198 301.051 235.868 302.879L236.757 304.707H218.034L219.888 302.605C220.067 302.401 220.212 302.145 220.314 301.855C220.415 301.565 220.47 301.247 220.474 300.925C220.478 300.602 220.432 300.282 220.339 299.986C220.246 299.691 220.108 299.428 219.934 299.214C219.074 298.16 218.424 296.815 218.045 295.308Z" fill="black"/>
<path d="M229.671 498.261C209.573 510.012 187.847 501.483 187.847 501.483C186.351 487.275 200.471 492.623 206.039 490.876C211.606 489.128 212.299 484.328 212.299 484.328L229.047 479.753L229.671 498.261Z" fill="#09176B"/>
<path d="M229.671 498.261V499.968C224.375 511.526 195.724 507.732 195.724 507.732C187.979 506.79 187.847 501.483 187.847 501.483C187.847 501.483 209.573 510.012 229.671 498.261Z" fill="#E6E7E8"/>
<path d="M257.514 478.464V504.479C249.093 510.68 244.075 504.479 244.075 504.479C237.006 498.559 230.89 503.295 230.89 503.295C228.58 498.462 239.587 490.876 239.587 490.876C243.116 486.72 244.739 476.314 244.739 476.314C253.696 482.975 257.514 478.464 257.514 478.464Z" fill="#09176B"/>
<path d="M257.514 504.479C257.514 505.379 257.352 506.265 257.042 507.055C256.732 507.844 256.285 508.512 255.741 508.997C253.491 511.023 251.017 512.514 248.418 513.411C233.344 517.011 230.89 503.295 230.89 503.295C230.89 503.295 237.006 498.559 244.075 504.479C244.075 504.479 249.093 510.68 257.514 504.479Z" fill="#E6E7E8"/>
<path d="M359.049 176.423C359.049 176.423 362.745 178.477 364.246 181.578C364.246 181.578 371.177 172.638 385.938 172.299L380.515 162.844L370.166 154.194L359.049 176.423Z" fill="#94431A"/>
<path d="M369.213 159.236C369.213 159.236 369.294 171.913 383.75 168.522L380.492 162.844L369.213 159.236Z" fill="#94431A"/>
<path d="M359.049 176.423C359.049 176.423 364.114 170.833 367.134 176.423L367.989 178.098C366.648 179.089 365.378 180.254 364.194 181.577C364.194 181.577 362.774 178.42 359.049 176.423Z" fill="#94431A"/>
<path d="M397.015 183.752C386.539 178.283 379.528 179.572 379.528 179.572C379.528 179.572 371.76 180.845 360.637 189.873C360.556 189.068 360.521 185.846 364.223 181.569C364.223 181.569 368.127 176.181 377.911 173.419C377.911 173.419 388.832 169.545 393.325 176.552L397.015 183.752Z" fill="#0071F2"/>
<path opacity="0.4" d="M397.015 183.752C386.539 178.283 379.528 179.572 379.528 179.572C379.528 179.572 371.76 180.845 360.637 189.873C360.556 189.068 360.521 185.846 364.223 181.569C364.223 181.569 368.127 176.181 377.911 173.419C377.911 173.419 388.832 169.545 393.325 176.552L397.015 183.752Z" fill="white"/>
<path d="M417.136 213.963L417.038 217.329L416.905 221.574L414.197 311.36L390.351 336.448L389.773 337.068H384.881L367.105 334.282C367.105 334.282 360.752 335.892 359.875 320.549C359.805 319.438 359.776 318.23 359.776 316.933C359.776 316.933 359.516 311.682 358.991 304.699C358.067 292.36 356.334 274.642 353.77 271.082C353.77 271.082 346.441 293.391 341.105 294.012C341.105 294.012 329.052 289.509 330.374 265.436C330.418 264.699 330.561 263.98 330.796 263.318L331.171 262.214C332.69 257.575 336.254 244.922 338.177 223.515C339.661 207.02 350.634 199.353 350.634 199.353C353.805 195.863 357.147 192.687 360.637 189.849C371.76 180.845 379.528 179.604 379.528 179.604C379.528 179.604 386.539 178.316 397.015 183.784C399.472 185.068 401.866 186.575 404.182 188.295C404.182 188.295 416.888 191.903 417.136 213.963Z" fill="#09176B"/>
<path opacity="0.2" d="M417.136 220.575L416.9 221.574L390.333 336.456L389.756 337.076H384.864L367.088 334.29C367.088 334.29 359.753 336.15 359.753 316.933C359.753 316.933 357.755 276.663 353.759 271.09C353.759 271.09 346.43 293.391 341.093 294.012C341.093 294.012 329.04 289.509 330.363 265.436C330.404 264.701 330.548 263.985 330.785 263.326C330.883 263.036 331.01 262.665 331.154 262.222C331.154 262.222 333.528 288.76 336.537 278.701C336.537 278.701 341.734 300.334 348.44 278.193C352.682 267.355 355.072 255.296 355.422 242.957L356.265 263.898C357.157 264.016 358.04 264.242 358.904 264.574C358.904 264.574 357.102 271.283 358.904 271.444C358.904 271.444 360.712 270.776 361.676 278.491C361.676 278.491 367.088 321.274 377.553 317.247C377.553 317.247 380.44 311.883 379.239 284.371L380.475 239.607C380.475 239.607 378.425 221.252 397.281 219.158L417.021 217.305L417.136 220.575Z" fill="black"/>
<path d="M285.657 233.333C282.502 230.906 279.014 229.443 275.423 229.04C275.059 224.916 286.921 232.116 286.921 232.116C286.464 231.488 286.127 230.71 285.941 229.853C285.754 228.997 285.724 228.089 285.853 227.212C286.43 229.805 288.244 233.333 288.244 233.333C288.613 235.402 285.657 233.333 285.657 233.333Z" fill="#94431A"/>
<path d="M277.15 232.302C278.698 233.228 279.998 234.809 280.869 236.82C279.321 235.893 278.02 234.313 277.15 232.302Z" fill="#94431A"/>
<path d="M276.636 237.118C277.349 237.316 278.027 237.713 278.628 238.286C279.246 238.822 279.779 239.529 280.193 240.364C279.48 240.162 278.803 239.765 278.201 239.196C277.588 238.651 277.056 237.945 276.636 237.118Z" fill="#94431A"/>
<path d="M384.905 377.733L381.694 476.314C381.959 493.839 377.651 491.778 377.651 491.778L366.678 492.116C364.264 451.475 353.285 376.597 353.285 376.597C346.355 376.122 342.179 376.742 339.655 377.62C336.317 378.764 335.884 380.342 335.884 380.342C338.021 385.175 338.558 391.537 338.558 391.537L339.892 501.499C326.771 503.11 321.948 488.298 321.948 488.298L321.105 484.328L300.256 387.808C293.291 360.167 300.256 350.824 300.256 350.824C305.616 338.123 360.261 324.576 360.261 324.576C361.567 334.934 367.099 334.241 367.099 334.241L387.59 337.028L384.905 377.733Z" fill="#343A40"/>
<path opacity="0.2" d="M339.898 501.499C326.776 503.11 321.954 488.298 321.954 488.298L321.105 484.328C321.105 484.328 335.237 488.024 333.707 462.372L330.276 394.372C330.276 394.372 326.089 389.677 330.276 384.756C330.276 384.756 314.845 381.76 319.604 377.507C319.604 377.507 320.822 377.08 328.648 377.507L339.667 377.644C336.329 378.788 335.896 380.367 335.896 380.367C338.032 385.199 338.57 391.562 338.57 391.562L339.898 501.499Z" fill="black"/>
<path d="M366.689 492.1C366.689 492.1 365.113 491.737 363.224 498.39C363.224 498.39 360.088 505.421 354.365 505.043C354.365 505.043 344.004 506.75 347.007 512.291C347.007 512.291 352.453 515.899 364.859 510.197C364.859 510.197 377.53 504.116 382.71 508.49C382.71 508.49 382.352 496.836 379.874 490.497C379.874 490.497 368.266 488.081 368.266 488.886C368.266 489.692 366.689 492.1 366.689 492.1Z" fill="#09176B"/>
<path d="M423.033 383.153L444.113 527.819H445.366L430.547 379.948L423.033 383.153Z" fill="#939598"/>
<path d="M367.302 384.023L353.314 527.819H354.567L374.186 382.573L367.302 384.023Z" fill="#939598"/>
<path d="M106.917 191.888C113.383 191.418 118.235 180.584 117.754 167.689C117.272 154.793 111.64 144.72 105.174 145.189C98.7079 145.659 93.8563 156.493 94.3376 169.389C94.819 182.284 100.451 192.357 106.917 191.888Z" fill="#94431A"/>
<path d="M86.0516 142.556C86.0516 142.556 85.1795 127.809 106.069 135.952C106.069 135.952 115.413 139.254 117.914 158.463C117.914 158.463 117.677 176.922 119.542 184.968C119.75 185.87 120.12 186.683 120.617 187.328C121.713 188.7 122.573 190.399 123.135 192.297C123.373 193.237 123.445 194.243 123.344 195.229C123.244 196.216 122.974 197.154 122.558 197.963C122.142 198.773 121.591 199.431 120.954 199.88C120.316 200.33 119.61 200.558 118.896 200.545C117.907 200.546 116.921 200.419 115.95 200.166C115.95 200.166 114.281 200.166 114.42 203.082H108.437C108.437 203.082 107.651 202.687 107.599 197.259L107.715 191.79C107.715 191.79 114.685 191.17 117.371 175.618C117.983 171.591 118.007 167.434 117.44 163.394C116.873 159.355 115.728 155.516 114.073 152.108C114.073 152.108 107.322 156.892 103.984 151.077C103.984 151.077 103.406 157.093 96.0543 165.437C96.0543 165.437 95.3324 168.224 96.3373 169.69L93.8655 180.208C93.8655 180.208 98.0006 199.78 88.6678 205.603C88.6678 205.603 84.7695 206.408 83.5162 204.048C84.58 203.454 85.4984 202.444 86.1613 201.141C86.1613 201.141 78.7863 204.628 74.7494 199.393C74.7494 199.393 81.1541 199.006 77.9546 188.923C77.9662 188.891 64.7466 144.457 86.0516 142.556Z" fill="#343A40"/>
<path d="M152.964 302.404H141.829C125.41 294.446 126.669 263.6 126.669 263.6C126.525 259.323 125.277 260.692 125.277 260.692C123.325 264.373 123.187 293.48 123.187 293.48L119.565 294.285C116.782 295.453 115.251 304.756 115.251 304.756H81.5006C61.5991 305.134 64.7524 286.554 64.7524 286.554L66.9932 243.231C67.4032 217.813 85.1102 205.377 85.1102 205.377C85.1102 205.377 86.0978 205.997 88.6909 205.611L93.3111 215.276C97.6656 226.648 101.396 231.142 103.418 232.865C104.035 233.423 104.769 233.676 105.502 233.584C106.235 233.492 106.924 233.061 107.461 232.358C111.988 226.076 108.471 203.058 108.471 203.058H114.46C135.892 205.844 141.87 267.868 141.87 267.868C142.291 282.027 156.198 293.875 156.198 293.875C151.572 295.993 152.964 302.404 152.964 302.404Z" fill="#09176B"/>
<path d="M101.766 189.946C103.555 191.437 105.643 192.076 107.715 191.766L107.599 197.235C107.599 197.235 107.599 199.055 107.715 199.997C107.715 199.997 103.141 198.87 101.766 189.946Z" fill="#94431A"/>
<path opacity="0.2" d="M85.9418 282.043V246.606C85.9418 246.606 91.2898 260.297 92.1156 273.506C92.1156 273.506 91.6651 281.173 99.5022 283.485L122.534 293.593L119.565 294.229L90.2329 287.898C90.2329 287.898 84.5847 291.579 83.6029 285.587C83.6029 285.587 81.0444 286.747 80.1377 288.954C80.1377 288.978 80.5882 282.043 85.9418 282.043Z" fill="black"/>
<path opacity="0.2" d="M146.998 302.404H141.829C125.41 294.446 126.669 263.6 126.669 263.6C126.525 259.323 125.277 260.692 125.277 260.692C125.277 260.692 127.945 238.753 122.043 231.432C122.453 231.835 129.216 238.576 128.973 255.07C128.973 255.07 126.883 278.564 136.643 289.429L146.998 302.404Z" fill="black"/>
<path d="M170.29 302.404H152.964C151.809 295.477 156.158 293.875 156.158 293.875C158.26 293.436 160.388 293.29 162.51 293.44C171.601 294.261 170.29 302.404 170.29 302.404Z" fill="#94431A"/>
<path d="M170.29 302.404H169.4C169.793 296.42 162.967 293.609 162.551 293.448C171.601 294.261 170.29 302.404 170.29 302.404Z" fill="#94431A"/>
<path d="M123.187 293.48C133.992 292.852 134.523 304.707 134.523 304.707H115.251C115.251 304.707 116.614 296.234 119.565 294.237L123.187 293.48Z" fill="#94431A"/>
<path d="M162.551 373.561C162.551 384.361 161.881 390.901 161.067 394.856C159.871 400.63 158.393 400.912 158.393 400.912L122.043 404.738C102.759 403.933 106.623 391.852 106.623 391.852V361.536C70.5334 343.753 81.0155 305.617 81.0155 305.617L106.225 312.302L142.701 320.549L155.268 335.578C155.944 336.372 156.529 337.307 157.001 338.349C162.383 350.462 162.551 373.561 162.551 373.561Z" fill="#343A40"/>
<path d="M152.311 501.547C141.13 506.202 129.944 482.685 129.944 482.685V420.33C129.944 418.454 129.557 417.737 129.227 417.471C129.174 417.431 129.114 417.408 129.054 417.404C128.993 417.4 128.932 417.416 128.876 417.451C128.821 417.485 128.771 417.536 128.732 417.601C128.693 417.666 128.665 417.743 128.65 417.826L122.678 445.757L118.555 475.025C118.303 480.731 119.105 486.432 120.883 491.583C122.662 496.734 125.358 501.163 128.713 504.446H128.754C118.318 509.746 106.923 487.13 106.606 486.486V396.716C108.968 405.084 122.026 404.77 122.026 404.77L154.263 401.371C154.263 413.017 146.6 441.963 146.6 441.963L141.898 476.427C140.547 488.419 152.311 501.547 152.311 501.547Z" fill="#94431A"/>
<path d="M106.623 422.553C106.623 422.553 127.223 411.028 130.452 406.381L129.499 417.777C129.499 417.777 129.955 418.381 129.955 420.33C129.955 420.33 152.843 407.372 154.281 401.347L123.995 404.569C123.995 404.569 109.771 405.914 106.623 396.74V422.553Z" fill="#94431A"/>
<path d="M130.14 508.369C115.54 509.98 106.981 493.501 106.981 493.501L106.623 486.51C106.941 487.155 118.335 509.77 128.771 504.471C131.018 504.302 131.59 505.276 131.607 506.226C131.598 506.774 131.442 507.298 131.171 507.694C130.9 508.09 130.532 508.331 130.14 508.369Z" fill="#343A40"/>
<path d="M153.357 504.688C138.757 506.299 130.198 489.829 130.198 489.829L129.984 482.83C130.302 483.474 141.535 506.098 151.988 500.79C154.234 500.621 154.812 501.595 154.824 502.546C154.816 503.094 154.661 503.618 154.389 504.015C154.117 504.412 153.749 504.652 153.357 504.688Z" fill="#343A40"/>
<path opacity="0.2" d="M161.067 394.856C159.871 400.63 158.393 400.912 158.393 400.912L122.043 404.738C102.759 403.933 106.623 391.852 106.623 391.852V361.536C68.9741 342.899 81.5006 304.699 81.5006 304.699C81.5006 304.699 78.4917 341.007 104.024 348.787C104.024 348.787 107.888 348.167 107.455 353.869C107.455 353.869 106.173 359.563 111.538 358.065C111.538 358.065 104.879 390.088 117.538 390.99C117.538 390.99 124.186 394.526 143.29 388.284C143.29 388.284 155.875 383.765 161.067 394.856Z" fill="black"/>
<path d="M89.1414 315.765L68.2464 516.31C68.1604 517.135 67.8646 517.889 67.4129 518.435C66.9612 518.98 66.3838 519.281 65.7861 519.282C65.439 519.282 65.0957 519.181 64.7784 518.985C64.461 518.788 64.1767 518.501 63.9438 518.142C63.7109 517.784 63.5346 517.36 63.4261 516.901C63.3177 516.441 63.2796 515.954 63.3143 515.473L76.8978 326.671L77.5331 317.811L89.1414 315.765Z" fill="#939598"/>
<path opacity="0.2" d="M89.1413 315.765L68.2464 516.31C68.1604 517.135 67.8645 517.889 67.4128 518.435C66.9611 518.98 66.3837 519.281 65.7861 519.282H65.5204L83.5797 326.671H76.8977L77.533 317.811L89.1413 315.765Z" fill="black"/>
<path d="M180.24 210.379L173.004 220.728C173.004 220.728 159.363 192.459 165.063 192.918C165.063 192.918 160.714 184.276 165.606 186.934C165.606 186.934 168.996 185.154 172.126 191.766L175.649 197.935C175.649 197.935 174.569 190.55 177.422 190.928C177.422 190.928 178.098 198.386 179.155 200.142C179.189 200.126 181.973 205.796 180.24 210.379Z" fill="#94431A"/>
<path d="M165.877 194.947C167.223 197.283 168.488 199.699 169.701 202.156L169.527 201.962C170.557 202.519 171.512 203.314 172.351 204.314C173.194 205.299 173.916 206.469 174.488 207.777C175.065 209.066 175.484 210.478 175.73 211.957C175.975 213.416 176.072 214.915 176.019 216.411C175.909 215.678 175.851 214.953 175.73 214.237C175.609 213.52 175.482 212.819 175.285 212.143C174.947 210.786 174.483 209.497 173.905 208.309C173.333 207.123 172.642 206.058 171.855 205.144C171.084 204.219 170.22 203.457 169.291 202.88L169.169 202.8L169.117 202.687C167.98 200.158 166.905 197.589 165.877 194.947Z" fill="#94431A"/>
<path d="M165.606 186.925C166.496 188.019 167.288 189.261 167.962 190.622C168.667 191.957 169.249 193.41 169.695 194.947C168.802 193.857 168.01 192.615 167.339 191.25C166.636 189.914 166.054 188.461 165.606 186.925Z" fill="#94431A"/>
<path d="M177.832 205.683C176.336 204.161 175.655 197.919 175.655 197.919C175.655 197.919 174.575 190.534 177.428 190.912C176.336 197.919 177.832 205.683 177.832 205.683Z" fill="#94431A"/>
<path d="M228.701 263.108L218.629 254.95C218.141 254.559 217.715 254.033 217.378 253.404C217.041 252.775 216.801 252.057 216.671 251.293C216.288 248.908 216.276 246.436 216.636 244.044C216.636 244.044 211.438 238.777 212.201 237.601C212.201 237.601 213.24 235.765 218.681 238.616C219.68 239.132 220.812 239.816 222.117 240.67C221.955 240.396 219.836 236.796 220.991 234.525C221.035 234.421 221.102 234.339 221.181 234.291C221.248 234.237 221.321 234.202 221.398 234.188C221.474 234.174 221.552 234.181 221.626 234.21C221.7 234.238 221.77 234.287 221.83 234.354C221.891 234.42 221.941 234.503 221.978 234.597C222.919 236.802 224.363 238.504 226.079 239.43C226.079 239.43 230.214 241.04 231.329 249.9C231.323 249.859 232.853 256.689 228.701 263.108Z" fill="#94431A"/>
<path d="M225.201 242.659C222.371 244.117 218.848 238.874 218.675 238.576C219.674 239.091 220.806 239.776 222.111 240.629C221.949 240.356 219.83 236.756 220.985 234.484C221.03 234.381 221.096 234.299 221.176 234.251C221.84 237.19 223.948 239.969 223.948 239.969C226.165 241.846 225.201 242.659 225.201 242.659Z" fill="#94431A"/>
<path d="M216.7 244.036C217.307 243.925 217.925 244.016 218.502 244.302C219.089 244.549 219.624 244.991 220.061 245.591C219.454 245.708 218.836 245.62 218.259 245.333C217.674 245.076 217.14 244.632 216.7 244.036Z" fill="#94431A"/>
<path d="M359.049 178.098C366.672 178.098 372.852 164.746 372.852 148.274C372.852 131.803 366.672 118.45 359.049 118.45C351.426 118.45 345.246 131.803 345.246 148.274C345.246 164.746 351.426 178.098 359.049 178.098Z" fill="#94431A"/>
<path d="M347.308 132.488C347.308 132.488 350.64 133.954 352.552 131.514C352.552 131.514 353.551 141.428 359.049 139.874C359.049 139.874 358.829 146.559 363.091 146.623L365.113 133.833L359.06 126.247L350.34 127.793L348.203 129.863C347.839 130.691 347.539 131.572 347.308 132.488Z" fill="#94431A"/>
<path d="M348.191 129.863C347.583 131.418 347.097 133.059 346.742 134.76C346.742 134.76 342.046 130.274 346.742 115.551C346.742 115.551 349.548 104.71 356.56 109.978C356.56 109.978 360.446 111.838 366.337 111.065C366.337 111.065 375 109.051 376.779 115.712C376.779 115.712 390.218 114.625 389.663 133.833C389.663 133.833 390.241 168.377 376.334 164.97C376.334 164.97 369.981 164.664 369.225 159.236C369.225 159.236 369.554 149.861 366.447 148.274C366.447 148.274 363.669 150.562 362.779 145.294C362.779 145.294 361.89 136.314 358.113 137.707C358.113 137.707 356.005 138.328 355.225 133.366L354.353 128.381C354.322 128.202 354.259 128.038 354.169 127.902C354.08 127.767 353.967 127.666 353.842 127.608C353.716 127.55 353.583 127.537 353.453 127.571C353.323 127.605 353.202 127.684 353.1 127.801C351.713 129.338 349.956 130.076 348.191 129.863Z" fill="#343A40"/>
<path d="M368.075 155.547C369.718 155.547 371.05 153.03 371.05 149.925C371.05 146.821 369.718 144.304 368.075 144.304C366.433 144.304 365.101 146.821 365.101 149.925C365.101 153.03 366.433 155.547 368.075 155.547Z" fill="#94431A"/>
<path d="M448.808 300.511C444.951 316.173 443.308 332.728 443.968 349.262C442.201 390.031 426.157 385.433 426.157 385.433L365.257 388.203C352.078 386.343 351.974 373.021 351.974 373.021C351.77 369.555 352.014 366.066 352.696 362.72C355.006 352.202 361.636 351.058 361.636 351.058C367.632 348.74 373.484 345.75 379.135 342.118C391.875 334.869 388.543 322.273 388.543 322.273L385.465 269.535C384.148 251.14 386.343 238.874 386.343 238.874C391.771 225.915 403.876 221.719 414.561 220.76C421.154 220.217 427.77 220.635 434.3 222.009C471.291 224.844 448.808 300.511 448.808 300.511Z" fill="#939598"/>
<path opacity="0.2" d="M414.578 220.76C399.533 233.147 398.644 278.83 398.644 278.83L396.646 317.247C395.987 351.018 382.208 352.87 382.208 352.87C371.812 357.703 359.182 361.133 352.713 362.72C355.023 352.202 361.653 351.058 361.653 351.058C367.649 348.74 373.502 345.75 379.152 342.118C391.893 334.869 388.56 322.273 388.56 322.273L385.482 269.535C384.165 251.14 386.36 238.874 386.36 238.874C391.789 225.915 403.894 221.719 414.578 220.76Z" fill="black"/>
<path d="M216.411 249.118C217.765 249.074 219.077 249.777 220.061 251.076C219.389 251.124 218.718 250.961 218.097 250.6C217.464 250.285 216.888 249.779 216.411 249.118Z" fill="#94431A"/>
<path d="M359.869 320.549H57.5448V304.699H359.014C359.54 311.682 359.799 316.933 359.799 316.933C359.799 318.23 359.799 319.438 359.869 320.549Z" fill="#939598"/>
<path d="M93.8655 180.184C96.1748 180.184 98.0468 177.573 98.0468 174.353C98.0468 171.133 96.1748 168.522 93.8655 168.522C91.5562 168.522 89.6842 171.133 89.6842 174.353C89.6842 177.573 91.5562 180.184 93.8655 180.184Z" fill="#94431A"/>
</svg>
