<svg width="400" height="400" viewBox="0 0 400 400" fill="none" xmlns="http://www.w3.org/2000/svg">
<path d="M243.319 193.878C237.641 186.53 228.952 163.478 234.3 154.456C236.974 161.804 240.982 170.493 240.982 170.493C238.645 156.463 249.333 144.1 254.345 142.096C262.03 147.774 267.041 162.474 267.041 162.474C267.041 162.474 257.352 196.885 254.011 196.885C250.67 196.885 243.319 193.878 243.319 193.878Z" fill="#94431A"/>
<path d="M161.493 362.53H46.8927C37.2705 362.53 29.4705 354.73 29.4705 345.107V109.404C29.4705 99.7814 37.2705 91.9814 46.8927 91.9814H161.493C171.115 91.9814 178.915 99.7814 178.915 109.404V345.104C178.915 354.73 171.115 362.53 161.493 362.53Z" fill="#343A40"/>
<path d="M160.048 354.285H48.3407C42.4741 354.285 37.7185 349.53 37.7185 343.663V111.367C37.7185 105.5 42.4741 100.744 48.3407 100.744H160.048C165.915 100.744 170.67 105.5 170.67 111.367V343.659C170.67 349.526 165.915 354.285 160.048 354.285Z" fill="white"/>
<path d="M61.678 99.7111L68.6335 108.563C71.4113 112.1 75.4965 114.137 79.7965 114.137H128.074C132.374 114.137 136.459 112.096 139.237 108.563L146.193 99.7111H61.678Z" fill="#343A40"/>
<path d="M151.763 170.363C154.415 161.482 150.522 151.519 143.689 145.256C136.856 138.993 127.567 135.996 118.356 134.956C111.107 134.137 103.63 134.441 96.7445 136.837C89.8556 139.233 83.5927 143.867 80.1075 150.27C76.2816 157.304 76.0816 165.652 75.5112 173.637C74.9408 181.622 73.6816 190.115 68.363 196.096C64.0964 200.893 57.8704 203.33 52.2223 206.37C43.8741 210.867 36.4001 216.989 30.3519 224.289C25.5149 230.126 21.5186 236.885 20.1704 244.345C18.8186 251.804 20.4149 260.037 25.5482 265.619C30.2927 270.778 37.3408 273.104 44.1964 274.57C51.1927 276.067 58.589 276.867 65.4186 274.737C72.9927 272.378 79.1149 266.622 83.5779 260.067C88.0408 253.511 91.063 246.107 94.3408 238.885C98.5482 229.622 103.345 220.404 110.596 213.267C118.278 205.707 128.241 200.948 136.77 194.356C145.3 187.763 152.796 178.096 152.026 167.345" fill="#343A40"/>
<path d="M162.289 186.526C160.285 168.152 158.948 165.144 142.911 156.459C130.293 149.626 58.5963 158.637 100.419 217.181C135.626 208.656 162.289 186.526 162.289 186.526Z" fill="#343A40"/>
<path d="M100.941 212.571C103.391 211.283 103.532 206.731 101.256 202.404C98.9802 198.077 95.1496 195.614 92.7 196.902C90.2504 198.19 90.1095 202.742 92.3852 207.069C94.6609 211.396 98.4915 213.86 100.941 212.571Z" fill="#FFE3CA"/>
<path d="M174.315 347.885C173.648 352.23 170.307 354.9 166.63 357.907C164.226 359.87 108.785 359.289 70.6667 358.652C50.4667 358.315 35.1334 357.959 35.1334 357.959C35.1334 357.959 35.126 357.941 35.1148 357.907C34.7371 356.656 27.4815 332.059 33.6667 302.448C35.563 293.363 40.626 285.704 47.5037 279.344C63.6371 264.415 89.763 256.585 108.5 254.007C108.5 254.007 170.637 258.352 174.315 263.363C177.993 268.374 174.985 343.544 174.315 347.885Z" fill="#09176B"/>
<path d="M80.7741 358.578C75.7778 358.43 37.1481 357.948 35.1185 357.915C34.7407 356.663 27.4852 332.067 33.6704 302.456C35.5667 293.37 40.6296 285.711 47.5074 279.352C82.1111 284.411 86.037 356.652 80.7741 358.578Z" fill="#09176B"/>
<path d="M135.896 229.956C134.226 237.974 131.219 252.004 135.896 259.689C132.222 270.378 124.87 276.059 124.87 276.059L99.8149 261.026C99.8149 261.026 117.185 233.296 110.841 222.274C112.845 216.93 135.896 229.956 135.896 229.956Z" fill="#94431A"/>
<path d="M161.622 199.889C161.622 220.552 151.385 237.974 134.226 237.974C117.067 237.974 96.4741 220.889 96.4741 200.222C96.4741 179.556 113.393 162.47 130.552 162.47C147.711 162.47 161.622 179.226 161.622 199.889Z" fill="#94431A"/>
<path d="M164.667 197.482C163.43 184.537 156.933 172.17 146.974 163.811C142.104 159.726 136.118 156.489 129.763 156.611C122.563 156.752 116.193 161.104 110.504 165.519C105.259 169.589 97.1777 171.27 94.1407 177.174C91.1036 183.074 87.9814 205.407 92.137 210.582C102.363 207.367 116.041 186.27 117.833 175.704C117.826 175.704 146.707 199.548 164.667 197.482Z" fill="#343A40"/>
<path d="M98.6482 220.27C101.324 220.27 103.493 218.102 103.493 215.426C103.493 212.75 101.324 210.582 98.6482 210.582C95.9726 210.582 93.8037 212.75 93.8037 215.426C93.8037 218.102 95.9726 220.27 98.6482 220.27Z" fill="#FFBE55"/>
<path d="M170.67 261.596C194.359 258.022 224.763 223.278 239.463 188.867C245.141 190.537 256.5 193.544 256.5 193.544C256.5 193.544 242.47 302.456 161.622 300.115C149.93 274.722 170.67 261.596 170.67 261.596Z" fill="#09176B"/>
<path d="M50.0001 125.556C51.4319 125.556 52.5927 124.395 52.5927 122.963C52.5927 121.531 51.4319 120.37 50.0001 120.37C48.5682 120.37 47.4075 121.531 47.4075 122.963C47.4075 124.395 48.5682 125.556 50.0001 125.556Z" fill="white"/>
<path d="M57.9333 125.652V120.637H59.4519V124.334H61.3556V125.656H57.9333V125.652Z" fill="white"/>
<path d="M62.3408 125.652V120.637H63.8593V125.652H62.3408Z" fill="white"/>
<path d="M64.5 120.633H66.2222L67.3074 124.011L68.3889 120.633H70.1111L68.2593 125.648H66.3482L64.5 120.633Z" fill="white"/>
<path d="M70.7593 125.652V120.637H74.563V121.96H72.2741V122.46H74.5111V123.782H72.2741V124.334H74.563V125.656H70.7593V125.652Z" fill="white"/>
<path d="M158.915 348.889H49.4704C46.0074 348.889 43.1741 346.056 43.1741 342.593C43.1741 339.13 46.0074 336.296 49.4704 336.296H158.915C162.378 336.296 165.211 339.13 165.211 342.593C165.211 346.056 162.378 348.889 158.915 348.889Z" stroke="white" stroke-miterlimit="10"/>
<path d="M148.704 344.074C149.42 344.074 150 343.494 150 342.778C150 342.062 149.42 341.481 148.704 341.481C147.988 341.481 147.407 342.062 147.407 342.778C147.407 343.494 147.988 344.074 148.704 344.074Z" fill="white"/>
<path d="M153.148 344.074C153.864 344.074 154.444 343.494 154.444 342.778C154.444 342.062 153.864 341.481 153.148 341.481C152.432 341.481 151.852 342.062 151.852 342.778C151.852 343.494 152.432 344.074 153.148 344.074Z" fill="white"/>
<path d="M157.593 344.074C158.309 344.074 158.889 343.494 158.889 342.778C158.889 342.062 158.309 341.481 157.593 341.481C156.877 341.481 156.296 342.062 156.296 342.778C156.296 343.494 156.877 344.074 157.593 344.074Z" fill="white"/>
<path d="M241.482 125.556C266.641 125.556 287.037 105.16 287.037 80C287.037 54.8404 266.641 34.4445 241.482 34.4445C216.322 34.4445 195.926 54.8404 195.926 80C195.926 105.16 216.322 125.556 241.482 125.556Z" fill="#343A40"/>
<path d="M241.481 79.2629C248.974 79.2629 255.048 71.8852 255.048 62.7852C255.048 53.6852 253.056 46.3074 241.481 46.3074C229.907 46.3074 227.915 53.6852 227.915 62.7852C227.915 71.8852 233.989 79.2629 241.481 79.2629Z" fill="white"/>
<path d="M215.86 104.422C215.855 103.867 215.855 104.267 215.86 104.422V104.422Z" fill="white"/>
<path d="M267.104 104.856C267.114 104.704 267.104 103.8 267.104 104.856V104.856Z" fill="white"/>
<path d="M267.074 103.756C266.822 87.9037 264.752 83.3851 248.911 80.5259C248.911 80.5259 246.681 83.3666 241.481 83.3666C236.281 83.3666 234.052 80.5259 234.052 80.5259C218.381 83.3555 216.185 87.8037 215.896 103.241C215.874 104.5 215.863 104.567 215.859 104.422C215.859 104.696 215.863 105.204 215.863 106.089C215.863 106.089 219.633 113.693 241.481 113.693C263.33 113.693 267.1 106.089 267.1 106.089C267.1 105.522 267.1 105.126 267.1 104.856C267.096 104.944 267.089 104.77 267.074 103.756Z" fill="white"/>
<path d="M335.556 205.185C355.192 205.185 371.111 189.266 371.111 169.63C371.111 149.993 355.192 134.074 335.556 134.074C315.919 134.074 300 149.993 300 169.63C300 189.266 315.919 205.185 335.556 205.185Z" fill="#343A40"/>
<path d="M335.555 169.056C341.404 169.056 346.144 163.296 346.144 156.196C346.144 149.093 344.589 143.337 335.555 143.337C326.522 143.337 324.967 149.096 324.967 156.196C324.967 163.296 329.707 169.056 335.555 169.056Z" fill="white"/>
<path d="M315.56 188.689C315.555 188.256 315.555 188.567 315.56 188.689V188.689Z" fill="white"/>
<path d="M355.552 189.03C355.562 188.911 355.557 188.207 355.552 189.03V189.03Z" fill="white"/>
<path d="M355.529 188.17C355.333 175.796 353.718 172.274 341.352 170.041C341.352 170.041 339.611 172.259 335.555 172.259C331.5 172.259 329.759 170.041 329.759 170.041C317.529 172.248 315.815 175.722 315.589 187.767C315.57 188.752 315.563 188.804 315.559 188.689C315.559 188.904 315.559 189.3 315.559 189.989C315.559 189.989 318.504 195.922 335.555 195.922C352.607 195.922 355.552 189.989 355.552 189.989C355.552 189.544 355.552 189.237 355.552 189.026C355.548 189.1 355.541 188.963 355.529 188.17Z" fill="white"/>
<path d="M284.259 297.037C305.43 297.037 322.593 279.875 322.593 258.704C322.593 237.533 305.43 220.37 284.259 220.37C263.088 220.37 245.926 237.533 245.926 258.704C245.926 279.875 263.088 297.037 284.259 297.037Z" fill="#343A40"/>
<path d="M284.259 258.085C290.563 258.085 295.674 251.878 295.674 244.222C295.674 236.567 293.996 230.359 284.259 230.359C274.522 230.359 272.844 236.567 272.844 244.222C272.844 251.878 277.956 258.085 284.259 258.085Z" fill="white"/>
<path d="M262.701 279.252C262.696 278.785 262.696 279.122 262.701 279.252V279.252Z" fill="white"/>
<path d="M305.819 279.618C305.829 279.489 305.824 278.73 305.819 279.618V279.618Z" fill="white"/>
<path d="M305.793 278.693C305.582 265.352 303.841 261.552 290.507 259.148C290.507 259.148 288.63 261.541 284.256 261.541C279.882 261.541 278.004 259.148 278.004 259.148C264.819 261.53 262.97 265.274 262.726 278.259C262.707 279.319 262.696 279.374 262.693 279.252C262.693 279.482 262.693 279.907 262.693 280.652C262.693 280.652 265.867 287.052 284.252 287.052C302.637 287.052 305.811 280.652 305.811 280.652C305.811 280.174 305.811 279.841 305.811 279.615C305.815 279.693 305.807 279.548 305.793 278.693Z" fill="white"/>
<path d="M331.696 30.7407H276.73C270.174 30.7407 264.807 36.6704 264.807 43.9222C264.807 50.5444 269.285 56.0629 275.056 56.9704L275.215 62.7629L280.967 57.1037H331.693C338.248 57.1037 343.615 51.1741 343.615 43.9222C343.618 36.6704 338.252 30.7407 331.696 30.7407Z" fill="#343A40"/>
<path d="M290.059 48.5037C292.358 48.5037 294.222 46.6398 294.222 44.3407C294.222 42.0416 292.358 40.1777 290.059 40.1777C287.76 40.1777 285.896 42.0416 285.896 44.3407C285.896 46.6398 287.76 48.5037 290.059 48.5037Z" fill="white"/>
<path d="M304.211 48.5037C306.51 48.5037 308.374 46.6398 308.374 44.3407C308.374 42.0416 306.51 40.1777 304.211 40.1777C301.912 40.1777 300.048 42.0416 300.048 44.3407C300.048 46.6398 301.912 48.5037 304.211 48.5037Z" fill="white"/>
<path d="M318.367 48.5037C320.666 48.5037 322.53 46.6398 322.53 44.3407C322.53 42.0416 320.666 40.1777 318.367 40.1777C316.067 40.1777 314.204 42.0416 314.204 44.3407C314.204 46.6398 316.067 48.5037 318.367 48.5037Z" fill="white"/>
</svg>
